<?xml version="1.0" encoding="utf-8"?>
<svg xmlns="http://www.w3.org/2000/svg" xmlns:xlink="http://www.w3.org/1999/xlink" width="528" height="336" viewBox="0 0 2112 1344">
<defs>
  <clipPath id="clip000">
    <rect x="0" y="0" width="2112" height="1344"/>
  </clipPath>
</defs>
<path clip-path="url(#clip000)" d="M0 1344 L2112 1344 L2112 0 L0 0  Z" fill="#ffffff" fill-rule="evenodd" fill-opacity="1"/>
<defs>
  <clipPath id="clip001">
    <rect x="422" y="0" width="1479" height="1344"/>
  </clipPath>
</defs>
<path clip-path="url(#clip000)" d="M282.326 1173.47 L2064.76 1173.47 L2064.76 120.723 L282.326 120.723  Z" fill="#ffffff" fill-rule="evenodd" fill-opacity="1"/>
<defs>
  <clipPath id="clip002">
    <rect x="282" y="120" width="1783" height="1054"/>
  </clipPath>
</defs>
<polyline clip-path="url(#clip002)" style="stroke:#000000; stroke-linecap:round; stroke-linejoin:round; stroke-width:2; stroke-opacity:0.1; fill:none" points="332.772,1173.47 332.772,120.723 "/>
<polyline clip-path="url(#clip002)" style="stroke:#000000; stroke-linecap:round; stroke-linejoin:round; stroke-width:2; stroke-opacity:0.1; fill:none" points="452.553,1173.47 452.553,120.723 "/>
<polyline clip-path="url(#clip002)" style="stroke:#000000; stroke-linecap:round; stroke-linejoin:round; stroke-width:2; stroke-opacity:0.1; fill:none" points="572.334,1173.47 572.334,120.723 "/>
<polyline clip-path="url(#clip002)" style="stroke:#000000; stroke-linecap:round; stroke-linejoin:round; stroke-width:2; stroke-opacity:0.1; fill:none" points="692.114,1173.47 692.114,120.723 "/>
<polyline clip-path="url(#clip002)" style="stroke:#000000; stroke-linecap:round; stroke-linejoin:round; stroke-width:2; stroke-opacity:0.1; fill:none" points="811.895,1173.47 811.895,120.723 "/>
<polyline clip-path="url(#clip002)" style="stroke:#000000; stroke-linecap:round; stroke-linejoin:round; stroke-width:2; stroke-opacity:0.1; fill:none" points="931.676,1173.47 931.676,120.723 "/>
<polyline clip-path="url(#clip002)" style="stroke:#000000; stroke-linecap:round; stroke-linejoin:round; stroke-width:2; stroke-opacity:0.1; fill:none" points="1051.46,1173.47 1051.46,120.723 "/>
<polyline clip-path="url(#clip002)" style="stroke:#000000; stroke-linecap:round; stroke-linejoin:round; stroke-width:2; stroke-opacity:0.1; fill:none" points="1171.24,1173.47 1171.24,120.723 "/>
<polyline clip-path="url(#clip002)" style="stroke:#000000; stroke-linecap:round; stroke-linejoin:round; stroke-width:2; stroke-opacity:0.1; fill:none" points="1291.02,1173.47 1291.02,120.723 "/>
<polyline clip-path="url(#clip002)" style="stroke:#000000; stroke-linecap:round; stroke-linejoin:round; stroke-width:2; stroke-opacity:0.1; fill:none" points="1410.8,1173.47 1410.8,120.723 "/>
<polyline clip-path="url(#clip002)" style="stroke:#000000; stroke-linecap:round; stroke-linejoin:round; stroke-width:2; stroke-opacity:0.1; fill:none" points="1530.58,1173.47 1530.58,120.723 "/>
<polyline clip-path="url(#clip002)" style="stroke:#000000; stroke-linecap:round; stroke-linejoin:round; stroke-width:2; stroke-opacity:0.1; fill:none" points="1650.36,1173.47 1650.36,120.723 "/>
<polyline clip-path="url(#clip002)" style="stroke:#000000; stroke-linecap:round; stroke-linejoin:round; stroke-width:2; stroke-opacity:0.1; fill:none" points="1770.14,1173.47 1770.14,120.723 "/>
<polyline clip-path="url(#clip002)" style="stroke:#000000; stroke-linecap:round; stroke-linejoin:round; stroke-width:2; stroke-opacity:0.1; fill:none" points="1889.92,1173.47 1889.92,120.723 "/>
<polyline clip-path="url(#clip002)" style="stroke:#000000; stroke-linecap:round; stroke-linejoin:round; stroke-width:2; stroke-opacity:0.1; fill:none" points="2009.7,1173.47 2009.7,120.723 "/>
<polyline clip-path="url(#clip000)" style="stroke:#000000; stroke-linecap:round; stroke-linejoin:round; stroke-width:4; stroke-opacity:1; fill:none" points="282.326,1173.47 2064.76,1173.47 "/>
<polyline clip-path="url(#clip000)" style="stroke:#000000; stroke-linecap:round; stroke-linejoin:round; stroke-width:4; stroke-opacity:1; fill:none" points="332.772,1173.47 332.772,1154.57 "/>
<polyline clip-path="url(#clip000)" style="stroke:#000000; stroke-linecap:round; stroke-linejoin:round; stroke-width:4; stroke-opacity:1; fill:none" points="452.553,1173.47 452.553,1154.57 "/>
<polyline clip-path="url(#clip000)" style="stroke:#000000; stroke-linecap:round; stroke-linejoin:round; stroke-width:4; stroke-opacity:1; fill:none" points="572.334,1173.47 572.334,1154.57 "/>
<polyline clip-path="url(#clip000)" style="stroke:#000000; stroke-linecap:round; stroke-linejoin:round; stroke-width:4; stroke-opacity:1; fill:none" points="692.114,1173.47 692.114,1154.57 "/>
<polyline clip-path="url(#clip000)" style="stroke:#000000; stroke-linecap:round; stroke-linejoin:round; stroke-width:4; stroke-opacity:1; fill:none" points="811.895,1173.47 811.895,1154.57 "/>
<polyline clip-path="url(#clip000)" style="stroke:#000000; stroke-linecap:round; stroke-linejoin:round; stroke-width:4; stroke-opacity:1; fill:none" points="931.676,1173.47 931.676,1154.57 "/>
<polyline clip-path="url(#clip000)" style="stroke:#000000; stroke-linecap:round; stroke-linejoin:round; stroke-width:4; stroke-opacity:1; fill:none" points="1051.46,1173.47 1051.46,1154.57 "/>
<polyline clip-path="url(#clip000)" style="stroke:#000000; stroke-linecap:round; stroke-linejoin:round; stroke-width:4; stroke-opacity:1; fill:none" points="1171.24,1173.47 1171.24,1154.57 "/>
<polyline clip-path="url(#clip000)" style="stroke:#000000; stroke-linecap:round; stroke-linejoin:round; stroke-width:4; stroke-opacity:1; fill:none" points="1291.02,1173.47 1291.02,1154.57 "/>
<polyline clip-path="url(#clip000)" style="stroke:#000000; stroke-linecap:round; stroke-linejoin:round; stroke-width:4; stroke-opacity:1; fill:none" points="1410.8,1173.47 1410.8,1154.57 "/>
<polyline clip-path="url(#clip000)" style="stroke:#000000; stroke-linecap:round; stroke-linejoin:round; stroke-width:4; stroke-opacity:1; fill:none" points="1530.58,1173.47 1530.58,1154.57 "/>
<polyline clip-path="url(#clip000)" style="stroke:#000000; stroke-linecap:round; stroke-linejoin:round; stroke-width:4; stroke-opacity:1; fill:none" points="1650.36,1173.47 1650.36,1154.57 "/>
<polyline clip-path="url(#clip000)" style="stroke:#000000; stroke-linecap:round; stroke-linejoin:round; stroke-width:4; stroke-opacity:1; fill:none" points="1770.14,1173.47 1770.14,1154.57 "/>
<polyline clip-path="url(#clip000)" style="stroke:#000000; stroke-linecap:round; stroke-linejoin:round; stroke-width:4; stroke-opacity:1; fill:none" points="1889.92,1173.47 1889.92,1154.57 "/>
<polyline clip-path="url(#clip000)" style="stroke:#000000; stroke-linecap:round; stroke-linejoin:round; stroke-width:4; stroke-opacity:1; fill:none" points="2009.7,1173.47 2009.7,1154.57 "/>
<path clip-path="url(#clip000)" d="M323.154 1229.63 L330.793 1229.63 L330.793 1203.27 L322.483 1204.93 L322.483 1200.67 L330.747 1199.01 L335.422 1199.01 L335.422 1229.63 L343.061 1229.63 L343.061 1233.57 L323.154 1233.57 L323.154 1229.63 Z" fill="#000000" fill-rule="nonzero" fill-opacity="1" /><path clip-path="url(#clip000)" d="M431.777 1229.63 L448.097 1229.63 L448.097 1233.57 L426.152 1233.57 L426.152 1229.63 Q428.815 1226.88 433.398 1222.25 Q438.004 1217.59 439.185 1216.25 Q441.43 1213.73 442.31 1211.99 Q443.213 1210.23 443.213 1208.54 Q443.213 1205.79 441.268 1204.05 Q439.347 1202.32 436.245 1202.32 Q434.046 1202.32 431.592 1203.08 Q429.162 1203.84 426.384 1205.4 L426.384 1200.67 Q429.208 1199.54 431.662 1198.96 Q434.115 1198.38 436.152 1198.38 Q441.523 1198.38 444.717 1201.07 Q447.912 1203.75 447.912 1208.24 Q447.912 1210.37 447.101 1212.29 Q446.314 1214.19 444.208 1216.78 Q443.629 1217.46 440.527 1220.67 Q437.426 1223.87 431.777 1229.63 Z" fill="#000000" fill-rule="nonzero" fill-opacity="1" /><path clip-path="url(#clip000)" d="M456.731 1199.01 L478.953 1199.01 L478.953 1201 L466.407 1233.57 L461.523 1233.57 L473.328 1202.94 L456.731 1202.94 L456.731 1199.01 Z" fill="#000000" fill-rule="nonzero" fill-opacity="1" /><path clip-path="url(#clip000)" d="M547.357 1199.01 L565.713 1199.01 L565.713 1202.94 L551.639 1202.94 L551.639 1211.41 Q552.658 1211.07 553.676 1210.9 Q554.695 1210.72 555.713 1210.72 Q561.5 1210.72 564.88 1213.89 Q568.26 1217.06 568.26 1222.48 Q568.26 1228.06 564.787 1231.16 Q561.315 1234.24 554.996 1234.24 Q552.82 1234.24 550.551 1233.87 Q548.306 1233.5 545.899 1232.76 L545.899 1228.06 Q547.982 1229.19 550.204 1229.75 Q552.426 1230.3 554.903 1230.3 Q558.908 1230.3 561.246 1228.2 Q563.584 1226.09 563.584 1222.48 Q563.584 1218.87 561.246 1216.76 Q558.908 1214.65 554.903 1214.65 Q553.028 1214.65 551.153 1215.07 Q549.301 1215.49 547.357 1216.37 L547.357 1199.01 Z" fill="#000000" fill-rule="nonzero" fill-opacity="1" /><path clip-path="url(#clip000)" d="M591.639 1214.93 Q594.995 1215.65 596.87 1217.92 Q598.769 1220.19 598.769 1223.52 Q598.769 1228.64 595.25 1231.44 Q591.732 1234.24 585.25 1234.24 Q583.074 1234.24 580.759 1233.8 Q578.468 1233.38 576.014 1232.53 L576.014 1228.01 Q577.959 1229.15 580.273 1229.72 Q582.588 1230.3 585.111 1230.3 Q589.509 1230.3 591.801 1228.57 Q594.116 1226.83 594.116 1223.52 Q594.116 1220.46 591.963 1218.75 Q589.833 1217.02 586.014 1217.02 L581.986 1217.02 L581.986 1213.17 L586.199 1213.17 Q589.648 1213.17 591.477 1211.81 Q593.306 1210.42 593.306 1207.83 Q593.306 1205.16 591.408 1203.75 Q589.533 1202.32 586.014 1202.32 Q584.093 1202.32 581.894 1202.73 Q579.695 1203.15 577.056 1204.03 L577.056 1199.86 Q579.718 1199.12 582.033 1198.75 Q584.371 1198.38 586.431 1198.38 Q591.755 1198.38 594.857 1200.81 Q597.958 1203.22 597.958 1207.34 Q597.958 1210.21 596.315 1212.2 Q594.671 1214.17 591.639 1214.93 Z" fill="#000000" fill-rule="nonzero" fill-opacity="1" /><path clip-path="url(#clip000)" d="M665.564 1199.01 L687.786 1199.01 L687.786 1201 L675.239 1233.57 L670.355 1233.57 L682.161 1202.94 L665.564 1202.94 L665.564 1199.01 Z" fill="#000000" fill-rule="nonzero" fill-opacity="1" /><path clip-path="url(#clip000)" d="M697.045 1232.85 L697.045 1228.59 Q698.804 1229.42 700.61 1229.86 Q702.415 1230.3 704.151 1230.3 Q708.781 1230.3 711.211 1227.2 Q713.665 1224.08 714.012 1217.73 Q712.67 1219.72 710.61 1220.79 Q708.549 1221.85 706.049 1221.85 Q700.864 1221.85 697.832 1218.73 Q694.823 1215.58 694.823 1210.14 Q694.823 1204.82 697.971 1201.6 Q701.119 1198.38 706.35 1198.38 Q712.346 1198.38 715.494 1202.99 Q718.665 1207.57 718.665 1216.32 Q718.665 1224.49 714.776 1229.38 Q710.911 1234.24 704.36 1234.24 Q702.6 1234.24 700.795 1233.89 Q698.989 1233.54 697.045 1232.85 M706.35 1218.2 Q709.499 1218.2 711.327 1216.04 Q713.179 1213.89 713.179 1210.14 Q713.179 1206.41 711.327 1204.26 Q709.499 1202.09 706.35 1202.09 Q703.202 1202.09 701.35 1204.26 Q699.522 1206.41 699.522 1210.14 Q699.522 1213.89 701.35 1216.04 Q703.202 1218.2 706.35 1218.2 Z" fill="#000000" fill-rule="nonzero" fill-opacity="1" /><path clip-path="url(#clip000)" d="M771.999 1229.63 L779.638 1229.63 L779.638 1203.27 L771.328 1204.93 L771.328 1200.67 L779.592 1199.01 L784.268 1199.01 L784.268 1229.63 L791.907 1229.63 L791.907 1233.57 L771.999 1233.57 L771.999 1229.63 Z" fill="#000000" fill-rule="nonzero" fill-opacity="1" /><path clip-path="url(#clip000)" d="M811.351 1202.09 Q807.74 1202.09 805.911 1205.65 Q804.106 1209.19 804.106 1216.32 Q804.106 1223.43 805.911 1226.99 Q807.74 1230.53 811.351 1230.53 Q814.985 1230.53 816.791 1226.99 Q818.62 1223.43 818.62 1216.32 Q818.62 1209.19 816.791 1205.65 Q814.985 1202.09 811.351 1202.09 M811.351 1198.38 Q817.161 1198.38 820.217 1202.99 Q823.296 1207.57 823.296 1216.32 Q823.296 1225.05 820.217 1229.65 Q817.161 1234.24 811.351 1234.24 Q805.541 1234.24 802.462 1229.65 Q799.407 1225.05 799.407 1216.32 Q799.407 1207.57 802.462 1202.99 Q805.541 1198.38 811.351 1198.38 Z" fill="#000000" fill-rule="nonzero" fill-opacity="1" /><path clip-path="url(#clip000)" d="M831.559 1199.01 L849.916 1199.01 L849.916 1202.94 L835.842 1202.94 L835.842 1211.41 Q836.86 1211.07 837.879 1210.9 Q838.897 1210.72 839.916 1210.72 Q845.703 1210.72 849.082 1213.89 Q852.462 1217.06 852.462 1222.48 Q852.462 1228.06 848.99 1231.16 Q845.518 1234.24 839.198 1234.24 Q837.022 1234.24 834.754 1233.87 Q832.508 1233.5 830.101 1232.76 L830.101 1228.06 Q832.184 1229.19 834.407 1229.75 Q836.629 1230.3 839.106 1230.3 Q843.11 1230.3 845.448 1228.2 Q847.786 1226.09 847.786 1222.48 Q847.786 1218.87 845.448 1216.76 Q843.11 1214.65 839.106 1214.65 Q837.231 1214.65 835.356 1215.07 Q833.504 1215.49 831.559 1216.37 L831.559 1199.01 Z" fill="#000000" fill-rule="nonzero" fill-opacity="1" /><path clip-path="url(#clip000)" d="M891.896 1229.63 L899.535 1229.63 L899.535 1203.27 L891.225 1204.93 L891.225 1200.67 L899.489 1199.01 L904.164 1199.01 L904.164 1229.63 L911.803 1229.63 L911.803 1233.57 L891.896 1233.57 L891.896 1229.63 Z" fill="#000000" fill-rule="nonzero" fill-opacity="1" /><path clip-path="url(#clip000)" d="M935.414 1214.93 Q938.771 1215.65 940.646 1217.92 Q942.544 1220.19 942.544 1223.52 Q942.544 1228.64 939.025 1231.44 Q935.507 1234.24 929.025 1234.24 Q926.85 1234.24 924.535 1233.8 Q922.243 1233.38 919.789 1232.53 L919.789 1228.01 Q921.734 1229.15 924.049 1229.72 Q926.363 1230.3 928.887 1230.3 Q933.285 1230.3 935.576 1228.57 Q937.891 1226.83 937.891 1223.52 Q937.891 1220.46 935.738 1218.75 Q933.609 1217.02 929.789 1217.02 L925.762 1217.02 L925.762 1213.17 L929.975 1213.17 Q933.424 1213.17 935.252 1211.81 Q937.081 1210.42 937.081 1207.83 Q937.081 1205.16 935.183 1203.75 Q933.308 1202.32 929.789 1202.32 Q927.868 1202.32 925.669 1202.73 Q923.47 1203.15 920.831 1204.03 L920.831 1199.86 Q923.493 1199.12 925.808 1198.75 Q928.146 1198.38 930.206 1198.38 Q935.53 1198.38 938.632 1200.81 Q941.734 1203.22 941.734 1207.34 Q941.734 1210.21 940.09 1212.2 Q938.447 1214.17 935.414 1214.93 Z" fill="#000000" fill-rule="nonzero" fill-opacity="1" /><path clip-path="url(#clip000)" d="M952.22 1229.63 L959.859 1229.63 L959.859 1203.27 L951.548 1204.93 L951.548 1200.67 L959.812 1199.01 L964.488 1199.01 L964.488 1229.63 L972.127 1229.63 L972.127 1233.57 L952.22 1233.57 L952.22 1229.63 Z" fill="#000000" fill-rule="nonzero" fill-opacity="1" /><path clip-path="url(#clip000)" d="M1011.51 1229.63 L1019.15 1229.63 L1019.15 1203.27 L1010.84 1204.93 L1010.84 1200.67 L1019.11 1199.01 L1023.78 1199.01 L1023.78 1229.63 L1031.42 1229.63 L1031.42 1233.57 L1011.51 1233.57 L1011.51 1229.63 Z" fill="#000000" fill-rule="nonzero" fill-opacity="1" /><path clip-path="url(#clip000)" d="M1040.91 1199.01 L1059.27 1199.01 L1059.27 1202.94 L1045.2 1202.94 L1045.2 1211.41 Q1046.21 1211.07 1047.23 1210.9 Q1048.25 1210.72 1049.27 1210.72 Q1055.06 1210.72 1058.44 1213.89 Q1061.82 1217.06 1061.82 1222.48 Q1061.82 1228.06 1058.34 1231.16 Q1054.87 1234.24 1048.55 1234.24 Q1046.38 1234.24 1044.11 1233.87 Q1041.86 1233.5 1039.45 1232.76 L1039.45 1228.06 Q1041.54 1229.19 1043.76 1229.75 Q1045.98 1230.3 1048.46 1230.3 Q1052.46 1230.3 1054.8 1228.2 Q1057.14 1226.09 1057.14 1222.48 Q1057.14 1218.87 1054.8 1216.76 Q1052.46 1214.65 1048.46 1214.65 Q1046.58 1214.65 1044.71 1215.07 Q1042.86 1215.49 1040.91 1216.37 L1040.91 1199.01 Z" fill="#000000" fill-rule="nonzero" fill-opacity="1" /><path clip-path="url(#clip000)" d="M1069.85 1199.01 L1092.07 1199.01 L1092.07 1201 L1079.52 1233.57 L1074.64 1233.57 L1086.44 1202.94 L1069.85 1202.94 L1069.85 1199.01 Z" fill="#000000" fill-rule="nonzero" fill-opacity="1" /><path clip-path="url(#clip000)" d="M1131.17 1229.63 L1138.81 1229.63 L1138.81 1203.27 L1130.5 1204.93 L1130.5 1200.67 L1138.76 1199.01 L1143.44 1199.01 L1143.44 1229.63 L1151.08 1229.63 L1151.08 1233.57 L1131.17 1233.57 L1131.17 1229.63 Z" fill="#000000" fill-rule="nonzero" fill-opacity="1" /><path clip-path="url(#clip000)" d="M1170.52 1217.15 Q1167.19 1217.15 1165.27 1218.94 Q1163.37 1220.72 1163.37 1223.84 Q1163.37 1226.97 1165.27 1228.75 Q1167.19 1230.53 1170.52 1230.53 Q1173.85 1230.53 1175.77 1228.75 Q1177.7 1226.95 1177.7 1223.84 Q1177.7 1220.72 1175.77 1218.94 Q1173.88 1217.15 1170.52 1217.15 M1165.84 1215.16 Q1162.83 1214.42 1161.14 1212.36 Q1159.48 1210.3 1159.48 1207.34 Q1159.48 1203.2 1162.42 1200.79 Q1165.38 1198.38 1170.52 1198.38 Q1175.68 1198.38 1178.62 1200.79 Q1181.56 1203.2 1181.56 1207.34 Q1181.56 1210.3 1179.87 1212.36 Q1178.2 1214.42 1175.22 1215.16 Q1178.6 1215.95 1180.47 1218.24 Q1182.37 1220.53 1182.37 1223.84 Q1182.37 1228.87 1179.29 1231.55 Q1176.24 1234.24 1170.52 1234.24 Q1164.8 1234.24 1161.72 1231.55 Q1158.67 1228.87 1158.67 1223.84 Q1158.67 1220.53 1160.57 1218.24 Q1162.46 1215.95 1165.84 1215.16 M1164.13 1207.78 Q1164.13 1210.47 1165.8 1211.97 Q1167.49 1213.47 1170.52 1213.47 Q1173.53 1213.47 1175.22 1211.97 Q1176.93 1210.47 1176.93 1207.78 Q1176.93 1205.09 1175.22 1203.59 Q1173.53 1202.09 1170.52 1202.09 Q1167.49 1202.09 1165.8 1203.59 Q1164.13 1205.09 1164.13 1207.78 Z" fill="#000000" fill-rule="nonzero" fill-opacity="1" /><path clip-path="url(#clip000)" d="M1204.85 1214.93 Q1208.2 1215.65 1210.08 1217.92 Q1211.98 1220.19 1211.98 1223.52 Q1211.98 1228.64 1208.46 1231.44 Q1204.94 1234.24 1198.46 1234.24 Q1196.28 1234.24 1193.97 1233.8 Q1191.68 1233.38 1189.22 1232.53 L1189.22 1228.01 Q1191.17 1229.15 1193.48 1229.72 Q1195.8 1230.3 1198.32 1230.3 Q1202.72 1230.3 1205.01 1228.57 Q1207.33 1226.83 1207.33 1223.52 Q1207.33 1220.46 1205.17 1218.75 Q1203.04 1217.02 1199.22 1217.02 L1195.2 1217.02 L1195.2 1213.17 L1199.41 1213.17 Q1202.86 1213.17 1204.69 1211.81 Q1206.52 1210.42 1206.52 1207.83 Q1206.52 1205.16 1204.62 1203.75 Q1202.74 1202.32 1199.22 1202.32 Q1197.3 1202.32 1195.1 1202.73 Q1192.9 1203.15 1190.27 1204.03 L1190.27 1199.86 Q1192.93 1199.12 1195.24 1198.75 Q1197.58 1198.38 1199.64 1198.38 Q1204.96 1198.38 1208.07 1200.81 Q1211.17 1203.22 1211.17 1207.34 Q1211.17 1210.21 1209.52 1212.2 Q1207.88 1214.17 1204.85 1214.93 Z" fill="#000000" fill-rule="nonzero" fill-opacity="1" /><path clip-path="url(#clip000)" d="M1254.8 1229.63 L1271.12 1229.63 L1271.12 1233.57 L1249.18 1233.57 L1249.18 1229.63 Q1251.84 1226.88 1256.42 1222.25 Q1261.03 1217.59 1262.21 1216.25 Q1264.46 1213.73 1265.34 1211.99 Q1266.24 1210.23 1266.24 1208.54 Q1266.24 1205.79 1264.29 1204.05 Q1262.37 1202.32 1259.27 1202.32 Q1257.07 1202.32 1254.62 1203.08 Q1252.19 1203.84 1249.41 1205.4 L1249.41 1200.67 Q1252.23 1199.54 1254.69 1198.96 Q1257.14 1198.38 1259.18 1198.38 Q1264.55 1198.38 1267.74 1201.07 Q1270.94 1203.75 1270.94 1208.24 Q1270.94 1210.37 1270.13 1212.29 Q1269.34 1214.19 1267.23 1216.78 Q1266.65 1217.46 1263.55 1220.67 Q1260.45 1223.87 1254.8 1229.63 Z" fill="#000000" fill-rule="nonzero" fill-opacity="1" /><path clip-path="url(#clip000)" d="M1290.94 1202.09 Q1287.33 1202.09 1285.5 1205.65 Q1283.69 1209.19 1283.69 1216.32 Q1283.69 1223.43 1285.5 1226.99 Q1287.33 1230.53 1290.94 1230.53 Q1294.57 1230.53 1296.38 1226.99 Q1298.21 1223.43 1298.21 1216.32 Q1298.21 1209.19 1296.38 1205.65 Q1294.57 1202.09 1290.94 1202.09 M1290.94 1198.38 Q1296.75 1198.38 1299.8 1202.99 Q1302.88 1207.57 1302.88 1216.32 Q1302.88 1225.05 1299.8 1229.65 Q1296.75 1234.24 1290.94 1234.24 Q1285.13 1234.24 1282.05 1229.65 Q1278.99 1225.05 1278.99 1216.32 Q1278.99 1207.57 1282.05 1202.99 Q1285.13 1198.38 1290.94 1198.38 Z" fill="#000000" fill-rule="nonzero" fill-opacity="1" /><path clip-path="url(#clip000)" d="M1311.24 1232.85 L1311.24 1228.59 Q1313 1229.42 1314.8 1229.86 Q1316.61 1230.3 1318.34 1230.3 Q1322.97 1230.3 1325.4 1227.2 Q1327.86 1224.08 1328.21 1217.73 Q1326.86 1219.72 1324.8 1220.79 Q1322.74 1221.85 1320.24 1221.85 Q1315.06 1221.85 1312.03 1218.73 Q1309.02 1215.58 1309.02 1210.14 Q1309.02 1204.82 1312.16 1201.6 Q1315.31 1198.38 1320.54 1198.38 Q1326.54 1198.38 1329.69 1202.99 Q1332.86 1207.57 1332.86 1216.32 Q1332.86 1224.49 1328.97 1229.38 Q1325.1 1234.24 1318.55 1234.24 Q1316.79 1234.24 1314.99 1233.89 Q1313.18 1233.54 1311.24 1232.85 M1320.54 1218.2 Q1323.69 1218.2 1325.52 1216.04 Q1327.37 1213.89 1327.37 1210.14 Q1327.37 1206.41 1325.52 1204.26 Q1323.69 1202.09 1320.54 1202.09 Q1317.4 1202.09 1315.54 1204.26 Q1313.71 1206.41 1313.71 1210.14 Q1313.71 1213.89 1315.54 1216.04 Q1317.4 1218.2 1320.54 1218.2 Z" fill="#000000" fill-rule="nonzero" fill-opacity="1" /><path clip-path="url(#clip000)" d="M1374.99 1229.63 L1391.31 1229.63 L1391.31 1233.57 L1369.36 1233.57 L1369.36 1229.63 Q1372.03 1226.88 1376.61 1222.25 Q1381.22 1217.59 1382.4 1216.25 Q1384.64 1213.73 1385.52 1211.99 Q1386.42 1210.23 1386.42 1208.54 Q1386.42 1205.79 1384.48 1204.05 Q1382.56 1202.32 1379.46 1202.32 Q1377.26 1202.32 1374.8 1203.08 Q1372.37 1203.84 1369.6 1205.4 L1369.6 1200.67 Q1372.42 1199.54 1374.87 1198.96 Q1377.33 1198.38 1379.36 1198.38 Q1384.73 1198.38 1387.93 1201.07 Q1391.12 1203.75 1391.12 1208.24 Q1391.12 1210.37 1390.31 1212.29 Q1389.53 1214.19 1387.42 1216.78 Q1386.84 1217.46 1383.74 1220.67 Q1380.64 1223.87 1374.99 1229.63 Z" fill="#000000" fill-rule="nonzero" fill-opacity="1" /><path clip-path="url(#clip000)" d="M1415.29 1214.93 Q1418.65 1215.65 1420.52 1217.92 Q1422.42 1220.19 1422.42 1223.52 Q1422.42 1228.64 1418.9 1231.44 Q1415.38 1234.24 1408.9 1234.24 Q1406.72 1234.24 1404.41 1233.8 Q1402.12 1233.38 1399.66 1232.53 L1399.66 1228.01 Q1401.61 1229.15 1403.92 1229.72 Q1406.24 1230.3 1408.76 1230.3 Q1413.16 1230.3 1415.45 1228.57 Q1417.77 1226.83 1417.77 1223.52 Q1417.77 1220.46 1415.61 1218.75 Q1413.48 1217.02 1409.66 1217.02 L1405.64 1217.02 L1405.64 1213.17 L1409.85 1213.17 Q1413.3 1213.17 1415.13 1211.81 Q1416.96 1210.42 1416.96 1207.83 Q1416.96 1205.16 1415.06 1203.75 Q1413.18 1202.32 1409.66 1202.32 Q1407.74 1202.32 1405.54 1202.73 Q1403.35 1203.15 1400.71 1204.03 L1400.71 1199.86 Q1403.37 1199.12 1405.68 1198.75 Q1408.02 1198.38 1410.08 1198.38 Q1415.41 1198.38 1418.51 1200.81 Q1421.61 1203.22 1421.61 1207.34 Q1421.61 1210.21 1419.97 1212.2 Q1418.32 1214.17 1415.29 1214.93 Z" fill="#000000" fill-rule="nonzero" fill-opacity="1" /><path clip-path="url(#clip000)" d="M1431.33 1199.01 L1449.69 1199.01 L1449.69 1202.94 L1435.61 1202.94 L1435.61 1211.41 Q1436.63 1211.07 1437.65 1210.9 Q1438.67 1210.72 1439.69 1210.72 Q1445.47 1210.72 1448.85 1213.89 Q1452.23 1217.06 1452.23 1222.48 Q1452.23 1228.06 1448.76 1231.16 Q1445.29 1234.24 1438.97 1234.24 Q1436.79 1234.24 1434.53 1233.87 Q1432.28 1233.5 1429.87 1232.76 L1429.87 1228.06 Q1431.96 1229.19 1434.18 1229.75 Q1436.4 1230.3 1438.88 1230.3 Q1442.88 1230.3 1445.22 1228.2 Q1447.56 1226.09 1447.56 1222.48 Q1447.56 1218.87 1445.22 1216.76 Q1442.88 1214.65 1438.88 1214.65 Q1437 1214.65 1435.13 1215.07 Q1433.28 1215.49 1431.33 1216.37 L1431.33 1199.01 Z" fill="#000000" fill-rule="nonzero" fill-opacity="1" /><path clip-path="url(#clip000)" d="M1494.89 1229.63 L1511.2 1229.63 L1511.2 1233.57 L1489.26 1233.57 L1489.26 1229.63 Q1491.92 1226.88 1496.51 1222.25 Q1501.11 1217.59 1502.29 1216.25 Q1504.54 1213.73 1505.42 1211.99 Q1506.32 1210.23 1506.32 1208.54 Q1506.32 1205.79 1504.38 1204.05 Q1502.45 1202.32 1499.35 1202.32 Q1497.15 1202.32 1494.7 1203.08 Q1492.27 1203.84 1489.49 1205.4 L1489.49 1200.67 Q1492.32 1199.54 1494.77 1198.96 Q1497.22 1198.38 1499.26 1198.38 Q1504.63 1198.38 1507.83 1201.07 Q1511.02 1203.75 1511.02 1208.24 Q1511.02 1210.37 1510.21 1212.29 Q1509.42 1214.19 1507.32 1216.78 Q1506.74 1217.46 1503.64 1220.67 Q1500.53 1223.87 1494.89 1229.63 Z" fill="#000000" fill-rule="nonzero" fill-opacity="1" /><path clip-path="url(#clip000)" d="M1531.6 1214.42 Q1528.45 1214.42 1526.6 1216.58 Q1524.77 1218.73 1524.77 1222.48 Q1524.77 1226.21 1526.6 1228.38 Q1528.45 1230.53 1531.6 1230.53 Q1534.75 1230.53 1536.58 1228.38 Q1538.43 1226.21 1538.43 1222.48 Q1538.43 1218.73 1536.58 1216.58 Q1534.75 1214.42 1531.6 1214.42 M1540.88 1199.77 L1540.88 1204.03 Q1539.12 1203.2 1537.32 1202.76 Q1535.53 1202.32 1533.77 1202.32 Q1529.14 1202.32 1526.69 1205.44 Q1524.26 1208.57 1523.91 1214.89 Q1525.28 1212.87 1527.34 1211.81 Q1529.4 1210.72 1531.88 1210.72 Q1537.08 1210.72 1540.09 1213.89 Q1543.13 1217.04 1543.13 1222.48 Q1543.13 1227.8 1539.98 1231.02 Q1536.83 1234.24 1531.6 1234.24 Q1525.6 1234.24 1522.43 1229.65 Q1519.26 1225.05 1519.26 1216.32 Q1519.26 1208.13 1523.15 1203.27 Q1527.04 1198.38 1533.59 1198.38 Q1535.35 1198.38 1537.13 1198.73 Q1538.94 1199.08 1540.88 1199.77 Z" fill="#000000" fill-rule="nonzero" fill-opacity="1" /><path clip-path="url(#clip000)" d="M1551.99 1229.63 L1559.63 1229.63 L1559.63 1203.27 L1551.32 1204.93 L1551.32 1200.67 L1559.58 1199.01 L1564.26 1199.01 L1564.26 1229.63 L1571.9 1229.63 L1571.9 1233.57 L1551.99 1233.57 L1551.99 1229.63 Z" fill="#000000" fill-rule="nonzero" fill-opacity="1" /><path clip-path="url(#clip000)" d="M1614.5 1229.63 L1630.82 1229.63 L1630.82 1233.57 L1608.88 1233.57 L1608.88 1229.63 Q1611.54 1226.88 1616.12 1222.25 Q1620.73 1217.59 1621.91 1216.25 Q1624.16 1213.73 1625.04 1211.99 Q1625.94 1210.23 1625.94 1208.54 Q1625.94 1205.79 1623.99 1204.05 Q1622.07 1202.32 1618.97 1202.32 Q1616.77 1202.32 1614.32 1203.08 Q1611.89 1203.84 1609.11 1205.4 L1609.11 1200.67 Q1611.93 1199.54 1614.39 1198.96 Q1616.84 1198.38 1618.88 1198.38 Q1624.25 1198.38 1627.44 1201.07 Q1630.64 1203.75 1630.64 1208.24 Q1630.64 1210.37 1629.83 1212.29 Q1629.04 1214.19 1626.93 1216.78 Q1626.36 1217.46 1623.25 1220.67 Q1620.15 1223.87 1614.5 1229.63 Z" fill="#000000" fill-rule="nonzero" fill-opacity="1" /><path clip-path="url(#clip000)" d="M1650.64 1217.15 Q1647.3 1217.15 1645.38 1218.94 Q1643.49 1220.72 1643.49 1223.84 Q1643.49 1226.97 1645.38 1228.75 Q1647.3 1230.53 1650.64 1230.53 Q1653.97 1230.53 1655.89 1228.75 Q1657.81 1226.95 1657.81 1223.84 Q1657.81 1220.72 1655.89 1218.94 Q1653.99 1217.15 1650.64 1217.15 M1645.96 1215.16 Q1642.95 1214.42 1641.26 1212.36 Q1639.6 1210.3 1639.6 1207.34 Q1639.6 1203.2 1642.54 1200.79 Q1645.5 1198.38 1650.64 1198.38 Q1655.8 1198.38 1658.74 1200.79 Q1661.68 1203.2 1661.68 1207.34 Q1661.68 1210.3 1659.99 1212.36 Q1658.32 1214.42 1655.34 1215.16 Q1658.72 1215.95 1660.59 1218.24 Q1662.49 1220.53 1662.49 1223.84 Q1662.49 1228.87 1659.41 1231.55 Q1656.36 1234.24 1650.64 1234.24 Q1644.92 1234.24 1641.84 1231.55 Q1638.79 1228.87 1638.79 1223.84 Q1638.79 1220.53 1640.68 1218.24 Q1642.58 1215.95 1645.96 1215.16 M1644.25 1207.78 Q1644.25 1210.47 1645.92 1211.97 Q1647.61 1213.47 1650.64 1213.47 Q1653.65 1213.47 1655.34 1211.97 Q1657.05 1210.47 1657.05 1207.78 Q1657.05 1205.09 1655.34 1203.59 Q1653.65 1202.09 1650.64 1202.09 Q1647.61 1202.09 1645.92 1203.59 Q1644.25 1205.09 1644.25 1207.78 Z" fill="#000000" fill-rule="nonzero" fill-opacity="1" /><path clip-path="url(#clip000)" d="M1669.62 1199.01 L1691.84 1199.01 L1691.84 1201 L1679.3 1233.57 L1674.41 1233.57 L1686.22 1202.94 L1669.62 1202.94 L1669.62 1199.01 Z" fill="#000000" fill-rule="nonzero" fill-opacity="1" /><path clip-path="url(#clip000)" d="M1744.23 1214.93 Q1747.58 1215.65 1749.46 1217.92 Q1751.36 1220.19 1751.36 1223.52 Q1751.36 1228.64 1747.84 1231.44 Q1744.32 1234.24 1737.84 1234.24 Q1735.66 1234.24 1733.35 1233.8 Q1731.06 1233.38 1728.6 1232.53 L1728.6 1228.01 Q1730.55 1229.15 1732.86 1229.72 Q1735.18 1230.3 1737.7 1230.3 Q1742.1 1230.3 1744.39 1228.57 Q1746.7 1226.83 1746.7 1223.52 Q1746.7 1220.46 1744.55 1218.75 Q1742.42 1217.02 1738.6 1217.02 L1734.57 1217.02 L1734.57 1213.17 L1738.79 1213.17 Q1742.24 1213.17 1744.07 1211.81 Q1745.89 1210.42 1745.89 1207.83 Q1745.89 1205.16 1744 1203.75 Q1742.12 1202.32 1738.6 1202.32 Q1736.68 1202.32 1734.48 1202.73 Q1732.28 1203.15 1729.64 1204.03 L1729.64 1199.86 Q1732.31 1199.12 1734.62 1198.75 Q1736.96 1198.38 1739.02 1198.38 Q1744.34 1198.38 1747.44 1200.81 Q1750.55 1203.22 1750.55 1207.34 Q1750.55 1210.21 1748.9 1212.2 Q1747.26 1214.17 1744.23 1214.93 Z" fill="#000000" fill-rule="nonzero" fill-opacity="1" /><path clip-path="url(#clip000)" d="M1761.03 1229.63 L1768.67 1229.63 L1768.67 1203.27 L1760.36 1204.93 L1760.36 1200.67 L1768.63 1199.01 L1773.3 1199.01 L1773.3 1229.63 L1780.94 1229.63 L1780.94 1233.57 L1761.03 1233.57 L1761.03 1229.63 Z" fill="#000000" fill-rule="nonzero" fill-opacity="1" /><path clip-path="url(#clip000)" d="M1804.55 1214.93 Q1807.91 1215.65 1809.78 1217.92 Q1811.68 1220.19 1811.68 1223.52 Q1811.68 1228.64 1808.16 1231.44 Q1804.64 1234.24 1798.16 1234.24 Q1795.99 1234.24 1793.67 1233.8 Q1791.38 1233.38 1788.93 1232.53 L1788.93 1228.01 Q1790.87 1229.15 1793.19 1229.72 Q1795.5 1230.3 1798.02 1230.3 Q1802.42 1230.3 1804.71 1228.57 Q1807.03 1226.83 1807.03 1223.52 Q1807.03 1220.46 1804.87 1218.75 Q1802.75 1217.02 1798.93 1217.02 L1794.9 1217.02 L1794.9 1213.17 L1799.11 1213.17 Q1802.56 1213.17 1804.39 1211.81 Q1806.22 1210.42 1806.22 1207.83 Q1806.22 1205.16 1804.32 1203.75 Q1802.44 1202.32 1798.93 1202.32 Q1797 1202.32 1794.81 1202.73 Q1792.61 1203.15 1789.97 1204.03 L1789.97 1199.86 Q1792.63 1199.12 1794.94 1198.75 Q1797.28 1198.38 1799.34 1198.38 Q1804.67 1198.38 1807.77 1200.81 Q1810.87 1203.22 1810.87 1207.34 Q1810.87 1210.21 1809.23 1212.2 Q1807.58 1214.17 1804.55 1214.93 Z" fill="#000000" fill-rule="nonzero" fill-opacity="1" /><path clip-path="url(#clip000)" d="M1863.78 1214.93 Q1867.13 1215.65 1869.01 1217.92 Q1870.91 1220.19 1870.91 1223.52 Q1870.91 1228.64 1867.39 1231.44 Q1863.87 1234.24 1857.39 1234.24 Q1855.21 1234.24 1852.9 1233.8 Q1850.61 1233.38 1848.15 1232.53 L1848.15 1228.01 Q1850.1 1229.15 1852.41 1229.72 Q1854.73 1230.3 1857.25 1230.3 Q1861.65 1230.3 1863.94 1228.57 Q1866.25 1226.83 1866.25 1223.52 Q1866.25 1220.46 1864.1 1218.75 Q1861.97 1217.02 1858.15 1217.02 L1854.12 1217.02 L1854.12 1213.17 L1858.34 1213.17 Q1861.79 1213.17 1863.61 1211.81 Q1865.44 1210.42 1865.44 1207.83 Q1865.44 1205.16 1863.54 1203.75 Q1861.67 1202.32 1858.15 1202.32 Q1856.23 1202.32 1854.03 1202.73 Q1851.83 1203.15 1849.19 1204.03 L1849.19 1199.86 Q1851.86 1199.12 1854.17 1198.75 Q1856.51 1198.38 1858.57 1198.38 Q1863.89 1198.38 1866.99 1200.81 Q1870.1 1203.22 1870.1 1207.34 Q1870.1 1210.21 1868.45 1212.2 Q1866.81 1214.17 1863.78 1214.93 Z" fill="#000000" fill-rule="nonzero" fill-opacity="1" /><path clip-path="url(#clip000)" d="M1893.94 1214.93 Q1897.29 1215.65 1899.17 1217.92 Q1901.07 1220.19 1901.07 1223.52 Q1901.07 1228.64 1897.55 1231.44 Q1894.03 1234.24 1887.55 1234.24 Q1885.37 1234.24 1883.06 1233.8 Q1880.77 1233.38 1878.31 1232.53 L1878.31 1228.01 Q1880.26 1229.15 1882.57 1229.72 Q1884.89 1230.3 1887.41 1230.3 Q1891.81 1230.3 1894.1 1228.57 Q1896.42 1226.83 1896.42 1223.52 Q1896.42 1220.46 1894.26 1218.75 Q1892.13 1217.02 1888.31 1217.02 L1884.29 1217.02 L1884.29 1213.17 L1888.5 1213.17 Q1891.95 1213.17 1893.78 1211.81 Q1895.6 1210.42 1895.6 1207.83 Q1895.6 1205.16 1893.71 1203.75 Q1891.83 1202.32 1888.31 1202.32 Q1886.39 1202.32 1884.19 1202.73 Q1881.99 1203.15 1879.35 1204.03 L1879.35 1199.86 Q1882.02 1199.12 1884.33 1198.75 Q1886.67 1198.38 1888.73 1198.38 Q1894.05 1198.38 1897.16 1200.81 Q1900.26 1203.22 1900.26 1207.34 Q1900.26 1210.21 1898.61 1212.2 Q1896.97 1214.17 1893.94 1214.93 Z" fill="#000000" fill-rule="nonzero" fill-opacity="1" /><path clip-path="url(#clip000)" d="M1910.07 1232.85 L1910.07 1228.59 Q1911.83 1229.42 1913.64 1229.86 Q1915.44 1230.3 1917.18 1230.3 Q1921.81 1230.3 1924.24 1227.2 Q1926.69 1224.08 1927.04 1217.73 Q1925.7 1219.72 1923.64 1220.79 Q1921.58 1221.85 1919.08 1221.85 Q1913.89 1221.85 1910.86 1218.73 Q1907.85 1215.58 1907.85 1210.14 Q1907.85 1204.82 1911 1201.6 Q1914.15 1198.38 1919.38 1198.38 Q1925.37 1198.38 1928.52 1202.99 Q1931.69 1207.57 1931.69 1216.32 Q1931.69 1224.49 1927.8 1229.38 Q1923.94 1234.24 1917.39 1234.24 Q1915.63 1234.24 1913.82 1233.89 Q1912.02 1233.54 1910.07 1232.85 M1919.38 1218.2 Q1922.53 1218.2 1924.35 1216.04 Q1926.21 1213.89 1926.21 1210.14 Q1926.21 1206.41 1924.35 1204.26 Q1922.53 1202.09 1919.38 1202.09 Q1916.23 1202.09 1914.38 1204.26 Q1912.55 1206.41 1912.55 1210.14 Q1912.55 1213.89 1914.38 1216.04 Q1916.23 1218.2 1919.38 1218.2 Z" fill="#000000" fill-rule="nonzero" fill-opacity="1" /><path clip-path="url(#clip000)" d="M1983.96 1214.93 Q1987.32 1215.65 1989.19 1217.92 Q1991.09 1220.19 1991.09 1223.52 Q1991.09 1228.64 1987.57 1231.44 Q1984.05 1234.24 1977.57 1234.24 Q1975.4 1234.24 1973.08 1233.8 Q1970.79 1233.38 1968.34 1232.53 L1968.34 1228.01 Q1970.28 1229.15 1972.6 1229.72 Q1974.91 1230.3 1977.43 1230.3 Q1981.83 1230.3 1984.12 1228.57 Q1986.44 1226.83 1986.44 1223.52 Q1986.44 1220.46 1984.29 1218.75 Q1982.16 1217.02 1978.34 1217.02 L1974.31 1217.02 L1974.31 1213.17 L1978.52 1213.17 Q1981.97 1213.17 1983.8 1211.81 Q1985.63 1210.42 1985.63 1207.83 Q1985.63 1205.16 1983.73 1203.75 Q1981.86 1202.32 1978.34 1202.32 Q1976.42 1202.32 1974.22 1202.73 Q1972.02 1203.15 1969.38 1204.03 L1969.38 1199.86 Q1972.04 1199.12 1974.36 1198.75 Q1976.69 1198.38 1978.75 1198.38 Q1984.08 1198.38 1987.18 1200.81 Q1990.28 1203.22 1990.28 1207.34 Q1990.28 1210.21 1988.64 1212.2 Q1986.99 1214.17 1983.96 1214.93 Z" fill="#000000" fill-rule="nonzero" fill-opacity="1" /><path clip-path="url(#clip000)" d="M2010.54 1214.42 Q2007.39 1214.42 2005.54 1216.58 Q2003.71 1218.73 2003.71 1222.48 Q2003.71 1226.21 2005.54 1228.38 Q2007.39 1230.53 2010.54 1230.53 Q2013.68 1230.53 2015.51 1228.38 Q2017.36 1226.21 2017.36 1222.48 Q2017.36 1218.73 2015.51 1216.58 Q2013.68 1214.42 2010.54 1214.42 M2019.82 1199.77 L2019.82 1204.03 Q2018.06 1203.2 2016.25 1202.76 Q2014.47 1202.32 2012.71 1202.32 Q2008.08 1202.32 2005.63 1205.44 Q2003.2 1208.57 2002.85 1214.89 Q2004.22 1212.87 2006.28 1211.81 Q2008.34 1210.72 2010.81 1210.72 Q2016.02 1210.72 2019.03 1213.89 Q2022.06 1217.04 2022.06 1222.48 Q2022.06 1227.8 2018.92 1231.02 Q2015.77 1234.24 2010.54 1234.24 Q2004.54 1234.24 2001.37 1229.65 Q1998.2 1225.05 1998.2 1216.32 Q1998.2 1208.13 2002.09 1203.27 Q2005.98 1198.38 2012.53 1198.38 Q2014.29 1198.38 2016.07 1198.73 Q2017.87 1199.08 2019.82 1199.77 Z" fill="#000000" fill-rule="nonzero" fill-opacity="1" /><path clip-path="url(#clip000)" d="M2030.17 1199.01 L2048.52 1199.01 L2048.52 1202.94 L2034.45 1202.94 L2034.45 1211.41 Q2035.47 1211.07 2036.49 1210.9 Q2037.5 1210.72 2038.52 1210.72 Q2044.31 1210.72 2047.69 1213.89 Q2051.07 1217.06 2051.07 1222.48 Q2051.07 1228.06 2047.6 1231.16 Q2044.12 1234.24 2037.8 1234.24 Q2035.63 1234.24 2033.36 1233.87 Q2031.11 1233.5 2028.71 1232.76 L2028.71 1228.06 Q2030.79 1229.19 2033.01 1229.75 Q2035.24 1230.3 2037.71 1230.3 Q2041.72 1230.3 2044.05 1228.2 Q2046.39 1226.09 2046.39 1222.48 Q2046.39 1218.87 2044.05 1216.76 Q2041.72 1214.65 2037.71 1214.65 Q2035.84 1214.65 2033.96 1215.07 Q2032.11 1215.49 2030.17 1216.37 L2030.17 1199.01 Z" fill="#000000" fill-rule="nonzero" fill-opacity="1" /><path clip-path="url(#clip000)" d="M1119.78 1271.78 L1119.78 1308.73 L1127.55 1308.73 Q1137.38 1308.73 1141.94 1304.28 Q1146.52 1299.82 1146.52 1290.21 Q1146.52 1280.66 1141.94 1276.23 Q1137.38 1271.78 1127.55 1271.78 L1119.78 1271.78 M1113.35 1266.49 L1126.56 1266.49 Q1140.38 1266.49 1146.84 1272.26 Q1153.3 1277.98 1153.3 1290.21 Q1153.3 1302.49 1146.8 1308.25 Q1140.31 1314.01 1126.56 1314.01 L1113.35 1314.01 L1113.35 1266.49 Z" fill="#000000" fill-rule="nonzero" fill-opacity="1" /><path clip-path="url(#clip000)" d="M1179.49 1296.1 Q1172.4 1296.1 1169.66 1297.72 Q1166.92 1299.34 1166.92 1303.26 Q1166.92 1306.38 1168.96 1308.22 Q1171.03 1310.04 1174.56 1310.04 Q1179.43 1310.04 1182.36 1306.6 Q1185.32 1303.13 1185.32 1297.4 L1185.32 1296.1 L1179.49 1296.1 M1191.17 1293.68 L1191.17 1314.01 L1185.32 1314.01 L1185.32 1308.6 Q1183.31 1311.85 1180.32 1313.41 Q1177.33 1314.94 1173 1314.94 Q1167.53 1314.94 1164.28 1311.88 Q1161.06 1308.79 1161.06 1303.64 Q1161.06 1297.62 1165.07 1294.57 Q1169.12 1291.51 1177.11 1291.51 L1185.32 1291.51 L1185.32 1290.94 Q1185.32 1286.9 1182.64 1284.7 Q1180 1282.47 1175.2 1282.47 Q1172.14 1282.47 1169.24 1283.2 Q1166.35 1283.94 1163.67 1285.4 L1163.67 1279.99 Q1166.89 1278.75 1169.91 1278.14 Q1172.94 1277.51 1175.8 1277.51 Q1183.54 1277.51 1187.35 1281.52 Q1191.17 1285.53 1191.17 1293.68 Z" fill="#000000" fill-rule="nonzero" fill-opacity="1" /><path clip-path="url(#clip000)" d="M1218.07 1317.32 Q1215.59 1323.69 1213.23 1325.63 Q1210.88 1327.57 1206.93 1327.57 L1202.25 1327.57 L1202.25 1322.67 L1205.69 1322.67 Q1208.11 1322.67 1209.44 1321.53 Q1210.78 1320.38 1212.4 1316.12 L1213.45 1313.44 L1199.04 1278.37 L1205.24 1278.37 L1216.38 1306.25 L1227.52 1278.37 L1233.73 1278.37 L1218.07 1317.32 Z" fill="#000000" fill-rule="nonzero" fill-opacity="1" /><polyline clip-path="url(#clip002)" style="stroke:#000000; stroke-linecap:round; stroke-linejoin:round; stroke-width:2; stroke-opacity:0.1; fill:none" points="282.326,1040.3 2064.76,1040.3 "/>
<polyline clip-path="url(#clip002)" style="stroke:#000000; stroke-linecap:round; stroke-linejoin:round; stroke-width:2; stroke-opacity:0.1; fill:none" points="282.326,852.933 2064.76,852.933 "/>
<polyline clip-path="url(#clip002)" style="stroke:#000000; stroke-linecap:round; stroke-linejoin:round; stroke-width:2; stroke-opacity:0.1; fill:none" points="282.326,665.567 2064.76,665.567 "/>
<polyline clip-path="url(#clip002)" style="stroke:#000000; stroke-linecap:round; stroke-linejoin:round; stroke-width:2; stroke-opacity:0.1; fill:none" points="282.326,478.201 2064.76,478.201 "/>
<polyline clip-path="url(#clip002)" style="stroke:#000000; stroke-linecap:round; stroke-linejoin:round; stroke-width:2; stroke-opacity:0.1; fill:none" points="282.326,290.834 2064.76,290.834 "/>
<polyline clip-path="url(#clip000)" style="stroke:#000000; stroke-linecap:round; stroke-linejoin:round; stroke-width:4; stroke-opacity:1; fill:none" points="282.326,1173.47 282.326,120.723 "/>
<polyline clip-path="url(#clip000)" style="stroke:#000000; stroke-linecap:round; stroke-linejoin:round; stroke-width:4; stroke-opacity:1; fill:none" points="282.326,1040.3 301.224,1040.3 "/>
<polyline clip-path="url(#clip000)" style="stroke:#000000; stroke-linecap:round; stroke-linejoin:round; stroke-width:4; stroke-opacity:1; fill:none" points="282.326,852.933 301.224,852.933 "/>
<polyline clip-path="url(#clip000)" style="stroke:#000000; stroke-linecap:round; stroke-linejoin:round; stroke-width:4; stroke-opacity:1; fill:none" points="282.326,665.567 301.224,665.567 "/>
<polyline clip-path="url(#clip000)" style="stroke:#000000; stroke-linecap:round; stroke-linejoin:round; stroke-width:4; stroke-opacity:1; fill:none" points="282.326,478.201 301.224,478.201 "/>
<polyline clip-path="url(#clip000)" style="stroke:#000000; stroke-linecap:round; stroke-linejoin:round; stroke-width:4; stroke-opacity:1; fill:none" points="282.326,290.834 301.224,290.834 "/>
<path clip-path="url(#clip000)" d="M114.536 1040.75 L144.211 1040.75 L144.211 1044.69 L114.536 1044.69 L114.536 1040.75 Z" fill="#000000" fill-rule="nonzero" fill-opacity="1" /><path clip-path="url(#clip000)" d="M164.304 1026.1 Q160.693 1026.1 158.864 1029.66 Q157.058 1033.2 157.058 1040.33 Q157.058 1047.44 158.864 1051.01 Q160.693 1054.55 164.304 1054.55 Q167.938 1054.55 169.744 1051.01 Q171.572 1047.44 171.572 1040.33 Q171.572 1033.2 169.744 1029.66 Q167.938 1026.1 164.304 1026.1 M164.304 1022.39 Q170.114 1022.39 173.169 1027 Q176.248 1031.58 176.248 1040.33 Q176.248 1049.06 173.169 1053.67 Q170.114 1058.25 164.304 1058.25 Q158.494 1058.25 155.415 1053.67 Q152.359 1049.06 152.359 1040.33 Q152.359 1031.58 155.415 1027 Q158.494 1022.39 164.304 1022.39 Z" fill="#000000" fill-rule="nonzero" fill-opacity="1" /><path clip-path="url(#clip000)" d="M184.466 1051.7 L189.35 1051.7 L189.35 1057.58 L184.466 1057.58 L184.466 1051.7 Z" fill="#000000" fill-rule="nonzero" fill-opacity="1" /><path clip-path="url(#clip000)" d="M203.563 1053.64 L219.882 1053.64 L219.882 1057.58 L197.938 1057.58 L197.938 1053.64 Q200.6 1050.89 205.183 1046.26 Q209.79 1041.61 210.97 1040.26 Q213.216 1037.74 214.095 1036.01 Q214.998 1034.25 214.998 1032.56 Q214.998 1029.8 213.054 1028.07 Q211.132 1026.33 208.03 1026.33 Q205.831 1026.33 203.378 1027.09 Q200.947 1027.86 198.169 1029.41 L198.169 1024.69 Q200.993 1023.55 203.447 1022.97 Q205.901 1022.39 207.938 1022.39 Q213.308 1022.39 216.503 1025.08 Q219.697 1027.76 219.697 1032.26 Q219.697 1034.38 218.887 1036.31 Q218.1 1038.2 215.993 1040.8 Q215.415 1041.47 212.313 1044.69 Q209.211 1047.88 203.563 1053.64 Z" fill="#000000" fill-rule="nonzero" fill-opacity="1" /><path clip-path="url(#clip000)" d="M229.743 1023.02 L248.1 1023.02 L248.1 1026.95 L234.026 1026.95 L234.026 1035.43 Q235.044 1035.08 236.063 1034.92 Q237.081 1034.73 238.1 1034.73 Q243.887 1034.73 247.266 1037.9 Q250.646 1041.07 250.646 1046.49 Q250.646 1052.07 247.174 1055.17 Q243.701 1058.25 237.382 1058.25 Q235.206 1058.25 232.938 1057.88 Q230.692 1057.51 228.285 1056.77 L228.285 1052.07 Q230.368 1053.2 232.59 1053.76 Q234.813 1054.32 237.289 1054.32 Q241.294 1054.32 243.632 1052.21 Q245.97 1050.1 245.97 1046.49 Q245.97 1042.88 243.632 1040.77 Q241.294 1038.67 237.289 1038.67 Q235.415 1038.67 233.54 1039.08 Q231.688 1039.5 229.743 1040.38 L229.743 1023.02 Z" fill="#000000" fill-rule="nonzero" fill-opacity="1" /><path clip-path="url(#clip000)" d="M113.54 853.384 L143.216 853.384 L143.216 857.32 L113.54 857.32 L113.54 853.384 Z" fill="#000000" fill-rule="nonzero" fill-opacity="1" /><path clip-path="url(#clip000)" d="M163.308 838.732 Q159.697 838.732 157.869 842.297 Q156.063 845.838 156.063 852.968 Q156.063 860.074 157.869 863.639 Q159.697 867.181 163.308 867.181 Q166.943 867.181 168.748 863.639 Q170.577 860.074 170.577 852.968 Q170.577 845.838 168.748 842.297 Q166.943 838.732 163.308 838.732 M163.308 835.028 Q169.119 835.028 172.174 839.634 Q175.253 844.218 175.253 852.968 Q175.253 861.695 172.174 866.301 Q169.119 870.884 163.308 870.884 Q157.498 870.884 154.42 866.301 Q151.364 861.695 151.364 852.968 Q151.364 844.218 154.42 839.634 Q157.498 835.028 163.308 835.028 Z" fill="#000000" fill-rule="nonzero" fill-opacity="1" /><path clip-path="url(#clip000)" d="M183.47 864.333 L188.355 864.333 L188.355 870.213 L183.47 870.213 L183.47 864.333 Z" fill="#000000" fill-rule="nonzero" fill-opacity="1" /><path clip-path="url(#clip000)" d="M202.567 866.278 L218.887 866.278 L218.887 870.213 L196.942 870.213 L196.942 866.278 Q199.605 863.523 204.188 858.894 Q208.794 854.241 209.975 852.898 Q212.22 850.375 213.1 848.639 Q214.003 846.88 214.003 845.19 Q214.003 842.435 212.058 840.699 Q210.137 838.963 207.035 838.963 Q204.836 838.963 202.382 839.727 Q199.952 840.491 197.174 842.042 L197.174 837.32 Q199.998 836.185 202.452 835.607 Q204.905 835.028 206.942 835.028 Q212.313 835.028 215.507 837.713 Q218.702 840.398 218.702 844.889 Q218.702 847.019 217.891 848.94 Q217.104 850.838 214.998 853.431 Q214.419 854.102 211.317 857.32 Q208.216 860.514 202.567 866.278 Z" fill="#000000" fill-rule="nonzero" fill-opacity="1" /><path clip-path="url(#clip000)" d="M238.702 838.732 Q235.09 838.732 233.262 842.297 Q231.456 845.838 231.456 852.968 Q231.456 860.074 233.262 863.639 Q235.09 867.181 238.702 867.181 Q242.336 867.181 244.141 863.639 Q245.97 860.074 245.97 852.968 Q245.97 845.838 244.141 842.297 Q242.336 838.732 238.702 838.732 M238.702 835.028 Q244.512 835.028 247.567 839.634 Q250.646 844.218 250.646 852.968 Q250.646 861.695 247.567 866.301 Q244.512 870.884 238.702 870.884 Q232.891 870.884 229.813 866.301 Q226.757 861.695 226.757 852.968 Q226.757 844.218 229.813 839.634 Q232.891 835.028 238.702 835.028 Z" fill="#000000" fill-rule="nonzero" fill-opacity="1" /><path clip-path="url(#clip000)" d="M114.536 666.018 L144.211 666.018 L144.211 669.953 L114.536 669.953 L114.536 666.018 Z" fill="#000000" fill-rule="nonzero" fill-opacity="1" /><path clip-path="url(#clip000)" d="M164.304 651.365 Q160.693 651.365 158.864 654.93 Q157.058 658.472 157.058 665.602 Q157.058 672.708 158.864 676.273 Q160.693 679.814 164.304 679.814 Q167.938 679.814 169.744 676.273 Q171.572 672.708 171.572 665.602 Q171.572 658.472 169.744 654.93 Q167.938 651.365 164.304 651.365 M164.304 647.662 Q170.114 647.662 173.169 652.268 Q176.248 656.852 176.248 665.602 Q176.248 674.328 173.169 678.935 Q170.114 683.518 164.304 683.518 Q158.494 683.518 155.415 678.935 Q152.359 674.328 152.359 665.602 Q152.359 656.852 155.415 652.268 Q158.494 647.662 164.304 647.662 Z" fill="#000000" fill-rule="nonzero" fill-opacity="1" /><path clip-path="url(#clip000)" d="M184.466 676.967 L189.35 676.967 L189.35 682.847 L184.466 682.847 L184.466 676.967 Z" fill="#000000" fill-rule="nonzero" fill-opacity="1" /><path clip-path="url(#clip000)" d="M200.345 678.912 L207.984 678.912 L207.984 652.546 L199.674 654.213 L199.674 649.953 L207.938 648.287 L212.614 648.287 L212.614 678.912 L220.253 678.912 L220.253 682.847 L200.345 682.847 L200.345 678.912 Z" fill="#000000" fill-rule="nonzero" fill-opacity="1" /><path clip-path="url(#clip000)" d="M229.743 648.287 L248.1 648.287 L248.1 652.222 L234.026 652.222 L234.026 660.694 Q235.044 660.347 236.063 660.185 Q237.081 660 238.1 660 Q243.887 660 247.266 663.171 Q250.646 666.342 250.646 671.759 Q250.646 677.338 247.174 680.439 Q243.701 683.518 237.382 683.518 Q235.206 683.518 232.938 683.148 Q230.692 682.777 228.285 682.037 L228.285 677.338 Q230.368 678.472 232.59 679.027 Q234.813 679.583 237.289 679.583 Q241.294 679.583 243.632 677.476 Q245.97 675.37 245.97 671.759 Q245.97 668.148 243.632 666.041 Q241.294 663.935 237.289 663.935 Q235.415 663.935 233.54 664.352 Q231.688 664.768 229.743 665.648 L229.743 648.287 Z" fill="#000000" fill-rule="nonzero" fill-opacity="1" /><path clip-path="url(#clip000)" d="M113.54 478.652 L143.216 478.652 L143.216 482.587 L113.54 482.587 L113.54 478.652 Z" fill="#000000" fill-rule="nonzero" fill-opacity="1" /><path clip-path="url(#clip000)" d="M163.308 463.999 Q159.697 463.999 157.869 467.564 Q156.063 471.106 156.063 478.235 Q156.063 485.342 157.869 488.906 Q159.697 492.448 163.308 492.448 Q166.943 492.448 168.748 488.906 Q170.577 485.342 170.577 478.235 Q170.577 471.106 168.748 467.564 Q166.943 463.999 163.308 463.999 M163.308 460.296 Q169.119 460.296 172.174 464.902 Q175.253 469.485 175.253 478.235 Q175.253 486.962 172.174 491.569 Q169.119 496.152 163.308 496.152 Q157.498 496.152 154.42 491.569 Q151.364 486.962 151.364 478.235 Q151.364 469.485 154.42 464.902 Q157.498 460.296 163.308 460.296 Z" fill="#000000" fill-rule="nonzero" fill-opacity="1" /><path clip-path="url(#clip000)" d="M183.47 489.601 L188.355 489.601 L188.355 495.481 L183.47 495.481 L183.47 489.601 Z" fill="#000000" fill-rule="nonzero" fill-opacity="1" /><path clip-path="url(#clip000)" d="M199.35 491.545 L206.989 491.545 L206.989 465.18 L198.679 466.846 L198.679 462.587 L206.942 460.921 L211.618 460.921 L211.618 491.545 L219.257 491.545 L219.257 495.481 L199.35 495.481 L199.35 491.545 Z" fill="#000000" fill-rule="nonzero" fill-opacity="1" /><path clip-path="url(#clip000)" d="M238.702 463.999 Q235.09 463.999 233.262 467.564 Q231.456 471.106 231.456 478.235 Q231.456 485.342 233.262 488.906 Q235.09 492.448 238.702 492.448 Q242.336 492.448 244.141 488.906 Q245.97 485.342 245.97 478.235 Q245.97 471.106 244.141 467.564 Q242.336 463.999 238.702 463.999 M238.702 460.296 Q244.512 460.296 247.567 464.902 Q250.646 469.485 250.646 478.235 Q250.646 486.962 247.567 491.569 Q244.512 496.152 238.702 496.152 Q232.891 496.152 229.813 491.569 Q226.757 486.962 226.757 478.235 Q226.757 469.485 229.813 464.902 Q232.891 460.296 238.702 460.296 Z" fill="#000000" fill-rule="nonzero" fill-opacity="1" /><path clip-path="url(#clip000)" d="M114.536 291.286 L144.211 291.286 L144.211 295.221 L114.536 295.221 L114.536 291.286 Z" fill="#000000" fill-rule="nonzero" fill-opacity="1" /><path clip-path="url(#clip000)" d="M164.304 276.633 Q160.693 276.633 158.864 280.198 Q157.058 283.739 157.058 290.869 Q157.058 297.975 158.864 301.54 Q160.693 305.082 164.304 305.082 Q167.938 305.082 169.744 301.54 Q171.572 297.975 171.572 290.869 Q171.572 283.739 169.744 280.198 Q167.938 276.633 164.304 276.633 M164.304 272.929 Q170.114 272.929 173.169 277.536 Q176.248 282.119 176.248 290.869 Q176.248 299.596 173.169 304.202 Q170.114 308.786 164.304 308.786 Q158.494 308.786 155.415 304.202 Q152.359 299.596 152.359 290.869 Q152.359 282.119 155.415 277.536 Q158.494 272.929 164.304 272.929 Z" fill="#000000" fill-rule="nonzero" fill-opacity="1" /><path clip-path="url(#clip000)" d="M184.466 302.235 L189.35 302.235 L189.35 308.114 L184.466 308.114 L184.466 302.235 Z" fill="#000000" fill-rule="nonzero" fill-opacity="1" /><path clip-path="url(#clip000)" d="M209.535 276.633 Q205.924 276.633 204.095 280.198 Q202.29 283.739 202.29 290.869 Q202.29 297.975 204.095 301.54 Q205.924 305.082 209.535 305.082 Q213.169 305.082 214.975 301.54 Q216.803 297.975 216.803 290.869 Q216.803 283.739 214.975 280.198 Q213.169 276.633 209.535 276.633 M209.535 272.929 Q215.345 272.929 218.401 277.536 Q221.479 282.119 221.479 290.869 Q221.479 299.596 218.401 304.202 Q215.345 308.786 209.535 308.786 Q203.725 308.786 200.646 304.202 Q197.591 299.596 197.591 290.869 Q197.591 282.119 200.646 277.536 Q203.725 272.929 209.535 272.929 Z" fill="#000000" fill-rule="nonzero" fill-opacity="1" /><path clip-path="url(#clip000)" d="M229.743 273.554 L248.1 273.554 L248.1 277.489 L234.026 277.489 L234.026 285.962 Q235.044 285.614 236.063 285.452 Q237.081 285.267 238.1 285.267 Q243.887 285.267 247.266 288.438 Q250.646 291.61 250.646 297.026 Q250.646 302.605 247.174 305.707 Q243.701 308.786 237.382 308.786 Q235.206 308.786 232.938 308.415 Q230.692 308.045 228.285 307.304 L228.285 302.605 Q230.368 303.739 232.59 304.295 Q234.813 304.85 237.289 304.85 Q241.294 304.85 243.632 302.744 Q245.97 300.637 245.97 297.026 Q245.97 293.415 243.632 291.309 Q241.294 289.202 237.289 289.202 Q235.415 289.202 233.54 289.619 Q231.688 290.036 229.743 290.915 L229.743 273.554 Z" fill="#000000" fill-rule="nonzero" fill-opacity="1" /><path clip-path="url(#clip000)" d="M26.418 1018.22 L50.0666 1026.94 L50.0666 1009.46 L26.418 1018.22 M20.0842 1021.85 L20.0842 1014.56 L67.6042 996.447 L67.6042 1003.13 L55.4138 1007.46 L55.4138 1028.88 L67.6042 1033.21 L67.6042 1039.99 L20.0842 1021.85 Z" fill="#000000" fill-rule="nonzero" fill-opacity="1" /><path clip-path="url(#clip000)" d="M31.9562 997.784 L31.9562 991.577 L61.875 980.437 L31.9562 969.297 L31.9562 963.091 L67.6042 976.459 L67.6042 984.416 L31.9562 997.784 Z" fill="#000000" fill-rule="nonzero" fill-opacity="1" /><path clip-path="url(#clip000)" d="M48.3161 924.514 L51.1806 924.514 L51.1806 951.441 Q57.2281 951.059 60.4109 947.813 Q63.5619 944.535 63.5619 938.71 Q63.5619 935.336 62.7344 932.185 Q61.9069 929.002 60.2518 925.883 L65.7899 925.883 Q67.1267 929.034 67.827 932.344 Q68.5272 935.654 68.5272 939.06 Q68.5272 947.59 63.5619 952.587 Q58.5967 957.552 50.1303 957.552 Q41.3774 957.552 36.2531 952.842 Q31.0968 948.099 31.0968 940.079 Q31.0968 932.885 35.7438 928.716 Q40.3589 924.514 48.3161 924.514 M46.5973 930.371 Q41.7912 930.434 38.9266 933.076 Q36.0621 935.686 36.0621 940.015 Q36.0621 944.916 38.8312 947.877 Q41.6002 950.805 46.6292 951.25 L46.5973 930.371 Z" fill="#000000" fill-rule="nonzero" fill-opacity="1" /><path clip-path="url(#clip000)" d="M37.4307 894.245 Q36.8578 895.232 36.6032 896.41 Q36.3167 897.556 36.3167 898.956 Q36.3167 903.921 39.5632 906.595 Q42.7779 909.237 48.8253 909.237 L67.6042 909.237 L67.6042 915.125 L31.9562 915.125 L31.9562 909.237 L37.4944 909.237 Q34.2479 907.391 32.6883 904.431 Q31.0968 901.471 31.0968 897.237 Q31.0968 896.633 31.1923 895.901 Q31.256 895.168 31.4151 894.277 L37.4307 894.245 Z" fill="#000000" fill-rule="nonzero" fill-opacity="1" /><path clip-path="url(#clip000)" d="M49.6847 871.902 Q49.6847 879 51.3079 881.737 Q52.9312 884.474 56.8461 884.474 Q59.9653 884.474 61.8114 882.437 Q63.6256 880.368 63.6256 876.835 Q63.6256 871.965 60.1881 869.037 Q56.7188 866.077 50.9897 866.077 L49.6847 866.077 L49.6847 871.902 M47.2657 860.221 L67.6042 860.221 L67.6042 866.077 L62.1933 866.077 Q65.4398 868.082 66.9994 871.074 Q68.5272 874.066 68.5272 878.395 Q68.5272 883.869 65.4716 887.116 Q62.3843 890.331 57.2281 890.331 Q51.2125 890.331 48.1569 886.32 Q45.1014 882.278 45.1014 874.289 L45.1014 866.077 L44.5285 866.077 Q40.4862 866.077 38.2901 868.751 Q36.0621 871.393 36.0621 876.199 Q36.0621 879.254 36.7941 882.151 Q37.5262 885.047 38.9903 887.721 L33.5795 887.721 Q32.3381 884.506 31.7334 881.482 Q31.0968 878.459 31.0968 875.594 Q31.0968 867.86 35.1072 864.04 Q39.1176 860.221 47.2657 860.221 Z" fill="#000000" fill-rule="nonzero" fill-opacity="1" /><path clip-path="url(#clip000)" d="M49.3664 824.7 Q43.0007 824.7 39.4996 827.342 Q35.9984 829.952 35.9984 834.694 Q35.9984 839.405 39.4996 842.047 Q43.0007 844.657 49.3664 844.657 Q55.7003 844.657 59.2014 842.047 Q62.7026 839.405 62.7026 834.694 Q62.7026 829.952 59.2014 827.342 Q55.7003 824.7 49.3664 824.7 M63.18 818.844 Q72.283 818.844 76.7071 822.886 Q81.1631 826.928 81.1631 835.267 Q81.1631 838.355 80.6857 841.092 Q80.2401 843.829 79.2852 846.407 L73.5879 846.407 Q74.9884 843.829 75.6568 841.315 Q76.3252 838.8 76.3252 836.19 Q76.3252 830.429 73.3015 827.565 Q70.3096 824.7 64.2303 824.7 L61.3339 824.7 Q64.485 826.514 66.0446 829.347 Q67.6042 832.18 67.6042 836.127 Q67.6042 842.683 62.6071 846.694 Q57.61 850.704 49.3664 850.704 Q41.091 850.704 36.0939 846.694 Q31.0968 842.683 31.0968 836.127 Q31.0968 832.18 32.6564 829.347 Q34.216 826.514 37.3671 824.7 L31.9562 824.7 L31.9562 818.844 L63.18 818.844 Z" fill="#000000" fill-rule="nonzero" fill-opacity="1" /><path clip-path="url(#clip000)" d="M48.3161 776.289 L51.1806 776.289 L51.1806 803.216 Q57.2281 802.834 60.4109 799.587 Q63.5619 796.309 63.5619 790.484 Q63.5619 787.111 62.7344 783.96 Q61.9069 780.777 60.2518 777.658 L65.7899 777.658 Q67.1267 780.809 67.827 784.119 Q68.5272 787.429 68.5272 790.835 Q68.5272 799.365 63.5619 804.362 Q58.5967 809.327 50.1303 809.327 Q41.3774 809.327 36.2531 804.616 Q31.0968 799.874 31.0968 791.853 Q31.0968 784.66 35.7438 780.49 Q40.3589 776.289 48.3161 776.289 M46.5973 782.145 Q41.7912 782.209 38.9266 784.851 Q36.0621 787.461 36.0621 791.789 Q36.0621 796.691 38.8312 799.651 Q41.6002 802.579 46.6292 803.025 L46.5973 782.145 Z" fill="#000000" fill-rule="nonzero" fill-opacity="1" /><path clip-path="url(#clip000)" d="M20.0842 749.935 L20.0842 743.442 L60.2518 733.448 L20.0842 723.485 L20.0842 716.26 L60.2518 706.266 L20.0842 696.304 L20.0842 689.779 L67.6042 701.715 L67.6042 709.799 L26.3544 719.825 L67.6042 729.947 L67.6042 738.031 L20.0842 749.935 Z" fill="#000000" fill-rule="nonzero" fill-opacity="1" /><path clip-path="url(#clip000)" d="M49.6847 669.472 Q49.6847 676.57 51.3079 679.307 Q52.9312 682.045 56.8461 682.045 Q59.9653 682.045 61.8114 680.008 Q63.6256 677.939 63.6256 674.406 Q63.6256 669.536 60.1881 666.608 Q56.7188 663.648 50.9897 663.648 L49.6847 663.648 L49.6847 669.472 M47.2657 657.791 L67.6042 657.791 L67.6042 663.648 L62.1933 663.648 Q65.4398 665.653 66.9994 668.645 Q68.5272 671.637 68.5272 675.965 Q68.5272 681.44 65.4716 684.686 Q62.3843 687.901 57.2281 687.901 Q51.2125 687.901 48.1569 683.891 Q45.1014 679.848 45.1014 671.859 L45.1014 663.648 L44.5285 663.648 Q40.4862 663.648 38.2901 666.321 Q36.0621 668.963 36.0621 673.769 Q36.0621 676.825 36.7941 679.721 Q37.5262 682.618 38.9903 685.291 L33.5795 685.291 Q32.3381 682.076 31.7334 679.053 Q31.0968 676.029 31.0968 673.164 Q31.0968 665.43 35.1072 661.611 Q39.1176 657.791 47.2657 657.791 Z" fill="#000000" fill-rule="nonzero" fill-opacity="1" /><path clip-path="url(#clip000)" d="M21.8347 639.935 L31.9562 639.935 L31.9562 627.872 L36.5077 627.872 L36.5077 639.935 L55.8594 639.935 Q60.2199 639.935 61.4613 638.758 Q62.7026 637.548 62.7026 633.888 L62.7026 627.872 L67.6042 627.872 L67.6042 633.888 Q67.6042 640.668 65.0897 643.246 Q62.5434 645.824 55.8594 645.824 L36.5077 645.824 L36.5077 650.121 L31.9562 650.121 L31.9562 645.824 L21.8347 645.824 L21.8347 639.935 Z" fill="#000000" fill-rule="nonzero" fill-opacity="1" /><path clip-path="url(#clip000)" d="M48.3161 589.678 L51.1806 589.678 L51.1806 616.605 Q57.2281 616.223 60.4109 612.977 Q63.5619 609.698 63.5619 603.874 Q63.5619 600.5 62.7344 597.349 Q61.9069 594.166 60.2518 591.047 L65.7899 591.047 Q67.1267 594.198 67.827 597.508 Q68.5272 600.818 68.5272 604.224 Q68.5272 612.754 63.5619 617.751 Q58.5967 622.716 50.1303 622.716 Q41.3774 622.716 36.2531 618.006 Q31.0968 613.263 31.0968 605.242 Q31.0968 598.049 35.7438 593.88 Q40.3589 589.678 48.3161 589.678 M46.5973 595.535 Q41.7912 595.598 38.9266 598.24 Q36.0621 600.85 36.0621 605.179 Q36.0621 610.08 38.8312 613.04 Q41.6002 615.969 46.6292 616.414 L46.5973 595.535 Z" fill="#000000" fill-rule="nonzero" fill-opacity="1" /><path clip-path="url(#clip000)" d="M37.4307 559.409 Q36.8578 560.396 36.6032 561.574 Q36.3167 562.719 36.3167 564.12 Q36.3167 569.085 39.5632 571.759 Q42.7779 574.401 48.8253 574.401 L67.6042 574.401 L67.6042 580.289 L31.9562 580.289 L31.9562 574.401 L37.4944 574.401 Q34.2479 572.554 32.6883 569.594 Q31.0968 566.634 31.0968 562.401 Q31.0968 561.796 31.1923 561.064 Q31.256 560.332 31.4151 559.441 L37.4307 559.409 Z" fill="#000000" fill-rule="nonzero" fill-opacity="1" /><path clip-path="url(#clip000)" d="M18.079 532.546 L18.079 526.69 L67.6042 526.69 L67.6042 532.546 L18.079 532.546 Z" fill="#000000" fill-rule="nonzero" fill-opacity="1" /><path clip-path="url(#clip000)" d="M48.3161 483.944 L51.1806 483.944 L51.1806 510.871 Q57.2281 510.489 60.4109 507.242 Q63.5619 503.964 63.5619 498.139 Q63.5619 494.766 62.7344 491.615 Q61.9069 488.432 60.2518 485.312 L65.7899 485.312 Q67.1267 488.463 67.827 491.774 Q68.5272 495.084 68.5272 498.489 Q68.5272 507.02 63.5619 512.017 Q58.5967 516.982 50.1303 516.982 Q41.3774 516.982 36.2531 512.271 Q31.0968 507.529 31.0968 499.508 Q31.0968 492.315 35.7438 488.145 Q40.3589 483.944 48.3161 483.944 M46.5973 489.8 Q41.7912 489.864 38.9266 492.506 Q36.0621 495.116 36.0621 499.444 Q36.0621 504.346 38.8312 507.306 Q41.6002 510.234 46.6292 510.68 L46.5973 489.8 Z" fill="#000000" fill-rule="nonzero" fill-opacity="1" /><path clip-path="url(#clip000)" d="M31.9562 478.533 L31.9562 472.326 L61.875 461.186 L31.9562 450.046 L31.9562 443.84 L67.6042 457.208 L67.6042 465.165 L31.9562 478.533 Z" fill="#000000" fill-rule="nonzero" fill-opacity="1" /><path clip-path="url(#clip000)" d="M48.3161 405.264 L51.1806 405.264 L51.1806 432.191 Q57.2281 431.809 60.4109 428.562 Q63.5619 425.284 63.5619 419.459 Q63.5619 416.085 62.7344 412.934 Q61.9069 409.752 60.2518 406.632 L65.7899 406.632 Q67.1267 409.783 67.827 413.094 Q68.5272 416.404 68.5272 419.809 Q68.5272 428.339 63.5619 433.336 Q58.5967 438.302 50.1303 438.302 Q41.3774 438.302 36.2531 433.591 Q31.0968 428.849 31.0968 420.828 Q31.0968 413.635 35.7438 409.465 Q40.3589 405.264 48.3161 405.264 M46.5973 411.12 Q41.7912 411.184 38.9266 413.826 Q36.0621 416.436 36.0621 420.764 Q36.0621 425.666 38.8312 428.626 Q41.6002 431.554 46.6292 432 L46.5973 411.12 Z" fill="#000000" fill-rule="nonzero" fill-opacity="1" /><path clip-path="url(#clip000)" d="M18.079 395.651 L18.079 389.795 L67.6042 389.795 L67.6042 395.651 L18.079 395.651 Z" fill="#000000" fill-rule="nonzero" fill-opacity="1" /><path clip-path="url(#clip000)" d="M18.1426 342.752 Q25.4632 347.017 32.6246 349.086 Q39.786 351.155 47.1384 351.155 Q54.4908 351.155 61.7159 349.086 Q68.9091 346.986 76.1979 342.752 L76.1979 347.845 Q68.7182 352.619 61.4931 355.006 Q54.268 357.362 47.1384 357.362 Q40.0406 357.362 32.8474 355.006 Q25.6542 352.651 18.1426 347.845 L18.1426 342.752 Z" fill="#000000" fill-rule="nonzero" fill-opacity="1" /><path clip-path="url(#clip000)" d="M38.7993 303.635 Q34.8526 301.439 32.9747 298.383 Q31.0968 295.328 31.0968 291.19 Q31.0968 285.62 35.0117 282.597 Q38.8948 279.573 46.0881 279.573 L67.6042 279.573 L67.6042 285.461 L46.279 285.461 Q41.1546 285.461 38.672 287.275 Q36.1894 289.09 36.1894 292.813 Q36.1894 297.365 39.2131 300.007 Q42.2368 302.649 47.4567 302.649 L67.6042 302.649 L67.6042 308.537 L46.279 308.537 Q41.1228 308.537 38.672 310.351 Q36.1894 312.165 36.1894 315.953 Q36.1894 320.441 39.2449 323.082 Q42.2686 325.724 47.4567 325.724 L67.6042 325.724 L67.6042 331.612 L31.9562 331.612 L31.9562 325.724 L37.4944 325.724 Q34.216 323.719 32.6564 320.918 Q31.0968 318.117 31.0968 314.266 Q31.0968 310.383 33.0702 307.677 Q35.0436 304.94 38.7993 303.635 Z" fill="#000000" fill-rule="nonzero" fill-opacity="1" /><path clip-path="url(#clip000)" d="M18.1426 268.815 L18.1426 263.722 Q25.6542 258.948 32.8474 256.593 Q40.0406 254.205 47.1384 254.205 Q54.268 254.205 61.4931 256.593 Q68.7182 258.948 76.1979 263.722 L76.1979 268.815 Q68.9091 264.582 61.7159 262.513 Q54.4908 260.412 47.1384 260.412 Q39.786 260.412 32.6246 262.513 Q25.4632 264.582 18.1426 268.815 Z" fill="#000000" fill-rule="nonzero" fill-opacity="1" /><path clip-path="url(#clip000)" d="M28.33 20.1573 L17.2305 50.2555 L39.47 50.2555 L28.33 20.1573 M23.712 12.096 L32.9886 12.096 L56.0382 72.576 L47.5313 72.576 L42.0221 57.061 L14.7595 57.061 L9.25027 72.576 L0.621843 72.576 L23.712 12.096 Z" fill="#000000" fill-rule="nonzero" fill-opacity="1" /><path clip-path="url(#clip000)" d="M54.3368 27.2059 L62.2361 27.2059 L76.4143 65.2844 L90.5924 27.2059 L98.4917 27.2059 L81.4779 72.576 L71.3506 72.576 L54.3368 27.2059 Z" fill="#000000" fill-rule="nonzero" fill-opacity="1" /><path clip-path="url(#clip000)" d="M147.589 48.0275 L147.589 51.6733 L113.318 51.6733 Q113.804 59.3701 117.936 63.421 Q122.108 67.4314 129.522 67.4314 Q133.816 67.4314 137.826 66.3781 Q141.877 65.3249 145.847 63.2184 L145.847 70.267 Q141.836 71.9684 137.623 72.8596 Q133.41 73.7508 129.076 73.7508 Q118.22 73.7508 111.86 67.4314 Q105.54 61.1119 105.54 50.3365 Q105.54 39.1965 111.536 32.6746 Q117.571 26.1121 127.78 26.1121 Q136.935 26.1121 142.241 32.0264 Q147.589 37.9003 147.589 48.0275 M140.135 45.84 Q140.054 39.7232 136.692 36.0774 Q133.37 32.4315 127.861 32.4315 Q121.622 32.4315 117.855 35.9558 Q114.128 39.4801 113.561 45.8805 L140.135 45.84 Z" fill="#000000" fill-rule="nonzero" fill-opacity="1" /><path clip-path="url(#clip000)" d="M186.113 34.1734 Q184.857 33.4443 183.358 33.1202 Q181.9 32.7556 180.117 32.7556 Q173.798 32.7556 170.395 36.8875 Q167.033 40.9789 167.033 48.6757 L167.033 72.576 L159.539 72.576 L159.539 27.2059 L167.033 27.2059 L167.033 34.2544 Q169.383 30.1225 173.15 28.1376 Q176.917 26.1121 182.305 26.1121 Q183.075 26.1121 184.006 26.2337 Q184.938 26.3147 186.072 26.5172 L186.113 34.1734 Z" fill="#000000" fill-rule="nonzero" fill-opacity="1" /><path clip-path="url(#clip000)" d="M214.55 49.7694 Q205.517 49.7694 202.033 51.8354 Q198.549 53.9013 198.549 58.8839 Q198.549 62.8538 201.142 65.2034 Q203.775 67.5124 208.271 67.5124 Q214.469 67.5124 218.196 63.1374 Q221.963 58.7219 221.963 51.4303 L221.963 49.7694 L214.55 49.7694 M229.417 46.6907 L229.417 72.576 L221.963 72.576 L221.963 65.6895 Q219.411 69.8214 215.603 71.8063 Q211.795 73.7508 206.286 73.7508 Q199.319 73.7508 195.187 69.8619 Q191.095 65.9325 191.095 59.3701 Q191.095 51.7138 196.199 47.825 Q201.344 43.9361 211.512 43.9361 L221.963 43.9361 L221.963 43.2069 Q221.963 38.0623 218.56 35.2672 Q215.198 32.4315 209.081 32.4315 Q205.193 32.4315 201.506 33.3632 Q197.82 34.295 194.417 36.1584 L194.417 29.2718 Q198.509 27.692 202.357 26.9223 Q206.205 26.1121 209.851 26.1121 Q219.695 26.1121 224.556 31.2163 Q229.417 36.3204 229.417 46.6907 Z" fill="#000000" fill-rule="nonzero" fill-opacity="1" /><path clip-path="url(#clip000)" d="M274.625 49.3643 Q274.625 41.2625 271.263 36.8065 Q267.941 32.3505 261.905 32.3505 Q255.91 32.3505 252.548 36.8065 Q249.226 41.2625 249.226 49.3643 Q249.226 57.4256 252.548 61.8816 Q255.91 66.3376 261.905 66.3376 Q267.941 66.3376 271.263 61.8816 Q274.625 57.4256 274.625 49.3643 M282.079 66.9452 Q282.079 78.5308 276.934 84.1616 Q271.789 89.8329 261.176 89.8329 Q257.247 89.8329 253.763 89.2252 Q250.279 88.6581 246.998 87.4428 L246.998 80.1917 Q250.279 81.9741 253.479 82.8248 Q256.679 83.6755 260.001 83.6755 Q267.333 83.6755 270.979 79.8271 Q274.625 76.0193 274.625 68.282 L274.625 64.5957 Q272.316 68.6061 268.711 70.5911 Q265.105 72.576 260.082 72.576 Q251.737 72.576 246.633 66.2161 Q241.529 59.8562 241.529 49.3643 Q241.529 38.832 246.633 32.472 Q251.737 26.1121 260.082 26.1121 Q265.105 26.1121 268.711 28.0971 Q272.316 30.082 274.625 34.0924 L274.625 27.2059 L282.079 27.2059 L282.079 66.9452 Z" fill="#000000" fill-rule="nonzero" fill-opacity="1" /><path clip-path="url(#clip000)" d="M336.239 48.0275 L336.239 51.6733 L301.969 51.6733 Q302.455 59.3701 306.587 63.421 Q310.759 67.4314 318.172 67.4314 Q322.466 67.4314 326.477 66.3781 Q330.527 65.3249 334.497 63.2184 L334.497 70.267 Q330.487 71.9684 326.274 72.8596 Q322.061 73.7508 317.727 73.7508 Q306.87 73.7508 300.51 67.4314 Q294.191 61.1119 294.191 50.3365 Q294.191 39.1965 300.186 32.6746 Q306.222 26.1121 316.43 26.1121 Q325.585 26.1121 330.892 32.0264 Q336.239 37.9003 336.239 48.0275 M328.786 45.84 Q328.705 39.7232 325.342 36.0774 Q322.021 32.4315 316.511 32.4315 Q310.273 32.4315 306.506 35.9558 Q302.779 39.4801 302.212 45.8805 L328.786 45.84 Z" fill="#000000" fill-rule="nonzero" fill-opacity="1" /><path clip-path="url(#clip000)" d="M369.781 12.096 L378.045 12.096 L390.764 63.2184 L403.444 12.096 L412.639 12.096 L425.359 63.2184 L438.038 12.096 L446.343 12.096 L431.152 72.576 L420.863 72.576 L408.102 20.0763 L395.22 72.576 L384.931 72.576 L369.781 12.096 Z" fill="#000000" fill-rule="nonzero" fill-opacity="1" /><path clip-path="url(#clip000)" d="M472.188 49.7694 Q463.154 49.7694 459.67 51.8354 Q456.187 53.9013 456.187 58.8839 Q456.187 62.8538 458.779 65.2034 Q461.412 67.5124 465.909 67.5124 Q472.107 67.5124 475.833 63.1374 Q479.601 58.7219 479.601 51.4303 L479.601 49.7694 L472.188 49.7694 M487.054 46.6907 L487.054 72.576 L479.601 72.576 L479.601 65.6895 Q477.049 69.8214 473.241 71.8063 Q469.433 73.7508 463.924 73.7508 Q456.956 73.7508 452.824 69.8619 Q448.733 65.9325 448.733 59.3701 Q448.733 51.7138 453.837 47.825 Q458.982 43.9361 469.149 43.9361 L479.601 43.9361 L479.601 43.2069 Q479.601 38.0623 476.198 35.2672 Q472.836 32.4315 466.719 32.4315 Q462.83 32.4315 459.144 33.3632 Q455.457 34.295 452.055 36.1584 L452.055 29.2718 Q456.146 27.692 459.994 26.9223 Q463.843 26.1121 467.489 26.1121 Q477.332 26.1121 482.193 31.2163 Q487.054 36.3204 487.054 46.6907 Z" fill="#000000" fill-rule="nonzero" fill-opacity="1" /><path clip-path="url(#clip000)" d="M509.78 14.324 L509.78 27.2059 L525.133 27.2059 L525.133 32.9987 L509.78 32.9987 L509.78 57.6282 Q509.78 63.1779 511.279 64.7578 Q512.818 66.3376 517.477 66.3376 L525.133 66.3376 L525.133 72.576 L517.477 72.576 Q508.848 72.576 505.567 69.3758 Q502.286 66.1351 502.286 57.6282 L502.286 32.9987 L496.817 32.9987 L496.817 27.2059 L502.286 27.2059 L502.286 14.324 L509.78 14.324 Z" fill="#000000" fill-rule="nonzero" fill-opacity="1" /><path clip-path="url(#clip000)" d="M573.744 48.0275 L573.744 51.6733 L539.473 51.6733 Q539.959 59.3701 544.091 63.421 Q548.264 67.4314 555.677 67.4314 Q559.971 67.4314 563.981 66.3781 Q568.032 65.3249 572.002 63.2184 L572.002 70.267 Q567.991 71.9684 563.779 72.8596 Q559.566 73.7508 555.231 73.7508 Q544.375 73.7508 538.015 67.4314 Q531.695 61.1119 531.695 50.3365 Q531.695 39.1965 537.691 32.6746 Q543.727 26.1121 553.935 26.1121 Q563.09 26.1121 568.397 32.0264 Q573.744 37.9003 573.744 48.0275 M566.29 45.84 Q566.209 39.7232 562.847 36.0774 Q559.525 32.4315 554.016 32.4315 Q547.777 32.4315 544.01 35.9558 Q540.283 39.4801 539.716 45.8805 L566.29 45.84 Z" fill="#000000" fill-rule="nonzero" fill-opacity="1" /><path clip-path="url(#clip000)" d="M612.268 34.1734 Q611.012 33.4443 609.513 33.1202 Q608.055 32.7556 606.273 32.7556 Q599.953 32.7556 596.55 36.8875 Q593.188 40.9789 593.188 48.6757 L593.188 72.576 L585.694 72.576 L585.694 27.2059 L593.188 27.2059 L593.188 34.2544 Q595.538 30.1225 599.305 28.1376 Q603.072 26.1121 608.46 26.1121 Q609.23 26.1121 610.161 26.2337 Q611.093 26.3147 612.227 26.5172 L612.268 34.1734 Z" fill="#000000" fill-rule="nonzero" fill-opacity="1" /><path clip-path="url(#clip000)" d="M646.458 9.54393 L653.911 9.54393 L653.911 72.576 L646.458 72.576 L646.458 9.54393 Z" fill="#000000" fill-rule="nonzero" fill-opacity="1" /><path clip-path="url(#clip000)" d="M708.315 48.0275 L708.315 51.6733 L674.044 51.6733 Q674.53 59.3701 678.662 63.421 Q682.835 67.4314 690.248 67.4314 Q694.542 67.4314 698.552 66.3781 Q702.603 65.3249 706.573 63.2184 L706.573 70.267 Q702.563 71.9684 698.35 72.8596 Q694.137 73.7508 689.802 73.7508 Q678.946 73.7508 672.586 67.4314 Q666.266 61.1119 666.266 50.3365 Q666.266 39.1965 672.262 32.6746 Q678.298 26.1121 688.506 26.1121 Q697.661 26.1121 702.968 32.0264 Q708.315 37.9003 708.315 48.0275 M700.861 45.84 Q700.78 39.7232 697.418 36.0774 Q694.096 32.4315 688.587 32.4315 Q682.349 32.4315 678.581 35.9558 Q674.854 39.4801 674.287 45.8805 L700.861 45.84 Z" fill="#000000" fill-rule="nonzero" fill-opacity="1" /><path clip-path="url(#clip000)" d="M715.201 27.2059 L723.101 27.2059 L737.279 65.2844 L751.457 27.2059 L759.356 27.2059 L742.342 72.576 L732.215 72.576 L715.201 27.2059 Z" fill="#000000" fill-rule="nonzero" fill-opacity="1" /><path clip-path="url(#clip000)" d="M808.453 48.0275 L808.453 51.6733 L774.183 51.6733 Q774.669 59.3701 778.801 63.421 Q782.973 67.4314 790.386 67.4314 Q794.68 67.4314 798.69 66.3781 Q802.741 65.3249 806.711 63.2184 L806.711 70.267 Q802.701 71.9684 798.488 72.8596 Q794.275 73.7508 789.941 73.7508 Q779.084 73.7508 772.724 67.4314 Q766.405 61.1119 766.405 50.3365 Q766.405 39.1965 772.4 32.6746 Q778.436 26.1121 788.644 26.1121 Q797.799 26.1121 803.106 32.0264 Q808.453 37.9003 808.453 48.0275 M800.999 45.84 Q800.918 39.7232 797.556 36.0774 Q794.234 32.4315 788.725 32.4315 Q782.487 32.4315 778.72 35.9558 Q774.993 39.4801 774.426 45.8805 L800.999 45.84 Z" fill="#000000" fill-rule="nonzero" fill-opacity="1" /><path clip-path="url(#clip000)" d="M820.687 9.54393 L828.141 9.54393 L828.141 72.576 L820.687 72.576 L820.687 9.54393 Z" fill="#000000" fill-rule="nonzero" fill-opacity="1" /><path clip-path="url(#clip000)" d="M872.66 28.5427 L872.66 35.5912 Q869.5 33.9709 866.098 33.1607 Q862.695 32.3505 859.049 32.3505 Q853.499 32.3505 850.704 34.0519 Q847.949 35.7533 847.949 39.156 Q847.949 41.7486 849.934 43.2475 Q851.919 44.7058 857.915 46.0426 L860.467 46.6097 Q868.407 48.3111 871.728 51.4303 Q875.091 54.509 875.091 60.0587 Q875.091 66.3781 870.067 70.0644 Q865.085 73.7508 856.335 73.7508 Q852.689 73.7508 848.719 73.0216 Q844.79 72.3329 840.415 70.9151 L840.415 63.2184 Q844.547 65.3654 848.557 66.4591 Q852.568 67.5124 856.497 67.5124 Q861.763 67.5124 864.599 65.73 Q867.434 63.9071 867.434 60.6258 Q867.434 57.5877 865.368 55.9673 Q863.343 54.3469 856.416 52.8481 L853.823 52.2405 Q846.896 50.7821 843.818 47.7845 Q840.739 44.7463 840.739 39.4801 Q840.739 33.0797 845.276 29.5959 Q849.813 26.1121 858.158 26.1121 Q862.29 26.1121 865.935 26.7198 Q869.581 27.3274 872.66 28.5427 Z" fill="#000000" fill-rule="nonzero" fill-opacity="1" /><path clip-path="url(#clip000)" d="M945.9 49.9314 Q945.9 41.7081 942.498 37.0496 Q939.135 32.3505 933.221 32.3505 Q927.307 32.3505 923.904 37.0496 Q920.542 41.7081 920.542 49.9314 Q920.542 58.1548 923.904 62.8538 Q927.307 67.5124 933.221 67.5124 Q939.135 67.5124 942.498 62.8538 Q945.9 58.1548 945.9 49.9314 M920.542 34.0924 Q922.891 30.0415 926.456 28.0971 Q930.061 26.1121 935.044 26.1121 Q943.308 26.1121 948.452 32.6746 Q953.638 39.2371 953.638 49.9314 Q953.638 60.6258 948.452 67.1883 Q943.308 73.7508 935.044 73.7508 Q930.061 73.7508 926.456 71.8063 Q922.891 69.8214 920.542 65.7705 L920.542 72.576 L913.048 72.576 L913.048 9.54393 L920.542 9.54393 L920.542 34.0924 Z" fill="#000000" fill-rule="nonzero" fill-opacity="1" /><path clip-path="url(#clip000)" d="M984.87 76.7889 Q981.71 84.8907 978.713 87.3618 Q975.715 89.8329 970.692 89.8329 L964.737 89.8329 L964.737 83.5945 L969.112 83.5945 Q972.191 83.5945 973.892 82.1361 Q975.593 80.6778 977.659 75.2496 L978.996 71.8468 L960.646 27.2059 L968.545 27.2059 L982.723 62.6918 L996.901 27.2059 L1004.8 27.2059 L984.87 76.7889 Z" fill="#000000" fill-rule="nonzero" fill-opacity="1" /><path clip-path="url(#clip000)" d="M1049.97 18.8205 L1049.97 65.8515 L1059.85 65.8515 Q1072.37 65.8515 1078.16 60.1802 Q1084 54.509 1084 42.2752 Q1084 30.1225 1078.16 24.4918 Q1072.37 18.8205 1059.85 18.8205 L1049.97 18.8205 M1041.79 12.096 L1058.6 12.096 Q1076.18 12.096 1084.4 19.4281 Q1092.62 26.7198 1092.62 42.2752 Q1092.62 57.9117 1084.36 65.2439 Q1076.1 72.576 1058.6 72.576 L1041.79 72.576 L1041.79 12.096 Z" fill="#000000" fill-rule="nonzero" fill-opacity="1" /><path clip-path="url(#clip000)" d="M1125.96 49.7694 Q1116.93 49.7694 1113.45 51.8354 Q1109.96 53.9013 1109.96 58.8839 Q1109.96 62.8538 1112.55 65.2034 Q1115.19 67.5124 1119.68 67.5124 Q1125.88 67.5124 1129.61 63.1374 Q1133.38 58.7219 1133.38 51.4303 L1133.38 49.7694 L1125.96 49.7694 M1140.83 46.6907 L1140.83 72.576 L1133.38 72.576 L1133.38 65.6895 Q1130.82 69.8214 1127.02 71.8063 Q1123.21 73.7508 1117.7 73.7508 Q1110.73 73.7508 1106.6 69.8619 Q1102.51 65.9325 1102.51 59.3701 Q1102.51 51.7138 1107.61 47.825 Q1112.76 43.9361 1122.92 43.9361 L1133.38 43.9361 L1133.38 43.2069 Q1133.38 38.0623 1129.97 35.2672 Q1126.61 32.4315 1120.49 32.4315 Q1116.61 32.4315 1112.92 33.3632 Q1109.23 34.295 1105.83 36.1584 L1105.83 29.2718 Q1109.92 27.692 1113.77 26.9223 Q1117.62 26.1121 1121.26 26.1121 Q1131.11 26.1121 1135.97 31.2163 Q1140.83 36.3204 1140.83 46.6907 Z" fill="#000000" fill-rule="nonzero" fill-opacity="1" /><path clip-path="url(#clip000)" d="M1175.06 76.7889 Q1171.9 84.8907 1168.9 87.3618 Q1165.9 89.8329 1160.88 89.8329 L1154.93 89.8329 L1154.93 83.5945 L1159.3 83.5945 Q1162.38 83.5945 1164.08 82.1361 Q1165.78 80.6778 1167.85 75.2496 L1169.19 71.8468 L1150.84 27.2059 L1158.73 27.2059 L1172.91 62.6918 L1187.09 27.2059 L1194.99 27.2059 L1175.06 76.7889 Z" fill="#000000" fill-rule="nonzero" fill-opacity="1" /><path clip-path="url(#clip000)" d="M1249.23 32.4315 Q1243.24 32.4315 1239.75 37.1306 Q1236.27 41.7891 1236.27 49.9314 Q1236.27 58.0738 1239.71 62.7728 Q1243.2 67.4314 1249.23 67.4314 Q1255.19 67.4314 1258.67 62.7323 Q1262.15 58.0333 1262.15 49.9314 Q1262.15 41.8701 1258.67 37.1711 Q1255.19 32.4315 1249.23 32.4315 M1249.23 26.1121 Q1258.95 26.1121 1264.5 32.4315 Q1270.05 38.7509 1270.05 49.9314 Q1270.05 61.0714 1264.5 67.4314 Q1258.95 73.7508 1249.23 73.7508 Q1239.47 73.7508 1233.92 67.4314 Q1228.41 61.0714 1228.41 49.9314 Q1228.41 38.7509 1233.92 32.4315 Q1239.47 26.1121 1249.23 26.1121 Z" fill="#000000" fill-rule="nonzero" fill-opacity="1" /><path clip-path="url(#clip000)" d="M1305.38 9.54393 L1305.38 15.7418 L1298.25 15.7418 Q1294.24 15.7418 1292.66 17.3622 Q1291.12 18.9825 1291.12 23.1955 L1291.12 27.2059 L1303.39 27.2059 L1303.39 32.9987 L1291.12 32.9987 L1291.12 72.576 L1283.62 72.576 L1283.62 32.9987 L1276.49 32.9987 L1276.49 27.2059 L1283.62 27.2059 L1283.62 24.0462 Q1283.62 16.471 1287.15 13.0277 Q1290.67 9.54393 1298.33 9.54393 L1305.38 9.54393 Z" fill="#000000" fill-rule="nonzero" fill-opacity="1" /><path clip-path="url(#clip000)" d="M1330.01 12.096 L1338.8 12.096 L1355.57 36.9686 L1372.22 12.096 L1381.01 12.096 L1359.62 43.7741 L1359.62 72.576 L1351.4 72.576 L1351.4 43.7741 L1330.01 12.096 Z" fill="#000000" fill-rule="nonzero" fill-opacity="1" /><path clip-path="url(#clip000)" d="M1416.45 48.0275 L1416.45 51.6733 L1382.18 51.6733 Q1382.67 59.3701 1386.8 63.421 Q1390.97 67.4314 1398.39 67.4314 Q1402.68 67.4314 1406.69 66.3781 Q1410.74 65.3249 1414.71 63.2184 L1414.71 70.267 Q1410.7 71.9684 1406.49 72.8596 Q1402.28 73.7508 1397.94 73.7508 Q1387.08 73.7508 1380.72 67.4314 Q1374.4 61.1119 1374.4 50.3365 Q1374.4 39.1965 1380.4 32.6746 Q1386.44 26.1121 1396.64 26.1121 Q1405.8 26.1121 1411.11 32.0264 Q1416.45 37.9003 1416.45 48.0275 M1409 45.84 Q1408.92 39.7232 1405.56 36.0774 Q1402.23 32.4315 1396.73 32.4315 Q1390.49 32.4315 1386.72 35.9558 Q1382.99 39.4801 1382.43 45.8805 L1409 45.84 Z" fill="#000000" fill-rule="nonzero" fill-opacity="1" /><path clip-path="url(#clip000)" d="M1449.31 49.7694 Q1440.27 49.7694 1436.79 51.8354 Q1433.31 53.9013 1433.31 58.8839 Q1433.31 62.8538 1435.9 65.2034 Q1438.53 67.5124 1443.03 67.5124 Q1449.23 67.5124 1452.95 63.1374 Q1456.72 58.7219 1456.72 51.4303 L1456.72 49.7694 L1449.31 49.7694 M1464.17 46.6907 L1464.17 72.576 L1456.72 72.576 L1456.72 65.6895 Q1454.17 69.8214 1450.36 71.8063 Q1446.55 73.7508 1441.04 73.7508 Q1434.07 73.7508 1429.94 69.8619 Q1425.85 65.9325 1425.85 59.3701 Q1425.85 51.7138 1430.96 47.825 Q1436.1 43.9361 1446.27 43.9361 L1456.72 43.9361 L1456.72 43.2069 Q1456.72 38.0623 1453.32 35.2672 Q1449.95 32.4315 1443.84 32.4315 Q1439.95 32.4315 1436.26 33.3632 Q1432.58 34.295 1429.17 36.1584 L1429.17 29.2718 Q1433.26 27.692 1437.11 26.9223 Q1440.96 26.1121 1444.61 26.1121 Q1454.45 26.1121 1459.31 31.2163 Q1464.17 36.3204 1464.17 46.6907 Z" fill="#000000" fill-rule="nonzero" fill-opacity="1" /><path clip-path="url(#clip000)" d="M1505.82 34.1734 Q1504.56 33.4443 1503.06 33.1202 Q1501.6 32.7556 1499.82 32.7556 Q1493.5 32.7556 1490.1 36.8875 Q1486.74 40.9789 1486.74 48.6757 L1486.74 72.576 L1479.24 72.576 L1479.24 27.2059 L1486.74 27.2059 L1486.74 34.2544 Q1489.09 30.1225 1492.85 28.1376 Q1496.62 26.1121 1502.01 26.1121 Q1502.78 26.1121 1503.71 26.2337 Q1504.64 26.3147 1505.78 26.5172 L1505.82 34.1734 Z" fill="#000000" fill-rule="nonzero" fill-opacity="1" /><path clip-path="url(#clip000)" d="M1560.63 49.7694 Q1551.59 49.7694 1548.11 51.8354 Q1544.62 53.9013 1544.62 58.8839 Q1544.62 62.8538 1547.22 65.2034 Q1549.85 67.5124 1554.35 67.5124 Q1560.54 67.5124 1564.27 63.1374 Q1568.04 58.7219 1568.04 51.4303 L1568.04 49.7694 L1560.63 49.7694 M1575.49 46.6907 L1575.49 72.576 L1568.04 72.576 L1568.04 65.6895 Q1565.49 69.8214 1561.68 71.8063 Q1557.87 73.7508 1552.36 73.7508 Q1545.39 73.7508 1541.26 69.8619 Q1537.17 65.9325 1537.17 59.3701 Q1537.17 51.7138 1542.27 47.825 Q1547.42 43.9361 1557.59 43.9361 L1568.04 43.9361 L1568.04 43.2069 Q1568.04 38.0623 1564.64 35.2672 Q1561.27 32.4315 1555.16 32.4315 Q1551.27 32.4315 1547.58 33.3632 Q1543.89 34.295 1540.49 36.1584 L1540.49 29.2718 Q1544.58 27.692 1548.43 26.9223 Q1552.28 26.1121 1555.93 26.1121 Q1565.77 26.1121 1570.63 31.2163 Q1575.49 36.3204 1575.49 46.6907 Z" fill="#000000" fill-rule="nonzero" fill-opacity="1" /><path clip-path="url(#clip000)" d="M1598.22 14.324 L1598.22 27.2059 L1613.57 27.2059 L1613.57 32.9987 L1598.22 32.9987 L1598.22 57.6282 Q1598.22 63.1779 1599.72 64.7578 Q1601.26 66.3376 1605.91 66.3376 L1613.57 66.3376 L1613.57 72.576 L1605.91 72.576 Q1597.29 72.576 1594 69.3758 Q1590.72 66.1351 1590.72 57.6282 L1590.72 32.9987 L1585.25 32.9987 L1585.25 27.2059 L1590.72 27.2059 L1590.72 14.324 L1598.22 14.324 Z" fill="#000000" fill-rule="nonzero" fill-opacity="1" /><path clip-path="url(#clip000)" d="M1686.32 14.0809 L1686.32 22.0612 Q1681.67 19.8332 1677.53 18.7395 Q1673.4 17.6457 1669.55 17.6457 Q1662.87 17.6457 1659.22 20.2383 Q1655.62 22.8309 1655.62 27.611 Q1655.62 31.6214 1658.01 33.6873 Q1660.44 35.7128 1667.16 36.9686 L1672.11 37.9813 Q1681.26 39.7232 1685.6 44.1387 Q1689.97 48.5136 1689.97 55.8863 Q1689.97 64.6767 1684.06 69.2137 Q1678.18 73.7508 1666.8 73.7508 Q1662.51 73.7508 1657.64 72.7785 Q1652.82 71.8063 1647.64 69.9024 L1647.64 61.4765 Q1652.62 64.2716 1657.4 65.6895 Q1662.18 67.1073 1666.8 67.1073 Q1673.81 67.1073 1677.62 64.3527 Q1681.42 61.598 1681.42 56.4939 Q1681.42 52.0379 1678.67 49.5264 Q1675.95 47.0148 1669.72 45.759 L1664.73 44.7868 Q1655.58 42.9639 1651.49 39.075 Q1647.4 35.1862 1647.4 28.2591 Q1647.4 20.2383 1653.03 15.6203 Q1658.7 11.0023 1668.62 11.0023 Q1672.88 11.0023 1677.29 11.7719 Q1681.71 12.5416 1686.32 14.0809 Z" fill="#000000" fill-rule="nonzero" fill-opacity="1" /><path clip-path="url(#clip000)" d="M1741.21 48.0275 L1741.21 51.6733 L1706.94 51.6733 Q1707.43 59.3701 1711.56 63.421 Q1715.73 67.4314 1723.15 67.4314 Q1727.44 67.4314 1731.45 66.3781 Q1735.5 65.3249 1739.47 63.2184 L1739.47 70.267 Q1735.46 71.9684 1731.25 72.8596 Q1727.04 73.7508 1722.7 73.7508 Q1711.85 73.7508 1705.49 67.4314 Q1699.17 61.1119 1699.17 50.3365 Q1699.17 39.1965 1705.16 32.6746 Q1711.2 26.1121 1721.41 26.1121 Q1730.56 26.1121 1735.87 32.0264 Q1741.21 37.9003 1741.21 48.0275 M1733.76 45.84 Q1733.68 39.7232 1730.32 36.0774 Q1727 32.4315 1721.49 32.4315 Q1715.25 32.4315 1711.48 35.9558 Q1707.75 39.4801 1707.19 45.8805 L1733.76 45.84 Z" fill="#000000" fill-rule="nonzero" fill-opacity="1" /><path clip-path="url(#clip000)" d="M1749.11 27.2059 L1756.57 27.2059 L1765.88 62.6108 L1775.16 27.2059 L1783.95 27.2059 L1793.27 62.6108 L1802.55 27.2059 L1810 27.2059 L1798.13 72.576 L1789.34 72.576 L1779.58 35.3887 L1769.77 72.576 L1760.98 72.576 L1749.11 27.2059 Z" fill="#000000" fill-rule="nonzero" fill-opacity="1" /><path clip-path="url(#clip000)" d="M1860.11 48.0275 L1860.11 51.6733 L1825.84 51.6733 Q1826.32 59.3701 1830.46 63.421 Q1834.63 67.4314 1842.04 67.4314 Q1846.34 67.4314 1850.35 66.3781 Q1854.4 65.3249 1858.37 63.2184 L1858.37 70.267 Q1854.36 71.9684 1850.14 72.8596 Q1845.93 73.7508 1841.6 73.7508 Q1830.74 73.7508 1824.38 67.4314 Q1818.06 61.1119 1818.06 50.3365 Q1818.06 39.1965 1824.06 32.6746 Q1830.09 26.1121 1840.3 26.1121 Q1849.45 26.1121 1854.76 32.0264 Q1860.11 37.9003 1860.11 48.0275 M1852.65 45.84 Q1852.57 39.7232 1849.21 36.0774 Q1845.89 32.4315 1840.38 32.4315 Q1834.14 32.4315 1830.37 35.9558 Q1826.65 39.4801 1826.08 45.8805 L1852.65 45.84 Z" fill="#000000" fill-rule="nonzero" fill-opacity="1" /><path clip-path="url(#clip000)" d="M1872.34 9.54393 L1879.8 9.54393 L1879.8 72.576 L1872.34 72.576 L1872.34 9.54393 Z" fill="#000000" fill-rule="nonzero" fill-opacity="1" /><path clip-path="url(#clip000)" d="M1895.39 9.54393 L1902.85 9.54393 L1902.85 72.576 L1895.39 72.576 L1895.39 9.54393 Z" fill="#000000" fill-rule="nonzero" fill-opacity="1" /><path clip-path="url(#clip000)" d="M1947.36 28.5427 L1947.36 35.5912 Q1944.21 33.9709 1940.8 33.1607 Q1937.4 32.3505 1933.75 32.3505 Q1928.2 32.3505 1925.41 34.0519 Q1922.65 35.7533 1922.65 39.156 Q1922.65 41.7486 1924.64 43.2475 Q1926.62 44.7058 1932.62 46.0426 L1935.17 46.6097 Q1943.11 48.3111 1946.43 51.4303 Q1949.8 54.509 1949.8 60.0587 Q1949.8 66.3781 1944.77 70.0644 Q1939.79 73.7508 1931.04 73.7508 Q1927.39 73.7508 1923.42 73.0216 Q1919.49 72.3329 1915.12 70.9151 L1915.12 63.2184 Q1919.25 65.3654 1923.26 66.4591 Q1927.27 67.5124 1931.2 67.5124 Q1936.47 67.5124 1939.3 65.73 Q1942.14 63.9071 1942.14 60.6258 Q1942.14 57.5877 1940.07 55.9673 Q1938.05 54.3469 1931.12 52.8481 L1928.53 52.2405 Q1921.6 50.7821 1918.52 47.7845 Q1915.44 44.7463 1915.44 39.4801 Q1915.44 33.0797 1919.98 29.5959 Q1924.52 26.1121 1932.86 26.1121 Q1936.99 26.1121 1940.64 26.7198 Q1944.29 27.3274 1947.36 28.5427 Z" fill="#000000" fill-rule="nonzero" fill-opacity="1" /><path clip-path="url(#clip000)" d="M1996.54 18.8205 L1996.54 41.5461 L2006.83 41.5461 Q2012.54 41.5461 2015.66 38.5889 Q2018.78 35.6318 2018.78 30.163 Q2018.78 24.7348 2015.66 21.7777 Q2012.54 18.8205 2006.83 18.8205 L1996.54 18.8205 M1988.36 12.096 L2006.83 12.096 Q2017 12.096 2022.19 16.714 Q2027.41 21.2916 2027.41 30.163 Q2027.41 39.1155 2022.19 43.6931 Q2017 48.2706 2006.83 48.2706 L1996.54 48.2706 L1996.54 72.576 L1988.36 72.576 L1988.36 12.096 Z" fill="#000000" fill-rule="nonzero" fill-opacity="1" /><path clip-path="url(#clip000)" d="M2052.69 32.4315 Q2046.69 32.4315 2043.21 37.1306 Q2039.73 41.7891 2039.73 49.9314 Q2039.73 58.0738 2043.17 62.7728 Q2046.65 67.4314 2052.69 67.4314 Q2058.64 67.4314 2062.13 62.7323 Q2065.61 58.0333 2065.61 49.9314 Q2065.61 41.8701 2062.13 37.1711 Q2058.64 32.4315 2052.69 32.4315 M2052.69 26.1121 Q2062.41 26.1121 2067.96 32.4315 Q2073.51 38.7509 2073.51 49.9314 Q2073.51 61.0714 2067.96 67.4314 Q2062.41 73.7508 2052.69 73.7508 Q2042.93 73.7508 2037.38 67.4314 Q2031.87 61.0714 2031.87 49.9314 Q2031.87 38.7509 2037.38 32.4315 Q2042.93 26.1121 2052.69 26.1121 Z" fill="#000000" fill-rule="nonzero" fill-opacity="1" /><path clip-path="url(#clip000)" d="M2085.87 27.2059 L2093.32 27.2059 L2093.32 72.576 L2085.87 72.576 L2085.87 27.2059 M2085.87 9.54393 L2093.32 9.54393 L2093.32 18.9825 L2085.87 18.9825 L2085.87 9.54393 Z" fill="#000000" fill-rule="nonzero" fill-opacity="1" /><path clip-path="url(#clip000)" d="M2146.63 45.1919 L2146.63 72.576 L2139.18 72.576 L2139.18 45.4349 Q2139.18 38.994 2136.66 35.7938 Q2134.15 32.5936 2129.13 32.5936 Q2123.09 32.5936 2119.61 36.4419 Q2116.13 40.2903 2116.13 46.9338 L2116.13 72.576 L2108.63 72.576 L2108.63 27.2059 L2116.13 27.2059 L2116.13 34.2544 Q2118.8 30.163 2122.4 28.1376 Q2126.05 26.1121 2130.79 26.1121 Q2138.61 26.1121 2142.62 30.9732 Q2146.63 35.7938 2146.63 45.1919 Z" fill="#000000" fill-rule="nonzero" fill-opacity="1" /><path clip-path="url(#clip000)" d="M2168.87 14.324 L2168.87 27.2059 L2184.22 27.2059 L2184.22 32.9987 L2168.87 32.9987 L2168.87 57.6282 Q2168.87 63.1779 2170.37 64.7578 Q2171.91 66.3376 2176.57 66.3376 L2184.22 66.3376 L2184.22 72.576 L2176.57 72.576 Q2167.94 72.576 2164.66 69.3758 Q2161.37 66.1351 2161.37 57.6282 L2161.37 32.9987 L2155.91 32.9987 L2155.91 27.2059 L2161.37 27.2059 L2161.37 14.324 L2168.87 14.324 Z" fill="#000000" fill-rule="nonzero" fill-opacity="1" /><path clip-path="url(#clip000)" d="M2195.93 62.2867 L2204.48 62.2867 L2204.48 69.2543 L2197.83 82.2172 L2192.61 82.2172 L2195.93 69.2543 L2195.93 62.2867 Z" fill="#000000" fill-rule="nonzero" fill-opacity="1" /><path clip-path="url(#clip000)" d="M2262.69 72.576 L2239.6 12.096 L2248.14 12.096 L2267.31 63.0159 L2286.51 12.096 L2295.01 12.096 L2271.96 72.576 L2262.69 72.576 Z" fill="#000000" fill-rule="nonzero" fill-opacity="1" /><path clip-path="url(#clip000)" d="M2318.75 20.1573 L2307.65 50.2555 L2329.89 50.2555 L2318.75 20.1573 M2314.13 12.096 L2323.41 12.096 L2346.46 72.576 L2337.95 72.576 L2332.44 57.061 L2305.18 57.061 L2299.67 72.576 L2291.04 72.576 L2314.13 12.096 Z" fill="#000000" fill-rule="nonzero" fill-opacity="1" /><polyline clip-path="url(#clip002)" style="stroke:#009af9; stroke-linecap:round; stroke-linejoin:round; stroke-width:12; stroke-opacity:1; fill:none" points="332.772,932.857 337.379,973.338 341.986,990.291 346.593,875.612 351.2,918.637 355.807,1050.69 360.414,1029.63 365.021,1019.58 369.628,1065.41 374.235,1012.3 378.842,996.354 383.449,1019.75 388.055,985.943 392.662,882.4 397.269,912.319 401.876,886.504 406.483,966.231 411.09,1036.56 415.697,1000.68 420.304,964.342 424.911,1004.77 429.518,999.88 434.125,990.81 438.732,937.851 443.339,975.221 447.946,1055.62 452.553,1050.34 457.16,953.741 461.767,970.653 466.374,1008.53 470.981,981.991 475.588,1009.41 480.195,993.207 484.801,922.739 489.408,903.798 494.015,856.935 498.622,929.798 503.229,826.959 507.836,736.455 512.443,885.335 517.05,942.182 521.657,913.666 526.264,865.1 530.871,963.764 535.478,1079.72 540.085,1096.52 544.692,973.022 549.299,873.655 553.906,883.593 558.513,909.867 563.12,943.382 567.727,999.247 572.334,967.59 576.941,943.935 581.547,909.358 586.154,877.791 590.761,899.567 595.368,881.931 599.975,836.502 604.582,816.738 609.189,795.818 613.796,847.695 618.403,824.086 623.01,856.696 627.617,860.986 632.224,776.045 636.831,800.102 641.438,883.317 646.045,934.324 650.652,917.557 655.259,902.097 659.866,860.045 664.473,856.978 669.08,874.044 673.687,876.502 678.293,851.35 682.9,847.586 687.507,759.444 692.114,663.501 696.721,656.794 701.328,631.718 705.935,779.585 710.542,818.232 715.149,762.215 719.756,741.408 724.363,763.531 728.97,838.38 733.577,811.271 738.184,773.783 742.791,733.994 747.398,711.871 752.005,753.023 756.612,800.841 761.219,836.603 765.826,836.314 770.433,830.943 775.039,814.55 779.646,783.178 784.253,654.904 788.86,657.826 793.467,785.919 798.074,800.087 802.681,712.217 807.288,725.217 811.895,763.452 816.502,644.065 821.109,662.922 825.716,719.114 830.323,787.575 834.93,698.486 839.537,738.035 844.144,712.4 848.751,686.659 853.358,703.49 857.965,638.823 862.572,572.632 867.179,553.217 871.786,572.911 876.392,564.559 880.999,657.777 885.606,703.56 890.213,690.677 894.82,658.917 899.427,625.642 904.034,653.623 908.641,659.198 913.248,596.649 917.855,571.286 922.462,608.057 927.069,696.048 931.676,741.436 936.283,731.781 940.89,661.913 945.497,642.688 950.104,652.545 954.711,683.746 959.318,697.097 963.925,651.274 968.532,614.901 973.138,609.387 977.745,571.079 982.352,624.62 986.959,640.949 991.566,618.04 996.173,594.438 1000.78,590.939 1005.39,525.463 1009.99,566.994 1014.6,573.705 1019.21,524.321 1023.81,589.253 1028.42,627.781 1033.03,648.73 1037.64,585.123 1042.24,525.059 1046.85,557.407 1051.46,582.855 1056.06,578.067 1060.67,545.213 1065.28,564.041 1069.88,574.699 1074.49,586.109 1079.1,610.47 1083.71,593.679 1088.31,534.627 1092.92,510.924 1097.53,562.68 1102.13,565.479 1106.74,582.39 1111.35,643.061 1115.95,623.377 1120.56,600.742 1125.17,603.336 1129.77,591.426 1134.38,586.858 1138.99,601.874 1143.6,622.862 1148.2,642.547 1152.81,651.294 1157.42,674.41 1162.02,662.724 1166.63,679.164 1171.24,677.97 1175.84,668.725 1180.45,677.418 1185.06,705.986 1189.67,749.211 1194.27,767.244 1198.88,724.327 1203.49,713.466 1208.09,741.576 1212.7,698.115 1217.31,677.797 1221.91,673.846 1226.52,684.132 1231.13,692.441 1235.73,701.059 1240.34,701.078 1244.95,758.109 1249.56,795.449 1254.16,753.425 1258.77,686.377 1263.38,669.552 1267.98,665.255 1272.59,656.736 1277.2,675.964 1281.8,657.439 1286.41,666.225 1291.02,720.069 1295.63,660.791 1300.23,596.168 1304.84,608.42 1309.45,628.991 1314.05,624.378 1318.66,680.836 1323.27,672.383 1327.87,647.48 1332.48,607.607 1337.09,558.865 1341.69,571.101 1346.3,590.724 1350.91,577.03 1355.52,597.258 1360.12,586.279 1364.73,600.725 1369.34,612.363 1373.94,659.766 1378.55,652.3 1383.16,618.243 1387.76,555.869 1392.37,492.823 1396.98,408.166 1401.59,382.321 1406.19,385.631 1410.8,363.715 1415.41,408.72 1420.01,439.522 1424.62,447.996 1429.23,480.61 1433.83,462.952 1438.44,436.342 1443.05,451.849 1447.65,420.049 1452.26,399.239 1456.87,382.522 1461.48,395.989 1466.08,341.835 1470.69,355.772 1475.3,303.523 1479.9,272.094 1484.51,262.031 1489.12,242.838 1493.72,254.3 1498.33,295.249 1502.94,343.832 1507.54,316.894 1512.15,326.967 1516.76,319.142 1521.37,252.713 1525.97,226.914 1530.58,169.71 1535.19,150.634 1539.79,156.8 1544.4,177.788 1549.01,187.292 1553.61,213.644 1558.22,244.782 1562.83,232.712 1567.44,173.294 1572.04,183.33 1576.65,213.552 1581.26,268.938 1585.86,199.799 1590.47,186.306 1595.08,186.871 1599.68,259.365 1604.29,262.32 1608.9,291.435 1613.5,249.949 1618.11,254.828 1622.72,284.792 1627.33,329.857 1631.93,207.075 1636.54,150.518 1641.15,188.026 1645.75,233.738 1650.36,275.697 1654.97,313.906 1659.57,391.846 1664.18,405.539 1668.79,389.693 1673.4,388.005 1678,358.608 1682.61,298.005 1687.22,314.3 1691.82,371.832 1696.43,368.015 1701.04,313.597 1705.64,287.818 1710.25,360.809 1714.86,381.922 1719.46,363.32 1724.07,387.187 1728.68,476.193 1733.29,380.391 1737.89,382.598 1742.5,412.496 1747.11,465.49 1751.71,490.956 1756.32,455.884 1760.93,474.085 1765.53,521.644 1770.14,542.769 1774.75,507.167 1779.36,508.409 1783.96,477.633 1788.57,473.266 1793.18,545.735 1797.78,679.626 1802.39,735.242 1807,636.767 1811.6,706.047 1816.21,739.799 1820.82,642.201 1825.42,613.791 1830.03,685.712 1834.64,685.391 1839.25,679.913 1843.85,670.513 1848.46,699.051 1853.07,707.127 1857.67,758.07 1862.28,787.944 1866.89,862.712 1871.49,834.144 1876.1,849.396 1880.71,858.854 1885.32,862.372 1889.92,765.599 1894.53,765.587 1899.14,865.271 1903.74,943.828 1908.35,837.04 1912.96,814.68 1917.56,853.043 1922.17,857.611 1926.78,778.387 1931.38,754.661 1935.99,802.207 1940.6,880.144 1945.21,946.431 1949.81,957.78 1954.42,901.494 1959.03,915.761 1963.63,903.409 1968.24,978.469 1972.85,1049.12 1977.45,933.064 1982.06,914.94 1986.67,978.139 1991.28,1032.63 1995.88,1075.31 2000.49,917.328 2005.1,862.541 2009.7,942.073 2014.31,1143.68 "/>
</svg>
