<?xml version="1.0" encoding="utf-8"?>
<svg xmlns="http://www.w3.org/2000/svg" xmlns:xlink="http://www.w3.org/1999/xlink" width="528" height="336" viewBox="0 0 2112 1344">
<defs>
  <clipPath id="clip940">
    <rect x="0" y="0" width="2112" height="1344"/>
  </clipPath>
</defs>
<path clip-path="url(#clip940)" d="M0 1344 L2112 1344 L2112 0 L0 0  Z" fill="#ffffff" fill-rule="evenodd" fill-opacity="1"/>
<defs>
  <clipPath id="clip941">
    <rect x="422" y="0" width="1479" height="1344"/>
  </clipPath>
</defs>
<path clip-path="url(#clip940)" d="M282.326 1173.47 L2064.76 1173.47 L2064.76 120.723 L282.326 120.723  Z" fill="#ffffff" fill-rule="evenodd" fill-opacity="1"/>
<defs>
  <clipPath id="clip942">
    <rect x="282" y="120" width="1783" height="1054"/>
  </clipPath>
</defs>
<polyline clip-path="url(#clip942)" style="stroke:#000000; stroke-linecap:round; stroke-linejoin:round; stroke-width:2; stroke-opacity:0.1; fill:none" points="332.772,1173.47 332.772,120.723 "/>
<polyline clip-path="url(#clip942)" style="stroke:#000000; stroke-linecap:round; stroke-linejoin:round; stroke-width:2; stroke-opacity:0.1; fill:none" points="485.639,1173.47 485.639,120.723 "/>
<polyline clip-path="url(#clip942)" style="stroke:#000000; stroke-linecap:round; stroke-linejoin:round; stroke-width:2; stroke-opacity:0.1; fill:none" points="638.506,1173.47 638.506,120.723 "/>
<polyline clip-path="url(#clip942)" style="stroke:#000000; stroke-linecap:round; stroke-linejoin:round; stroke-width:2; stroke-opacity:0.1; fill:none" points="791.373,1173.47 791.373,120.723 "/>
<polyline clip-path="url(#clip942)" style="stroke:#000000; stroke-linecap:round; stroke-linejoin:round; stroke-width:2; stroke-opacity:0.1; fill:none" points="944.24,1173.47 944.24,120.723 "/>
<polyline clip-path="url(#clip942)" style="stroke:#000000; stroke-linecap:round; stroke-linejoin:round; stroke-width:2; stroke-opacity:0.1; fill:none" points="1097.11,1173.47 1097.11,120.723 "/>
<polyline clip-path="url(#clip942)" style="stroke:#000000; stroke-linecap:round; stroke-linejoin:round; stroke-width:2; stroke-opacity:0.1; fill:none" points="1249.97,1173.47 1249.97,120.723 "/>
<polyline clip-path="url(#clip942)" style="stroke:#000000; stroke-linecap:round; stroke-linejoin:round; stroke-width:2; stroke-opacity:0.1; fill:none" points="1402.84,1173.47 1402.84,120.723 "/>
<polyline clip-path="url(#clip942)" style="stroke:#000000; stroke-linecap:round; stroke-linejoin:round; stroke-width:2; stroke-opacity:0.1; fill:none" points="1555.71,1173.47 1555.71,120.723 "/>
<polyline clip-path="url(#clip942)" style="stroke:#000000; stroke-linecap:round; stroke-linejoin:round; stroke-width:2; stroke-opacity:0.1; fill:none" points="1708.58,1173.47 1708.58,120.723 "/>
<polyline clip-path="url(#clip942)" style="stroke:#000000; stroke-linecap:round; stroke-linejoin:round; stroke-width:2; stroke-opacity:0.1; fill:none" points="1861.44,1173.47 1861.44,120.723 "/>
<polyline clip-path="url(#clip942)" style="stroke:#000000; stroke-linecap:round; stroke-linejoin:round; stroke-width:2; stroke-opacity:0.1; fill:none" points="2014.31,1173.47 2014.31,120.723 "/>
<polyline clip-path="url(#clip940)" style="stroke:#000000; stroke-linecap:round; stroke-linejoin:round; stroke-width:4; stroke-opacity:1; fill:none" points="282.326,1173.47 2064.76,1173.47 "/>
<polyline clip-path="url(#clip940)" style="stroke:#000000; stroke-linecap:round; stroke-linejoin:round; stroke-width:4; stroke-opacity:1; fill:none" points="332.772,1173.47 332.772,1154.57 "/>
<polyline clip-path="url(#clip940)" style="stroke:#000000; stroke-linecap:round; stroke-linejoin:round; stroke-width:4; stroke-opacity:1; fill:none" points="485.639,1173.47 485.639,1154.57 "/>
<polyline clip-path="url(#clip940)" style="stroke:#000000; stroke-linecap:round; stroke-linejoin:round; stroke-width:4; stroke-opacity:1; fill:none" points="638.506,1173.47 638.506,1154.57 "/>
<polyline clip-path="url(#clip940)" style="stroke:#000000; stroke-linecap:round; stroke-linejoin:round; stroke-width:4; stroke-opacity:1; fill:none" points="791.373,1173.47 791.373,1154.57 "/>
<polyline clip-path="url(#clip940)" style="stroke:#000000; stroke-linecap:round; stroke-linejoin:round; stroke-width:4; stroke-opacity:1; fill:none" points="944.24,1173.47 944.24,1154.57 "/>
<polyline clip-path="url(#clip940)" style="stroke:#000000; stroke-linecap:round; stroke-linejoin:round; stroke-width:4; stroke-opacity:1; fill:none" points="1097.11,1173.47 1097.11,1154.57 "/>
<polyline clip-path="url(#clip940)" style="stroke:#000000; stroke-linecap:round; stroke-linejoin:round; stroke-width:4; stroke-opacity:1; fill:none" points="1249.97,1173.47 1249.97,1154.57 "/>
<polyline clip-path="url(#clip940)" style="stroke:#000000; stroke-linecap:round; stroke-linejoin:round; stroke-width:4; stroke-opacity:1; fill:none" points="1402.84,1173.47 1402.84,1154.57 "/>
<polyline clip-path="url(#clip940)" style="stroke:#000000; stroke-linecap:round; stroke-linejoin:round; stroke-width:4; stroke-opacity:1; fill:none" points="1555.71,1173.47 1555.71,1154.57 "/>
<polyline clip-path="url(#clip940)" style="stroke:#000000; stroke-linecap:round; stroke-linejoin:round; stroke-width:4; stroke-opacity:1; fill:none" points="1708.58,1173.47 1708.58,1154.57 "/>
<polyline clip-path="url(#clip940)" style="stroke:#000000; stroke-linecap:round; stroke-linejoin:round; stroke-width:4; stroke-opacity:1; fill:none" points="1861.44,1173.47 1861.44,1154.57 "/>
<polyline clip-path="url(#clip940)" style="stroke:#000000; stroke-linecap:round; stroke-linejoin:round; stroke-width:4; stroke-opacity:1; fill:none" points="2014.31,1173.47 2014.31,1154.57 "/>
<path clip-path="url(#clip940)" d="M323.154 1229.63 L330.793 1229.63 L330.793 1203.27 L322.483 1204.93 L322.483 1200.67 L330.747 1199.01 L335.422 1199.01 L335.422 1229.63 L343.061 1229.63 L343.061 1233.57 L323.154 1233.57 L323.154 1229.63 Z" fill="#000000" fill-rule="nonzero" fill-opacity="1" /><path clip-path="url(#clip940)" d="M480.292 1229.63 L496.611 1229.63 L496.611 1233.57 L474.667 1233.57 L474.667 1229.63 Q477.329 1226.88 481.912 1222.25 Q486.519 1217.59 487.699 1216.25 Q489.945 1213.73 490.824 1211.99 Q491.727 1210.23 491.727 1208.54 Q491.727 1205.79 489.783 1204.05 Q487.861 1202.32 484.759 1202.32 Q482.56 1202.32 480.107 1203.08 Q477.676 1203.84 474.898 1205.4 L474.898 1200.67 Q477.722 1199.54 480.176 1198.96 Q482.63 1198.38 484.667 1198.38 Q490.037 1198.38 493.232 1201.07 Q496.426 1203.75 496.426 1208.24 Q496.426 1210.37 495.616 1212.29 Q494.829 1214.19 492.722 1216.78 Q492.144 1217.46 489.042 1220.67 Q485.94 1223.87 480.292 1229.63 Z" fill="#000000" fill-rule="nonzero" fill-opacity="1" /><path clip-path="url(#clip940)" d="M642.754 1214.93 Q646.11 1215.65 647.985 1217.92 Q649.883 1220.19 649.883 1223.52 Q649.883 1228.64 646.365 1231.44 Q642.846 1234.24 636.365 1234.24 Q634.189 1234.24 631.874 1233.8 Q629.583 1233.38 627.129 1232.53 L627.129 1228.01 Q629.073 1229.15 631.388 1229.72 Q633.703 1230.3 636.226 1230.3 Q640.624 1230.3 642.916 1228.57 Q645.231 1226.83 645.231 1223.52 Q645.231 1220.46 643.078 1218.75 Q640.948 1217.02 637.129 1217.02 L633.101 1217.02 L633.101 1213.17 L637.314 1213.17 Q640.763 1213.17 642.592 1211.81 Q644.42 1210.42 644.42 1207.83 Q644.42 1205.16 642.522 1203.75 Q640.647 1202.32 637.129 1202.32 Q635.208 1202.32 633.009 1202.73 Q630.809 1203.15 628.171 1204.03 L628.171 1199.86 Q630.833 1199.12 633.147 1198.75 Q635.485 1198.38 637.546 1198.38 Q642.87 1198.38 645.971 1200.81 Q649.073 1203.22 649.073 1207.34 Q649.073 1210.21 647.43 1212.2 Q645.786 1214.17 642.754 1214.93 Z" fill="#000000" fill-rule="nonzero" fill-opacity="1" /><path clip-path="url(#clip940)" d="M794.382 1203.08 L782.577 1221.53 L794.382 1221.53 L794.382 1203.08 M793.156 1199.01 L799.035 1199.01 L799.035 1221.53 L803.966 1221.53 L803.966 1225.42 L799.035 1225.42 L799.035 1233.57 L794.382 1233.57 L794.382 1225.42 L778.781 1225.42 L778.781 1220.9 L793.156 1199.01 Z" fill="#000000" fill-rule="nonzero" fill-opacity="1" /><path clip-path="url(#clip940)" d="M934.518 1199.01 L952.875 1199.01 L952.875 1202.94 L938.801 1202.94 L938.801 1211.41 Q939.819 1211.07 940.838 1210.9 Q941.856 1210.72 942.875 1210.72 Q948.662 1210.72 952.041 1213.89 Q955.421 1217.06 955.421 1222.48 Q955.421 1228.06 951.949 1231.16 Q948.476 1234.24 942.157 1234.24 Q939.981 1234.24 937.713 1233.87 Q935.467 1233.5 933.06 1232.76 L933.06 1228.06 Q935.143 1229.19 937.365 1229.75 Q939.588 1230.3 942.064 1230.3 Q946.069 1230.3 948.407 1228.2 Q950.745 1226.09 950.745 1222.48 Q950.745 1218.87 948.407 1216.76 Q946.069 1214.65 942.064 1214.65 Q940.189 1214.65 938.314 1215.07 Q936.463 1215.49 934.518 1216.37 L934.518 1199.01 Z" fill="#000000" fill-rule="nonzero" fill-opacity="1" /><path clip-path="url(#clip940)" d="M1097.51 1214.42 Q1094.36 1214.42 1092.51 1216.58 Q1090.68 1218.73 1090.68 1222.48 Q1090.68 1226.21 1092.51 1228.38 Q1094.36 1230.53 1097.51 1230.53 Q1100.66 1230.53 1102.49 1228.38 Q1104.34 1226.21 1104.34 1222.48 Q1104.34 1218.73 1102.49 1216.58 Q1100.66 1214.42 1097.51 1214.42 M1106.79 1199.77 L1106.79 1204.03 Q1105.04 1203.2 1103.23 1202.76 Q1101.45 1202.32 1099.69 1202.32 Q1095.06 1202.32 1092.61 1205.44 Q1090.17 1208.57 1089.83 1214.89 Q1091.19 1212.87 1093.25 1211.81 Q1095.31 1210.72 1097.79 1210.72 Q1103 1210.72 1106.01 1213.89 Q1109.04 1217.04 1109.04 1222.48 Q1109.04 1227.8 1105.89 1231.02 Q1102.74 1234.24 1097.51 1234.24 Q1091.52 1234.24 1088.35 1229.65 Q1085.17 1225.05 1085.17 1216.32 Q1085.17 1208.13 1089.06 1203.27 Q1092.95 1198.38 1099.5 1198.38 Q1101.26 1198.38 1103.04 1198.73 Q1104.85 1199.08 1106.79 1199.77 Z" fill="#000000" fill-rule="nonzero" fill-opacity="1" /><path clip-path="url(#clip940)" d="M1238.86 1199.01 L1261.09 1199.01 L1261.09 1201 L1248.54 1233.57 L1243.66 1233.57 L1255.46 1202.94 L1238.86 1202.94 L1238.86 1199.01 Z" fill="#000000" fill-rule="nonzero" fill-opacity="1" /><path clip-path="url(#clip940)" d="M1402.84 1217.15 Q1399.51 1217.15 1397.59 1218.94 Q1395.69 1220.72 1395.69 1223.84 Q1395.69 1226.97 1397.59 1228.75 Q1399.51 1230.53 1402.84 1230.53 Q1406.17 1230.53 1408.1 1228.75 Q1410.02 1226.95 1410.02 1223.84 Q1410.02 1220.72 1408.1 1218.94 Q1406.2 1217.15 1402.84 1217.15 M1398.17 1215.16 Q1395.16 1214.42 1393.47 1212.36 Q1391.8 1210.3 1391.8 1207.34 Q1391.8 1203.2 1394.74 1200.79 Q1397.7 1198.38 1402.84 1198.38 Q1408 1198.38 1410.94 1200.79 Q1413.88 1203.2 1413.88 1207.34 Q1413.88 1210.3 1412.19 1212.36 Q1410.53 1214.42 1407.54 1215.16 Q1410.92 1215.95 1412.8 1218.24 Q1414.69 1220.53 1414.69 1223.84 Q1414.69 1228.87 1411.61 1231.55 Q1408.56 1234.24 1402.84 1234.24 Q1397.12 1234.24 1394.05 1231.55 Q1390.99 1228.87 1390.99 1223.84 Q1390.99 1220.53 1392.89 1218.24 Q1394.79 1215.95 1398.17 1215.16 M1396.45 1207.78 Q1396.45 1210.47 1398.12 1211.97 Q1399.81 1213.47 1402.84 1213.47 Q1405.85 1213.47 1407.54 1211.97 Q1409.25 1210.47 1409.25 1207.78 Q1409.25 1205.09 1407.54 1203.59 Q1405.85 1202.09 1402.84 1202.09 Q1399.81 1202.09 1398.12 1203.59 Q1396.45 1205.09 1396.45 1207.78 Z" fill="#000000" fill-rule="nonzero" fill-opacity="1" /><path clip-path="url(#clip940)" d="M1546.01 1232.85 L1546.01 1228.59 Q1547.77 1229.42 1549.57 1229.86 Q1551.38 1230.3 1553.12 1230.3 Q1557.75 1230.3 1560.18 1227.2 Q1562.63 1224.08 1562.98 1217.73 Q1561.63 1219.72 1559.57 1220.79 Q1557.51 1221.85 1555.01 1221.85 Q1549.83 1221.85 1546.8 1218.73 Q1543.79 1215.58 1543.79 1210.14 Q1543.79 1204.82 1546.94 1201.6 Q1550.08 1198.38 1555.32 1198.38 Q1561.31 1198.38 1564.46 1202.99 Q1567.63 1207.57 1567.63 1216.32 Q1567.63 1224.49 1563.74 1229.38 Q1559.88 1234.24 1553.32 1234.24 Q1551.57 1234.24 1549.76 1233.89 Q1547.95 1233.54 1546.01 1232.85 M1555.32 1218.2 Q1558.46 1218.2 1560.29 1216.04 Q1562.14 1213.89 1562.14 1210.14 Q1562.14 1206.41 1560.29 1204.26 Q1558.46 1202.09 1555.32 1202.09 Q1552.17 1202.09 1550.32 1204.26 Q1548.49 1206.41 1548.49 1210.14 Q1548.49 1213.89 1550.32 1216.04 Q1552.17 1218.2 1555.32 1218.2 Z" fill="#000000" fill-rule="nonzero" fill-opacity="1" /><path clip-path="url(#clip940)" d="M1683.26 1229.63 L1690.9 1229.63 L1690.9 1203.27 L1682.59 1204.93 L1682.59 1200.67 L1690.86 1199.01 L1695.53 1199.01 L1695.53 1229.63 L1703.17 1229.63 L1703.17 1233.57 L1683.26 1233.57 L1683.26 1229.63 Z" fill="#000000" fill-rule="nonzero" fill-opacity="1" /><path clip-path="url(#clip940)" d="M1722.61 1202.09 Q1719 1202.09 1717.18 1205.65 Q1715.37 1209.19 1715.37 1216.32 Q1715.37 1223.43 1717.18 1226.99 Q1719 1230.53 1722.61 1230.53 Q1726.25 1230.53 1728.05 1226.99 Q1729.88 1223.43 1729.88 1216.32 Q1729.88 1209.19 1728.05 1205.65 Q1726.25 1202.09 1722.61 1202.09 M1722.61 1198.38 Q1728.43 1198.38 1731.48 1202.99 Q1734.56 1207.57 1734.56 1216.32 Q1734.56 1225.05 1731.48 1229.65 Q1728.43 1234.24 1722.61 1234.24 Q1716.8 1234.24 1713.73 1229.65 Q1710.67 1225.05 1710.67 1216.32 Q1710.67 1207.57 1713.73 1202.99 Q1716.8 1198.38 1722.61 1198.38 Z" fill="#000000" fill-rule="nonzero" fill-opacity="1" /><path clip-path="url(#clip940)" d="M1836.74 1229.63 L1844.38 1229.63 L1844.38 1203.27 L1836.07 1204.93 L1836.07 1200.67 L1844.34 1199.01 L1849.01 1199.01 L1849.01 1229.63 L1856.65 1229.63 L1856.65 1233.57 L1836.74 1233.57 L1836.74 1229.63 Z" fill="#000000" fill-rule="nonzero" fill-opacity="1" /><path clip-path="url(#clip940)" d="M1866.91 1229.63 L1874.54 1229.63 L1874.54 1203.27 L1866.23 1204.93 L1866.23 1200.67 L1874.5 1199.01 L1879.17 1199.01 L1879.17 1229.63 L1886.81 1229.63 L1886.81 1233.57 L1866.91 1233.57 L1866.91 1229.63 Z" fill="#000000" fill-rule="nonzero" fill-opacity="1" /><path clip-path="url(#clip940)" d="M1989.8 1229.63 L1997.43 1229.63 L1997.43 1203.27 L1989.12 1204.93 L1989.12 1200.67 L1997.39 1199.01 L2002.06 1199.01 L2002.06 1229.63 L2009.7 1229.63 L2009.7 1233.57 L1989.8 1233.57 L1989.8 1229.63 Z" fill="#000000" fill-rule="nonzero" fill-opacity="1" /><path clip-path="url(#clip940)" d="M2023.18 1229.63 L2039.49 1229.63 L2039.49 1233.57 L2017.55 1233.57 L2017.55 1229.63 Q2020.21 1226.88 2024.8 1222.25 Q2029.4 1217.59 2030.58 1216.25 Q2032.83 1213.73 2033.71 1211.99 Q2034.61 1210.23 2034.61 1208.54 Q2034.61 1205.79 2032.67 1204.05 Q2030.74 1202.32 2027.64 1202.32 Q2025.44 1202.32 2022.99 1203.08 Q2020.56 1203.84 2017.78 1205.4 L2017.78 1200.67 Q2020.61 1199.54 2023.06 1198.96 Q2025.51 1198.38 2027.55 1198.38 Q2032.92 1198.38 2036.12 1201.07 Q2039.31 1203.75 2039.31 1208.24 Q2039.31 1210.37 2038.5 1212.29 Q2037.71 1214.19 2035.61 1216.78 Q2035.03 1217.46 2031.93 1220.67 Q2028.82 1223.87 2023.18 1229.63 Z" fill="#000000" fill-rule="nonzero" fill-opacity="1" /><path clip-path="url(#clip940)" d="M1077.36 1266.49 L1086.94 1266.49 L1099.06 1298.83 L1111.25 1266.49 L1120.83 1266.49 L1120.83 1314.01 L1114.56 1314.01 L1114.56 1272.29 L1102.31 1304.88 L1095.85 1304.88 L1083.59 1272.29 L1083.59 1314.01 L1077.36 1314.01 L1077.36 1266.49 Z" fill="#000000" fill-rule="nonzero" fill-opacity="1" /><path clip-path="url(#clip940)" d="M1147.16 1282.47 Q1142.44 1282.47 1139.71 1286.16 Q1136.97 1289.83 1136.97 1296.22 Q1136.97 1302.62 1139.68 1306.31 Q1142.41 1309.97 1147.16 1309.97 Q1151.83 1309.97 1154.57 1306.28 Q1157.31 1302.59 1157.31 1296.22 Q1157.31 1289.89 1154.57 1286.2 Q1151.83 1282.47 1147.16 1282.47 M1147.16 1277.51 Q1154.79 1277.51 1159.15 1282.47 Q1163.51 1287.44 1163.51 1296.22 Q1163.51 1304.98 1159.15 1309.97 Q1154.79 1314.94 1147.16 1314.94 Q1139.48 1314.94 1135.12 1309.97 Q1130.8 1304.98 1130.8 1296.22 Q1130.8 1287.44 1135.12 1282.47 Q1139.48 1277.51 1147.16 1277.51 Z" fill="#000000" fill-rule="nonzero" fill-opacity="1" /><path clip-path="url(#clip940)" d="M1202.85 1292.5 L1202.85 1314.01 L1197 1314.01 L1197 1292.69 Q1197 1287.63 1195.03 1285.11 Q1193.05 1282.6 1189.11 1282.6 Q1184.36 1282.6 1181.63 1285.62 Q1178.89 1288.65 1178.89 1293.87 L1178.89 1314.01 L1173 1314.01 L1173 1278.37 L1178.89 1278.37 L1178.89 1283.9 Q1180.99 1280.69 1183.82 1279.1 Q1186.69 1277.51 1190.41 1277.51 Q1196.55 1277.51 1199.7 1281.33 Q1202.85 1285.11 1202.85 1292.5 Z" fill="#000000" fill-rule="nonzero" fill-opacity="1" /><path clip-path="url(#clip940)" d="M1220.33 1268.25 L1220.33 1278.37 L1232.39 1278.37 L1232.39 1282.92 L1220.33 1282.92 L1220.33 1302.27 Q1220.33 1306.63 1221.51 1307.87 Q1222.72 1309.11 1226.38 1309.11 L1232.39 1309.11 L1232.39 1314.01 L1226.38 1314.01 Q1219.6 1314.01 1217.02 1311.5 Q1214.44 1308.95 1214.44 1302.27 L1214.44 1282.92 L1210.14 1282.92 L1210.14 1278.37 L1214.44 1278.37 L1214.44 1268.25 L1220.33 1268.25 Z" fill="#000000" fill-rule="nonzero" fill-opacity="1" /><path clip-path="url(#clip940)" d="M1269.73 1292.5 L1269.73 1314.01 L1263.87 1314.01 L1263.87 1292.69 Q1263.87 1287.63 1261.9 1285.11 Q1259.92 1282.6 1255.98 1282.6 Q1251.23 1282.6 1248.5 1285.62 Q1245.76 1288.65 1245.76 1293.87 L1245.76 1314.01 L1239.87 1314.01 L1239.87 1264.49 L1245.76 1264.49 L1245.76 1283.9 Q1247.86 1280.69 1250.69 1279.1 Q1253.56 1277.51 1257.28 1277.51 Q1263.42 1277.51 1266.58 1281.33 Q1269.73 1285.11 1269.73 1292.5 Z" fill="#000000" fill-rule="nonzero" fill-opacity="1" /><polyline clip-path="url(#clip942)" style="stroke:#000000; stroke-linecap:round; stroke-linejoin:round; stroke-width:2; stroke-opacity:0.1; fill:none" points="282.326,966.594 2064.76,966.594 "/>
<polyline clip-path="url(#clip942)" style="stroke:#000000; stroke-linecap:round; stroke-linejoin:round; stroke-width:2; stroke-opacity:0.1; fill:none" points="282.326,709.971 2064.76,709.971 "/>
<polyline clip-path="url(#clip942)" style="stroke:#000000; stroke-linecap:round; stroke-linejoin:round; stroke-width:2; stroke-opacity:0.1; fill:none" points="282.326,453.347 2064.76,453.347 "/>
<polyline clip-path="url(#clip942)" style="stroke:#000000; stroke-linecap:round; stroke-linejoin:round; stroke-width:2; stroke-opacity:0.1; fill:none" points="282.326,196.723 2064.76,196.723 "/>
<polyline clip-path="url(#clip940)" style="stroke:#000000; stroke-linecap:round; stroke-linejoin:round; stroke-width:4; stroke-opacity:1; fill:none" points="282.326,1173.47 282.326,120.723 "/>
<polyline clip-path="url(#clip940)" style="stroke:#000000; stroke-linecap:round; stroke-linejoin:round; stroke-width:4; stroke-opacity:1; fill:none" points="282.326,966.594 301.224,966.594 "/>
<polyline clip-path="url(#clip940)" style="stroke:#000000; stroke-linecap:round; stroke-linejoin:round; stroke-width:4; stroke-opacity:1; fill:none" points="282.326,709.971 301.224,709.971 "/>
<polyline clip-path="url(#clip940)" style="stroke:#000000; stroke-linecap:round; stroke-linejoin:round; stroke-width:4; stroke-opacity:1; fill:none" points="282.326,453.347 301.224,453.347 "/>
<polyline clip-path="url(#clip940)" style="stroke:#000000; stroke-linecap:round; stroke-linejoin:round; stroke-width:4; stroke-opacity:1; fill:none" points="282.326,196.723 301.224,196.723 "/>
<path clip-path="url(#clip940)" d="M113.54 967.046 L143.216 967.046 L143.216 970.981 L113.54 970.981 L113.54 967.046 Z" fill="#000000" fill-rule="nonzero" fill-opacity="1" /><path clip-path="url(#clip940)" d="M163.308 952.393 Q159.697 952.393 157.869 955.958 Q156.063 959.499 156.063 966.629 Q156.063 973.736 157.869 977.3 Q159.697 980.842 163.308 980.842 Q166.943 980.842 168.748 977.3 Q170.577 973.736 170.577 966.629 Q170.577 959.499 168.748 955.958 Q166.943 952.393 163.308 952.393 M163.308 948.689 Q169.119 948.689 172.174 953.296 Q175.253 957.879 175.253 966.629 Q175.253 975.356 172.174 979.962 Q169.119 984.546 163.308 984.546 Q157.498 984.546 154.42 979.962 Q151.364 975.356 151.364 966.629 Q151.364 957.879 154.42 953.296 Q157.498 948.689 163.308 948.689 Z" fill="#000000" fill-rule="nonzero" fill-opacity="1" /><path clip-path="url(#clip940)" d="M183.47 977.995 L188.355 977.995 L188.355 983.874 L183.47 983.874 L183.47 977.995 Z" fill="#000000" fill-rule="nonzero" fill-opacity="1" /><path clip-path="url(#clip940)" d="M202.567 979.939 L218.887 979.939 L218.887 983.874 L196.942 983.874 L196.942 979.939 Q199.605 977.185 204.188 972.555 Q208.794 967.902 209.975 966.56 Q212.22 964.036 213.1 962.3 Q214.003 960.541 214.003 958.851 Q214.003 956.097 212.058 954.361 Q210.137 952.625 207.035 952.625 Q204.836 952.625 202.382 953.388 Q199.952 954.152 197.174 955.703 L197.174 950.981 Q199.998 949.847 202.452 949.268 Q204.905 948.689 206.942 948.689 Q212.313 948.689 215.507 951.375 Q218.702 954.06 218.702 958.55 Q218.702 960.68 217.891 962.601 Q217.104 964.499 214.998 967.092 Q214.419 967.763 211.317 970.981 Q208.216 974.175 202.567 979.939 Z" fill="#000000" fill-rule="nonzero" fill-opacity="1" /><path clip-path="url(#clip940)" d="M238.702 952.393 Q235.09 952.393 233.262 955.958 Q231.456 959.499 231.456 966.629 Q231.456 973.736 233.262 977.3 Q235.09 980.842 238.702 980.842 Q242.336 980.842 244.141 977.3 Q245.97 973.736 245.97 966.629 Q245.97 959.499 244.141 955.958 Q242.336 952.393 238.702 952.393 M238.702 948.689 Q244.512 948.689 247.567 953.296 Q250.646 957.879 250.646 966.629 Q250.646 975.356 247.567 979.962 Q244.512 984.546 238.702 984.546 Q232.891 984.546 229.813 979.962 Q226.757 975.356 226.757 966.629 Q226.757 957.879 229.813 953.296 Q232.891 948.689 238.702 948.689 Z" fill="#000000" fill-rule="nonzero" fill-opacity="1" /><path clip-path="url(#clip940)" d="M114.536 710.422 L144.211 710.422 L144.211 714.357 L114.536 714.357 L114.536 710.422 Z" fill="#000000" fill-rule="nonzero" fill-opacity="1" /><path clip-path="url(#clip940)" d="M164.304 695.769 Q160.693 695.769 158.864 699.334 Q157.058 702.876 157.058 710.005 Q157.058 717.112 158.864 720.677 Q160.693 724.218 164.304 724.218 Q167.938 724.218 169.744 720.677 Q171.572 717.112 171.572 710.005 Q171.572 702.876 169.744 699.334 Q167.938 695.769 164.304 695.769 M164.304 692.066 Q170.114 692.066 173.169 696.672 Q176.248 701.255 176.248 710.005 Q176.248 718.732 173.169 723.339 Q170.114 727.922 164.304 727.922 Q158.494 727.922 155.415 723.339 Q152.359 718.732 152.359 710.005 Q152.359 701.255 155.415 696.672 Q158.494 692.066 164.304 692.066 Z" fill="#000000" fill-rule="nonzero" fill-opacity="1" /><path clip-path="url(#clip940)" d="M184.466 721.371 L189.35 721.371 L189.35 727.251 L184.466 727.251 L184.466 721.371 Z" fill="#000000" fill-rule="nonzero" fill-opacity="1" /><path clip-path="url(#clip940)" d="M200.345 723.315 L207.984 723.315 L207.984 696.95 L199.674 698.617 L199.674 694.357 L207.938 692.691 L212.614 692.691 L212.614 723.315 L220.253 723.315 L220.253 727.251 L200.345 727.251 L200.345 723.315 Z" fill="#000000" fill-rule="nonzero" fill-opacity="1" /><path clip-path="url(#clip940)" d="M229.743 692.691 L248.1 692.691 L248.1 696.626 L234.026 696.626 L234.026 705.098 Q235.044 704.751 236.063 704.589 Q237.081 704.404 238.1 704.404 Q243.887 704.404 247.266 707.575 Q250.646 710.746 250.646 716.163 Q250.646 721.741 247.174 724.843 Q243.701 727.922 237.382 727.922 Q235.206 727.922 232.938 727.552 Q230.692 727.181 228.285 726.44 L228.285 721.741 Q230.368 722.876 232.59 723.431 Q234.813 723.987 237.289 723.987 Q241.294 723.987 243.632 721.88 Q245.97 719.774 245.97 716.163 Q245.97 712.552 243.632 710.445 Q241.294 708.339 237.289 708.339 Q235.415 708.339 233.54 708.755 Q231.688 709.172 229.743 710.052 L229.743 692.691 Z" fill="#000000" fill-rule="nonzero" fill-opacity="1" /><path clip-path="url(#clip940)" d="M113.54 453.798 L143.216 453.798 L143.216 457.733 L113.54 457.733 L113.54 453.798 Z" fill="#000000" fill-rule="nonzero" fill-opacity="1" /><path clip-path="url(#clip940)" d="M163.308 439.146 Q159.697 439.146 157.869 442.71 Q156.063 446.252 156.063 453.382 Q156.063 460.488 157.869 464.053 Q159.697 467.595 163.308 467.595 Q166.943 467.595 168.748 464.053 Q170.577 460.488 170.577 453.382 Q170.577 446.252 168.748 442.71 Q166.943 439.146 163.308 439.146 M163.308 435.442 Q169.119 435.442 172.174 440.048 Q175.253 444.632 175.253 453.382 Q175.253 462.108 172.174 466.715 Q169.119 471.298 163.308 471.298 Q157.498 471.298 154.42 466.715 Q151.364 462.108 151.364 453.382 Q151.364 444.632 154.42 440.048 Q157.498 435.442 163.308 435.442 Z" fill="#000000" fill-rule="nonzero" fill-opacity="1" /><path clip-path="url(#clip940)" d="M183.47 464.747 L188.355 464.747 L188.355 470.627 L183.47 470.627 L183.47 464.747 Z" fill="#000000" fill-rule="nonzero" fill-opacity="1" /><path clip-path="url(#clip940)" d="M199.35 466.692 L206.989 466.692 L206.989 440.326 L198.679 441.993 L198.679 437.734 L206.942 436.067 L211.618 436.067 L211.618 466.692 L219.257 466.692 L219.257 470.627 L199.35 470.627 L199.35 466.692 Z" fill="#000000" fill-rule="nonzero" fill-opacity="1" /><path clip-path="url(#clip940)" d="M238.702 439.146 Q235.09 439.146 233.262 442.71 Q231.456 446.252 231.456 453.382 Q231.456 460.488 233.262 464.053 Q235.09 467.595 238.702 467.595 Q242.336 467.595 244.141 464.053 Q245.97 460.488 245.97 453.382 Q245.97 446.252 244.141 442.71 Q242.336 439.146 238.702 439.146 M238.702 435.442 Q244.512 435.442 247.567 440.048 Q250.646 444.632 250.646 453.382 Q250.646 462.108 247.567 466.715 Q244.512 471.298 238.702 471.298 Q232.891 471.298 229.813 466.715 Q226.757 462.108 226.757 453.382 Q226.757 444.632 229.813 440.048 Q232.891 435.442 238.702 435.442 Z" fill="#000000" fill-rule="nonzero" fill-opacity="1" /><path clip-path="url(#clip940)" d="M114.536 197.175 L144.211 197.175 L144.211 201.11 L114.536 201.11 L114.536 197.175 Z" fill="#000000" fill-rule="nonzero" fill-opacity="1" /><path clip-path="url(#clip940)" d="M164.304 182.522 Q160.693 182.522 158.864 186.087 Q157.058 189.628 157.058 196.758 Q157.058 203.864 158.864 207.429 Q160.693 210.971 164.304 210.971 Q167.938 210.971 169.744 207.429 Q171.572 203.864 171.572 196.758 Q171.572 189.628 169.744 186.087 Q167.938 182.522 164.304 182.522 M164.304 178.818 Q170.114 178.818 173.169 183.425 Q176.248 188.008 176.248 196.758 Q176.248 205.485 173.169 210.091 Q170.114 214.675 164.304 214.675 Q158.494 214.675 155.415 210.091 Q152.359 205.485 152.359 196.758 Q152.359 188.008 155.415 183.425 Q158.494 178.818 164.304 178.818 Z" fill="#000000" fill-rule="nonzero" fill-opacity="1" /><path clip-path="url(#clip940)" d="M184.466 208.124 L189.35 208.124 L189.35 214.003 L184.466 214.003 L184.466 208.124 Z" fill="#000000" fill-rule="nonzero" fill-opacity="1" /><path clip-path="url(#clip940)" d="M209.535 182.522 Q205.924 182.522 204.095 186.087 Q202.29 189.628 202.29 196.758 Q202.29 203.864 204.095 207.429 Q205.924 210.971 209.535 210.971 Q213.169 210.971 214.975 207.429 Q216.803 203.864 216.803 196.758 Q216.803 189.628 214.975 186.087 Q213.169 182.522 209.535 182.522 M209.535 178.818 Q215.345 178.818 218.401 183.425 Q221.479 188.008 221.479 196.758 Q221.479 205.485 218.401 210.091 Q215.345 214.675 209.535 214.675 Q203.725 214.675 200.646 210.091 Q197.591 205.485 197.591 196.758 Q197.591 188.008 200.646 183.425 Q203.725 178.818 209.535 178.818 Z" fill="#000000" fill-rule="nonzero" fill-opacity="1" /><path clip-path="url(#clip940)" d="M229.743 179.443 L248.1 179.443 L248.1 183.378 L234.026 183.378 L234.026 191.851 Q235.044 191.503 236.063 191.341 Q237.081 191.156 238.1 191.156 Q243.887 191.156 247.266 194.327 Q250.646 197.499 250.646 202.915 Q250.646 208.494 247.174 211.596 Q243.701 214.675 237.382 214.675 Q235.206 214.675 232.938 214.304 Q230.692 213.934 228.285 213.193 L228.285 208.494 Q230.368 209.628 232.59 210.184 Q234.813 210.739 237.289 210.739 Q241.294 210.739 243.632 208.633 Q245.97 206.526 245.97 202.915 Q245.97 199.304 243.632 197.198 Q241.294 195.091 237.289 195.091 Q235.415 195.091 233.54 195.508 Q231.688 195.925 229.743 196.804 L229.743 179.443 Z" fill="#000000" fill-rule="nonzero" fill-opacity="1" /><path clip-path="url(#clip940)" d="M26.418 1018.22 L50.0666 1026.94 L50.0666 1009.46 L26.418 1018.22 M20.0842 1021.85 L20.0842 1014.56 L67.6042 996.447 L67.6042 1003.13 L55.4138 1007.46 L55.4138 1028.88 L67.6042 1033.21 L67.6042 1039.99 L20.0842 1021.85 Z" fill="#000000" fill-rule="nonzero" fill-opacity="1" /><path clip-path="url(#clip940)" d="M31.9562 997.784 L31.9562 991.577 L61.875 980.437 L31.9562 969.297 L31.9562 963.091 L67.6042 976.459 L67.6042 984.416 L31.9562 997.784 Z" fill="#000000" fill-rule="nonzero" fill-opacity="1" /><path clip-path="url(#clip940)" d="M48.3161 924.514 L51.1806 924.514 L51.1806 951.441 Q57.2281 951.059 60.4109 947.813 Q63.5619 944.535 63.5619 938.71 Q63.5619 935.336 62.7344 932.185 Q61.9069 929.002 60.2518 925.883 L65.7899 925.883 Q67.1267 929.034 67.827 932.344 Q68.5272 935.654 68.5272 939.06 Q68.5272 947.59 63.5619 952.587 Q58.5967 957.552 50.1303 957.552 Q41.3774 957.552 36.2531 952.842 Q31.0968 948.099 31.0968 940.079 Q31.0968 932.885 35.7438 928.716 Q40.3589 924.514 48.3161 924.514 M46.5973 930.371 Q41.7912 930.434 38.9266 933.076 Q36.0621 935.686 36.0621 940.015 Q36.0621 944.916 38.8312 947.877 Q41.6002 950.805 46.6292 951.25 L46.5973 930.371 Z" fill="#000000" fill-rule="nonzero" fill-opacity="1" /><path clip-path="url(#clip940)" d="M37.4307 894.245 Q36.8578 895.232 36.6032 896.41 Q36.3167 897.556 36.3167 898.956 Q36.3167 903.921 39.5632 906.595 Q42.7779 909.237 48.8253 909.237 L67.6042 909.237 L67.6042 915.125 L31.9562 915.125 L31.9562 909.237 L37.4944 909.237 Q34.2479 907.391 32.6883 904.431 Q31.0968 901.471 31.0968 897.237 Q31.0968 896.633 31.1923 895.901 Q31.256 895.168 31.4151 894.277 L37.4307 894.245 Z" fill="#000000" fill-rule="nonzero" fill-opacity="1" /><path clip-path="url(#clip940)" d="M49.6847 871.902 Q49.6847 879 51.3079 881.737 Q52.9312 884.474 56.8461 884.474 Q59.9653 884.474 61.8114 882.437 Q63.6256 880.368 63.6256 876.835 Q63.6256 871.965 60.1881 869.037 Q56.7188 866.077 50.9897 866.077 L49.6847 866.077 L49.6847 871.902 M47.2657 860.221 L67.6042 860.221 L67.6042 866.077 L62.1933 866.077 Q65.4398 868.082 66.9994 871.074 Q68.5272 874.066 68.5272 878.395 Q68.5272 883.869 65.4716 887.116 Q62.3843 890.331 57.2281 890.331 Q51.2125 890.331 48.1569 886.32 Q45.1014 882.278 45.1014 874.289 L45.1014 866.077 L44.5285 866.077 Q40.4862 866.077 38.2901 868.751 Q36.0621 871.393 36.0621 876.199 Q36.0621 879.254 36.7941 882.151 Q37.5262 885.047 38.9903 887.721 L33.5795 887.721 Q32.3381 884.506 31.7334 881.482 Q31.0968 878.459 31.0968 875.594 Q31.0968 867.86 35.1072 864.04 Q39.1176 860.221 47.2657 860.221 Z" fill="#000000" fill-rule="nonzero" fill-opacity="1" /><path clip-path="url(#clip940)" d="M49.3664 824.7 Q43.0007 824.7 39.4996 827.342 Q35.9984 829.952 35.9984 834.694 Q35.9984 839.405 39.4996 842.047 Q43.0007 844.657 49.3664 844.657 Q55.7003 844.657 59.2014 842.047 Q62.7026 839.405 62.7026 834.694 Q62.7026 829.952 59.2014 827.342 Q55.7003 824.7 49.3664 824.7 M63.18 818.844 Q72.283 818.844 76.7071 822.886 Q81.1631 826.928 81.1631 835.267 Q81.1631 838.355 80.6857 841.092 Q80.2401 843.829 79.2852 846.407 L73.5879 846.407 Q74.9884 843.829 75.6568 841.315 Q76.3252 838.8 76.3252 836.19 Q76.3252 830.429 73.3015 827.565 Q70.3096 824.7 64.2303 824.7 L61.3339 824.7 Q64.485 826.514 66.0446 829.347 Q67.6042 832.18 67.6042 836.127 Q67.6042 842.683 62.6071 846.694 Q57.61 850.704 49.3664 850.704 Q41.091 850.704 36.0939 846.694 Q31.0968 842.683 31.0968 836.127 Q31.0968 832.18 32.6564 829.347 Q34.216 826.514 37.3671 824.7 L31.9562 824.7 L31.9562 818.844 L63.18 818.844 Z" fill="#000000" fill-rule="nonzero" fill-opacity="1" /><path clip-path="url(#clip940)" d="M48.3161 776.289 L51.1806 776.289 L51.1806 803.216 Q57.2281 802.834 60.4109 799.587 Q63.5619 796.309 63.5619 790.484 Q63.5619 787.111 62.7344 783.96 Q61.9069 780.777 60.2518 777.658 L65.7899 777.658 Q67.1267 780.809 67.827 784.119 Q68.5272 787.429 68.5272 790.835 Q68.5272 799.365 63.5619 804.362 Q58.5967 809.327 50.1303 809.327 Q41.3774 809.327 36.2531 804.616 Q31.0968 799.874 31.0968 791.853 Q31.0968 784.66 35.7438 780.49 Q40.3589 776.289 48.3161 776.289 M46.5973 782.145 Q41.7912 782.209 38.9266 784.851 Q36.0621 787.461 36.0621 791.789 Q36.0621 796.691 38.8312 799.651 Q41.6002 802.579 46.6292 803.025 L46.5973 782.145 Z" fill="#000000" fill-rule="nonzero" fill-opacity="1" /><path clip-path="url(#clip940)" d="M20.0842 749.935 L20.0842 743.442 L60.2518 733.448 L20.0842 723.485 L20.0842 716.26 L60.2518 706.266 L20.0842 696.304 L20.0842 689.779 L67.6042 701.715 L67.6042 709.799 L26.3544 719.825 L67.6042 729.947 L67.6042 738.031 L20.0842 749.935 Z" fill="#000000" fill-rule="nonzero" fill-opacity="1" /><path clip-path="url(#clip940)" d="M49.6847 669.472 Q49.6847 676.57 51.3079 679.307 Q52.9312 682.045 56.8461 682.045 Q59.9653 682.045 61.8114 680.008 Q63.6256 677.939 63.6256 674.406 Q63.6256 669.536 60.1881 666.608 Q56.7188 663.648 50.9897 663.648 L49.6847 663.648 L49.6847 669.472 M47.2657 657.791 L67.6042 657.791 L67.6042 663.648 L62.1933 663.648 Q65.4398 665.653 66.9994 668.645 Q68.5272 671.637 68.5272 675.965 Q68.5272 681.44 65.4716 684.686 Q62.3843 687.901 57.2281 687.901 Q51.2125 687.901 48.1569 683.891 Q45.1014 679.848 45.1014 671.859 L45.1014 663.648 L44.5285 663.648 Q40.4862 663.648 38.2901 666.321 Q36.0621 668.963 36.0621 673.769 Q36.0621 676.825 36.7941 679.721 Q37.5262 682.618 38.9903 685.291 L33.5795 685.291 Q32.3381 682.076 31.7334 679.053 Q31.0968 676.029 31.0968 673.164 Q31.0968 665.43 35.1072 661.611 Q39.1176 657.791 47.2657 657.791 Z" fill="#000000" fill-rule="nonzero" fill-opacity="1" /><path clip-path="url(#clip940)" d="M21.8347 639.935 L31.9562 639.935 L31.9562 627.872 L36.5077 627.872 L36.5077 639.935 L55.8594 639.935 Q60.2199 639.935 61.4613 638.758 Q62.7026 637.548 62.7026 633.888 L62.7026 627.872 L67.6042 627.872 L67.6042 633.888 Q67.6042 640.668 65.0897 643.246 Q62.5434 645.824 55.8594 645.824 L36.5077 645.824 L36.5077 650.121 L31.9562 650.121 L31.9562 645.824 L21.8347 645.824 L21.8347 639.935 Z" fill="#000000" fill-rule="nonzero" fill-opacity="1" /><path clip-path="url(#clip940)" d="M48.3161 589.678 L51.1806 589.678 L51.1806 616.605 Q57.2281 616.223 60.4109 612.977 Q63.5619 609.698 63.5619 603.874 Q63.5619 600.5 62.7344 597.349 Q61.9069 594.166 60.2518 591.047 L65.7899 591.047 Q67.1267 594.198 67.827 597.508 Q68.5272 600.818 68.5272 604.224 Q68.5272 612.754 63.5619 617.751 Q58.5967 622.716 50.1303 622.716 Q41.3774 622.716 36.2531 618.006 Q31.0968 613.263 31.0968 605.242 Q31.0968 598.049 35.7438 593.88 Q40.3589 589.678 48.3161 589.678 M46.5973 595.535 Q41.7912 595.598 38.9266 598.24 Q36.0621 600.85 36.0621 605.179 Q36.0621 610.08 38.8312 613.04 Q41.6002 615.969 46.6292 616.414 L46.5973 595.535 Z" fill="#000000" fill-rule="nonzero" fill-opacity="1" /><path clip-path="url(#clip940)" d="M37.4307 559.409 Q36.8578 560.396 36.6032 561.574 Q36.3167 562.719 36.3167 564.12 Q36.3167 569.085 39.5632 571.759 Q42.7779 574.401 48.8253 574.401 L67.6042 574.401 L67.6042 580.289 L31.9562 580.289 L31.9562 574.401 L37.4944 574.401 Q34.2479 572.554 32.6883 569.594 Q31.0968 566.634 31.0968 562.401 Q31.0968 561.796 31.1923 561.064 Q31.256 560.332 31.4151 559.441 L37.4307 559.409 Z" fill="#000000" fill-rule="nonzero" fill-opacity="1" /><path clip-path="url(#clip940)" d="M18.079 532.546 L18.079 526.69 L67.6042 526.69 L67.6042 532.546 L18.079 532.546 Z" fill="#000000" fill-rule="nonzero" fill-opacity="1" /><path clip-path="url(#clip940)" d="M48.3161 483.944 L51.1806 483.944 L51.1806 510.871 Q57.2281 510.489 60.4109 507.242 Q63.5619 503.964 63.5619 498.139 Q63.5619 494.766 62.7344 491.615 Q61.9069 488.432 60.2518 485.312 L65.7899 485.312 Q67.1267 488.463 67.827 491.774 Q68.5272 495.084 68.5272 498.489 Q68.5272 507.02 63.5619 512.017 Q58.5967 516.982 50.1303 516.982 Q41.3774 516.982 36.2531 512.271 Q31.0968 507.529 31.0968 499.508 Q31.0968 492.315 35.7438 488.145 Q40.3589 483.944 48.3161 483.944 M46.5973 489.8 Q41.7912 489.864 38.9266 492.506 Q36.0621 495.116 36.0621 499.444 Q36.0621 504.346 38.8312 507.306 Q41.6002 510.234 46.6292 510.68 L46.5973 489.8 Z" fill="#000000" fill-rule="nonzero" fill-opacity="1" /><path clip-path="url(#clip940)" d="M31.9562 478.533 L31.9562 472.326 L61.875 461.186 L31.9562 450.046 L31.9562 443.84 L67.6042 457.208 L67.6042 465.165 L31.9562 478.533 Z" fill="#000000" fill-rule="nonzero" fill-opacity="1" /><path clip-path="url(#clip940)" d="M48.3161 405.264 L51.1806 405.264 L51.1806 432.191 Q57.2281 431.809 60.4109 428.562 Q63.5619 425.284 63.5619 419.459 Q63.5619 416.085 62.7344 412.934 Q61.9069 409.752 60.2518 406.632 L65.7899 406.632 Q67.1267 409.783 67.827 413.094 Q68.5272 416.404 68.5272 419.809 Q68.5272 428.339 63.5619 433.336 Q58.5967 438.302 50.1303 438.302 Q41.3774 438.302 36.2531 433.591 Q31.0968 428.849 31.0968 420.828 Q31.0968 413.635 35.7438 409.465 Q40.3589 405.264 48.3161 405.264 M46.5973 411.12 Q41.7912 411.184 38.9266 413.826 Q36.0621 416.436 36.0621 420.764 Q36.0621 425.666 38.8312 428.626 Q41.6002 431.554 46.6292 432 L46.5973 411.12 Z" fill="#000000" fill-rule="nonzero" fill-opacity="1" /><path clip-path="url(#clip940)" d="M18.079 395.651 L18.079 389.795 L67.6042 389.795 L67.6042 395.651 L18.079 395.651 Z" fill="#000000" fill-rule="nonzero" fill-opacity="1" /><path clip-path="url(#clip940)" d="M18.1426 342.752 Q25.4632 347.017 32.6246 349.086 Q39.786 351.155 47.1384 351.155 Q54.4908 351.155 61.7159 349.086 Q68.9091 346.986 76.1979 342.752 L76.1979 347.845 Q68.7182 352.619 61.4931 355.006 Q54.268 357.362 47.1384 357.362 Q40.0406 357.362 32.8474 355.006 Q25.6542 352.651 18.1426 347.845 L18.1426 342.752 Z" fill="#000000" fill-rule="nonzero" fill-opacity="1" /><path clip-path="url(#clip940)" d="M38.7993 303.635 Q34.8526 301.439 32.9747 298.383 Q31.0968 295.328 31.0968 291.19 Q31.0968 285.62 35.0117 282.597 Q38.8948 279.573 46.0881 279.573 L67.6042 279.573 L67.6042 285.461 L46.279 285.461 Q41.1546 285.461 38.672 287.275 Q36.1894 289.09 36.1894 292.813 Q36.1894 297.365 39.2131 300.007 Q42.2368 302.649 47.4567 302.649 L67.6042 302.649 L67.6042 308.537 L46.279 308.537 Q41.1228 308.537 38.672 310.351 Q36.1894 312.165 36.1894 315.953 Q36.1894 320.441 39.2449 323.082 Q42.2686 325.724 47.4567 325.724 L67.6042 325.724 L67.6042 331.612 L31.9562 331.612 L31.9562 325.724 L37.4944 325.724 Q34.216 323.719 32.6564 320.918 Q31.0968 318.117 31.0968 314.266 Q31.0968 310.383 33.0702 307.677 Q35.0436 304.94 38.7993 303.635 Z" fill="#000000" fill-rule="nonzero" fill-opacity="1" /><path clip-path="url(#clip940)" d="M18.1426 268.815 L18.1426 263.722 Q25.6542 258.948 32.8474 256.593 Q40.0406 254.205 47.1384 254.205 Q54.268 254.205 61.4931 256.593 Q68.7182 258.948 76.1979 263.722 L76.1979 268.815 Q68.9091 264.582 61.7159 262.513 Q54.4908 260.412 47.1384 260.412 Q39.786 260.412 32.6246 262.513 Q25.4632 264.582 18.1426 268.815 Z" fill="#000000" fill-rule="nonzero" fill-opacity="1" /><path clip-path="url(#clip940)" d="M134.403 20.1573 L123.303 50.2555 L145.543 50.2555 L134.403 20.1573 M129.785 12.096 L139.061 12.096 L162.111 72.576 L153.604 72.576 L148.095 57.061 L120.832 57.061 L115.323 72.576 L106.695 72.576 L129.785 12.096 Z" fill="#000000" fill-rule="nonzero" fill-opacity="1" /><path clip-path="url(#clip940)" d="M160.41 27.2059 L168.309 27.2059 L182.487 65.2844 L196.665 27.2059 L204.565 27.2059 L187.551 72.576 L177.424 72.576 L160.41 27.2059 Z" fill="#000000" fill-rule="nonzero" fill-opacity="1" /><path clip-path="url(#clip940)" d="M253.662 48.0275 L253.662 51.6733 L219.391 51.6733 Q219.877 59.3701 224.009 63.421 Q228.181 67.4314 235.595 67.4314 Q239.889 67.4314 243.899 66.3781 Q247.95 65.3249 251.92 63.2184 L251.92 70.267 Q247.909 71.9684 243.696 72.8596 Q239.483 73.7508 235.149 73.7508 Q224.293 73.7508 217.933 67.4314 Q211.613 61.1119 211.613 50.3365 Q211.613 39.1965 217.609 32.6746 Q223.644 26.1121 233.853 26.1121 Q243.008 26.1121 248.314 32.0264 Q253.662 37.9003 253.662 48.0275 M246.208 45.84 Q246.127 39.7232 242.765 36.0774 Q239.443 32.4315 233.934 32.4315 Q227.695 32.4315 223.928 35.9558 Q220.201 39.4801 219.634 45.8805 L246.208 45.84 Z" fill="#000000" fill-rule="nonzero" fill-opacity="1" /><path clip-path="url(#clip940)" d="M292.186 34.1734 Q290.93 33.4443 289.431 33.1202 Q287.973 32.7556 286.19 32.7556 Q279.871 32.7556 276.468 36.8875 Q273.106 40.9789 273.106 48.6757 L273.106 72.576 L265.612 72.576 L265.612 27.2059 L273.106 27.2059 L273.106 34.2544 Q275.455 30.1225 279.223 28.1376 Q282.99 26.1121 288.378 26.1121 Q289.147 26.1121 290.079 26.2337 Q291.011 26.3147 292.145 26.5172 L292.186 34.1734 Z" fill="#000000" fill-rule="nonzero" fill-opacity="1" /><path clip-path="url(#clip940)" d="M320.623 49.7694 Q311.59 49.7694 308.106 51.8354 Q304.622 53.9013 304.622 58.8839 Q304.622 62.8538 307.215 65.2034 Q309.848 67.5124 314.344 67.5124 Q320.542 67.5124 324.269 63.1374 Q328.036 58.7219 328.036 51.4303 L328.036 49.7694 L320.623 49.7694 M335.49 46.6907 L335.49 72.576 L328.036 72.576 L328.036 65.6895 Q325.484 69.8214 321.676 71.8063 Q317.868 73.7508 312.359 73.7508 Q305.392 73.7508 301.26 69.8619 Q297.168 65.9325 297.168 59.3701 Q297.168 51.7138 302.272 47.825 Q307.417 43.9361 317.585 43.9361 L328.036 43.9361 L328.036 43.2069 Q328.036 38.0623 324.633 35.2672 Q321.271 32.4315 315.154 32.4315 Q311.265 32.4315 307.579 33.3632 Q303.893 34.295 300.49 36.1584 L300.49 29.2718 Q304.581 27.692 308.43 26.9223 Q312.278 26.1121 315.924 26.1121 Q325.768 26.1121 330.629 31.2163 Q335.49 36.3204 335.49 46.6907 Z" fill="#000000" fill-rule="nonzero" fill-opacity="1" /><path clip-path="url(#clip940)" d="M380.698 49.3643 Q380.698 41.2625 377.336 36.8065 Q374.014 32.3505 367.978 32.3505 Q361.983 32.3505 358.621 36.8065 Q355.299 41.2625 355.299 49.3643 Q355.299 57.4256 358.621 61.8816 Q361.983 66.3376 367.978 66.3376 Q374.014 66.3376 377.336 61.8816 Q380.698 57.4256 380.698 49.3643 M388.152 66.9452 Q388.152 78.5308 383.007 84.1616 Q377.862 89.8329 367.249 89.8329 Q363.32 89.8329 359.836 89.2252 Q356.352 88.6581 353.071 87.4428 L353.071 80.1917 Q356.352 81.9741 359.552 82.8248 Q362.752 83.6755 366.074 83.6755 Q373.406 83.6755 377.052 79.8271 Q380.698 76.0193 380.698 68.282 L380.698 64.5957 Q378.389 68.6061 374.784 70.5911 Q371.178 72.576 366.155 72.576 Q357.81 72.576 352.706 66.2161 Q347.602 59.8562 347.602 49.3643 Q347.602 38.832 352.706 32.472 Q357.81 26.1121 366.155 26.1121 Q371.178 26.1121 374.784 28.0971 Q378.389 30.082 380.698 34.0924 L380.698 27.2059 L388.152 27.2059 L388.152 66.9452 Z" fill="#000000" fill-rule="nonzero" fill-opacity="1" /><path clip-path="url(#clip940)" d="M442.312 48.0275 L442.312 51.6733 L408.042 51.6733 Q408.528 59.3701 412.66 63.421 Q416.832 67.4314 424.245 67.4314 Q428.539 67.4314 432.55 66.3781 Q436.6 65.3249 440.57 63.2184 L440.57 70.267 Q436.56 71.9684 432.347 72.8596 Q428.134 73.7508 423.8 73.7508 Q412.943 73.7508 406.583 67.4314 Q400.264 61.1119 400.264 50.3365 Q400.264 39.1965 406.259 32.6746 Q412.295 26.1121 422.503 26.1121 Q431.658 26.1121 436.965 32.0264 Q442.312 37.9003 442.312 48.0275 M434.859 45.84 Q434.778 39.7232 431.415 36.0774 Q428.094 32.4315 422.584 32.4315 Q416.346 32.4315 412.579 35.9558 Q408.852 39.4801 408.285 45.8805 L434.859 45.84 Z" fill="#000000" fill-rule="nonzero" fill-opacity="1" /><path clip-path="url(#clip940)" d="M475.854 12.096 L484.118 12.096 L496.837 63.2184 L509.517 12.096 L518.712 12.096 L531.432 63.2184 L544.111 12.096 L552.416 12.096 L537.225 72.576 L526.936 72.576 L514.175 20.0763 L501.293 72.576 L491.004 72.576 L475.854 12.096 Z" fill="#000000" fill-rule="nonzero" fill-opacity="1" /><path clip-path="url(#clip940)" d="M578.261 49.7694 Q569.227 49.7694 565.743 51.8354 Q562.259 53.9013 562.259 58.8839 Q562.259 62.8538 564.852 65.2034 Q567.485 67.5124 571.982 67.5124 Q578.18 67.5124 581.906 63.1374 Q585.674 58.7219 585.674 51.4303 L585.674 49.7694 L578.261 49.7694 M593.127 46.6907 L593.127 72.576 L585.674 72.576 L585.674 65.6895 Q583.122 69.8214 579.314 71.8063 Q575.506 73.7508 569.997 73.7508 Q563.029 73.7508 558.897 69.8619 Q554.806 65.9325 554.806 59.3701 Q554.806 51.7138 559.91 47.825 Q565.055 43.9361 575.222 43.9361 L585.674 43.9361 L585.674 43.2069 Q585.674 38.0623 582.271 35.2672 Q578.909 32.4315 572.792 32.4315 Q568.903 32.4315 565.217 33.3632 Q561.53 34.295 558.128 36.1584 L558.128 29.2718 Q562.219 27.692 566.067 26.9223 Q569.916 26.1121 573.561 26.1121 Q583.405 26.1121 588.266 31.2163 Q593.127 36.3204 593.127 46.6907 Z" fill="#000000" fill-rule="nonzero" fill-opacity="1" /><path clip-path="url(#clip940)" d="M615.853 14.324 L615.853 27.2059 L631.206 27.2059 L631.206 32.9987 L615.853 32.9987 L615.853 57.6282 Q615.853 63.1779 617.352 64.7578 Q618.891 66.3376 623.55 66.3376 L631.206 66.3376 L631.206 72.576 L623.55 72.576 Q614.921 72.576 611.64 69.3758 Q608.359 66.1351 608.359 57.6282 L608.359 32.9987 L602.89 32.9987 L602.89 27.2059 L608.359 27.2059 L608.359 14.324 L615.853 14.324 Z" fill="#000000" fill-rule="nonzero" fill-opacity="1" /><path clip-path="url(#clip940)" d="M679.817 48.0275 L679.817 51.6733 L645.546 51.6733 Q646.032 59.3701 650.164 63.421 Q654.337 67.4314 661.75 67.4314 Q666.044 67.4314 670.054 66.3781 Q674.105 65.3249 678.075 63.2184 L678.075 70.267 Q674.064 71.9684 669.851 72.8596 Q665.639 73.7508 661.304 73.7508 Q650.448 73.7508 644.088 67.4314 Q637.768 61.1119 637.768 50.3365 Q637.768 39.1965 643.764 32.6746 Q649.799 26.1121 660.008 26.1121 Q669.163 26.1121 674.47 32.0264 Q679.817 37.9003 679.817 48.0275 M672.363 45.84 Q672.282 39.7232 668.92 36.0774 Q665.598 32.4315 660.089 32.4315 Q653.85 32.4315 650.083 35.9558 Q646.356 39.4801 645.789 45.8805 L672.363 45.84 Z" fill="#000000" fill-rule="nonzero" fill-opacity="1" /><path clip-path="url(#clip940)" d="M718.341 34.1734 Q717.085 33.4443 715.586 33.1202 Q714.128 32.7556 712.345 32.7556 Q706.026 32.7556 702.623 36.8875 Q699.261 40.9789 699.261 48.6757 L699.261 72.576 L691.767 72.576 L691.767 27.2059 L699.261 27.2059 L699.261 34.2544 Q701.611 30.1225 705.378 28.1376 Q709.145 26.1121 714.533 26.1121 Q715.303 26.1121 716.234 26.2337 Q717.166 26.3147 718.3 26.5172 L718.341 34.1734 Z" fill="#000000" fill-rule="nonzero" fill-opacity="1" /><path clip-path="url(#clip940)" d="M752.53 9.54393 L759.984 9.54393 L759.984 72.576 L752.53 72.576 L752.53 9.54393 Z" fill="#000000" fill-rule="nonzero" fill-opacity="1" /><path clip-path="url(#clip940)" d="M814.388 48.0275 L814.388 51.6733 L780.117 51.6733 Q780.603 59.3701 784.735 63.421 Q788.908 67.4314 796.321 67.4314 Q800.615 67.4314 804.625 66.3781 Q808.676 65.3249 812.646 63.2184 L812.646 70.267 Q808.635 71.9684 804.423 72.8596 Q800.21 73.7508 795.875 73.7508 Q785.019 73.7508 778.659 67.4314 Q772.339 61.1119 772.339 50.3365 Q772.339 39.1965 778.335 32.6746 Q784.371 26.1121 794.579 26.1121 Q803.734 26.1121 809.041 32.0264 Q814.388 37.9003 814.388 48.0275 M806.934 45.84 Q806.853 39.7232 803.491 36.0774 Q800.169 32.4315 794.66 32.4315 Q788.421 32.4315 784.654 35.9558 Q780.927 39.4801 780.36 45.8805 L806.934 45.84 Z" fill="#000000" fill-rule="nonzero" fill-opacity="1" /><path clip-path="url(#clip940)" d="M821.274 27.2059 L829.174 27.2059 L843.352 65.2844 L857.53 27.2059 L865.429 27.2059 L848.415 72.576 L838.288 72.576 L821.274 27.2059 Z" fill="#000000" fill-rule="nonzero" fill-opacity="1" /><path clip-path="url(#clip940)" d="M914.526 48.0275 L914.526 51.6733 L880.255 51.6733 Q880.742 59.3701 884.873 63.421 Q889.046 67.4314 896.459 67.4314 Q900.753 67.4314 904.763 66.3781 Q908.814 65.3249 912.784 63.2184 L912.784 70.267 Q908.774 71.9684 904.561 72.8596 Q900.348 73.7508 896.013 73.7508 Q885.157 73.7508 878.797 67.4314 Q872.478 61.1119 872.478 50.3365 Q872.478 39.1965 878.473 32.6746 Q884.509 26.1121 894.717 26.1121 Q903.872 26.1121 909.179 32.0264 Q914.526 37.9003 914.526 48.0275 M907.072 45.84 Q906.991 39.7232 903.629 36.0774 Q900.307 32.4315 894.798 32.4315 Q888.56 32.4315 884.792 35.9558 Q881.066 39.4801 880.498 45.8805 L907.072 45.84 Z" fill="#000000" fill-rule="nonzero" fill-opacity="1" /><path clip-path="url(#clip940)" d="M926.76 9.54393 L934.213 9.54393 L934.213 72.576 L926.76 72.576 L926.76 9.54393 Z" fill="#000000" fill-rule="nonzero" fill-opacity="1" /><path clip-path="url(#clip940)" d="M978.733 28.5427 L978.733 35.5912 Q975.573 33.9709 972.17 33.1607 Q968.768 32.3505 965.122 32.3505 Q959.572 32.3505 956.777 34.0519 Q954.022 35.7533 954.022 39.156 Q954.022 41.7486 956.007 43.2475 Q957.992 44.7058 963.988 46.0426 L966.54 46.6097 Q974.479 48.3111 977.801 51.4303 Q981.163 54.509 981.163 60.0587 Q981.163 66.3781 976.14 70.0644 Q971.158 73.7508 962.408 73.7508 Q958.762 73.7508 954.792 73.0216 Q950.863 72.3329 946.488 70.9151 L946.488 63.2184 Q950.62 65.3654 954.63 66.4591 Q958.64 67.5124 962.57 67.5124 Q967.836 67.5124 970.672 65.73 Q973.507 63.9071 973.507 60.6258 Q973.507 57.5877 971.441 55.9673 Q969.416 54.3469 962.489 52.8481 L959.896 52.2405 Q952.969 50.7821 949.89 47.7845 Q946.812 44.7463 946.812 39.4801 Q946.812 33.0797 951.349 29.5959 Q955.886 26.1121 964.231 26.1121 Q968.363 26.1121 972.008 26.7198 Q975.654 27.3274 978.733 28.5427 Z" fill="#000000" fill-rule="nonzero" fill-opacity="1" /><path clip-path="url(#clip940)" d="M1051.97 49.9314 Q1051.97 41.7081 1048.57 37.0496 Q1045.21 32.3505 1039.29 32.3505 Q1033.38 32.3505 1029.98 37.0496 Q1026.61 41.7081 1026.61 49.9314 Q1026.61 58.1548 1029.98 62.8538 Q1033.38 67.5124 1039.29 67.5124 Q1045.21 67.5124 1048.57 62.8538 Q1051.97 58.1548 1051.97 49.9314 M1026.61 34.0924 Q1028.96 30.0415 1032.53 28.0971 Q1036.13 26.1121 1041.12 26.1121 Q1049.38 26.1121 1054.53 32.6746 Q1059.71 39.2371 1059.71 49.9314 Q1059.71 60.6258 1054.53 67.1883 Q1049.38 73.7508 1041.12 73.7508 Q1036.13 73.7508 1032.53 71.8063 Q1028.96 69.8214 1026.61 65.7705 L1026.61 72.576 L1019.12 72.576 L1019.12 9.54393 L1026.61 9.54393 L1026.61 34.0924 Z" fill="#000000" fill-rule="nonzero" fill-opacity="1" /><path clip-path="url(#clip940)" d="M1090.94 76.7889 Q1087.78 84.8907 1084.79 87.3618 Q1081.79 89.8329 1076.76 89.8329 L1070.81 89.8329 L1070.81 83.5945 L1075.18 83.5945 Q1078.26 83.5945 1079.97 82.1361 Q1081.67 80.6778 1083.73 75.2496 L1085.07 71.8468 L1066.72 27.2059 L1074.62 27.2059 L1088.8 62.6918 L1102.97 27.2059 L1110.87 27.2059 L1090.94 76.7889 Z" fill="#000000" fill-rule="nonzero" fill-opacity="1" /><path clip-path="url(#clip940)" d="M1147.86 12.096 L1160.05 12.096 L1175.49 53.2532 L1191 12.096 L1203.19 12.096 L1203.19 72.576 L1195.21 72.576 L1195.21 19.4686 L1179.62 60.9499 L1171.39 60.9499 L1155.8 19.4686 L1155.8 72.576 L1147.86 72.576 L1147.86 12.096 Z" fill="#000000" fill-rule="nonzero" fill-opacity="1" /><path clip-path="url(#clip940)" d="M1236.69 32.4315 Q1230.7 32.4315 1227.22 37.1306 Q1223.73 41.7891 1223.73 49.9314 Q1223.73 58.0738 1227.17 62.7728 Q1230.66 67.4314 1236.69 67.4314 Q1242.65 67.4314 1246.13 62.7323 Q1249.62 58.0333 1249.62 49.9314 Q1249.62 41.8701 1246.13 37.1711 Q1242.65 32.4315 1236.69 32.4315 M1236.69 26.1121 Q1246.42 26.1121 1251.97 32.4315 Q1257.52 38.7509 1257.52 49.9314 Q1257.52 61.0714 1251.97 67.4314 Q1246.42 73.7508 1236.69 73.7508 Q1226.93 73.7508 1221.38 67.4314 Q1215.87 61.0714 1215.87 49.9314 Q1215.87 38.7509 1221.38 32.4315 Q1226.93 26.1121 1236.69 26.1121 Z" fill="#000000" fill-rule="nonzero" fill-opacity="1" /><path clip-path="url(#clip940)" d="M1307.59 45.1919 L1307.59 72.576 L1300.13 72.576 L1300.13 45.4349 Q1300.13 38.994 1297.62 35.7938 Q1295.11 32.5936 1290.09 32.5936 Q1284.05 32.5936 1280.57 36.4419 Q1277.08 40.2903 1277.08 46.9338 L1277.08 72.576 L1269.59 72.576 L1269.59 27.2059 L1277.08 27.2059 L1277.08 34.2544 Q1279.76 30.163 1283.36 28.1376 Q1287.01 26.1121 1291.75 26.1121 Q1299.56 26.1121 1303.57 30.9732 Q1307.59 35.7938 1307.59 45.1919 Z" fill="#000000" fill-rule="nonzero" fill-opacity="1" /><path clip-path="url(#clip940)" d="M1329.82 14.324 L1329.82 27.2059 L1345.18 27.2059 L1345.18 32.9987 L1329.82 32.9987 L1329.82 57.6282 Q1329.82 63.1779 1331.32 64.7578 Q1332.86 66.3376 1337.52 66.3376 L1345.18 66.3376 L1345.18 72.576 L1337.52 72.576 Q1328.89 72.576 1325.61 69.3758 Q1322.33 66.1351 1322.33 57.6282 L1322.33 32.9987 L1316.86 32.9987 L1316.86 27.2059 L1322.33 27.2059 L1322.33 14.324 L1329.82 14.324 Z" fill="#000000" fill-rule="nonzero" fill-opacity="1" /><path clip-path="url(#clip940)" d="M1392.69 45.1919 L1392.69 72.576 L1385.24 72.576 L1385.24 45.4349 Q1385.24 38.994 1382.73 35.7938 Q1380.22 32.5936 1375.19 32.5936 Q1369.16 32.5936 1365.68 36.4419 Q1362.19 40.2903 1362.19 46.9338 L1362.19 72.576 L1354.7 72.576 L1354.7 9.54393 L1362.19 9.54393 L1362.19 34.2544 Q1364.87 30.163 1368.47 28.1376 Q1372.12 26.1121 1376.86 26.1121 Q1384.67 26.1121 1388.68 30.9732 Q1392.69 35.7938 1392.69 45.1919 Z" fill="#000000" fill-rule="nonzero" fill-opacity="1" /><path clip-path="url(#clip940)" d="M1454.55 49.7694 Q1445.52 49.7694 1442.03 51.8354 Q1438.55 53.9013 1438.55 58.8839 Q1438.55 62.8538 1441.14 65.2034 Q1443.78 67.5124 1448.27 67.5124 Q1454.47 67.5124 1458.2 63.1374 Q1461.97 58.7219 1461.97 51.4303 L1461.97 49.7694 L1454.55 49.7694 M1469.42 46.6907 L1469.42 72.576 L1461.97 72.576 L1461.97 65.6895 Q1459.41 69.8214 1455.61 71.8063 Q1451.8 73.7508 1446.29 73.7508 Q1439.32 73.7508 1435.19 69.8619 Q1431.1 65.9325 1431.1 59.3701 Q1431.1 51.7138 1436.2 47.825 Q1441.35 43.9361 1451.51 43.9361 L1461.97 43.9361 L1461.97 43.2069 Q1461.97 38.0623 1458.56 35.2672 Q1455.2 32.4315 1449.08 32.4315 Q1445.19 32.4315 1441.51 33.3632 Q1437.82 34.295 1434.42 36.1584 L1434.42 29.2718 Q1438.51 27.692 1442.36 26.9223 Q1446.21 26.1121 1449.85 26.1121 Q1459.7 26.1121 1464.56 31.2163 Q1469.42 36.3204 1469.42 46.6907 Z" fill="#000000" fill-rule="nonzero" fill-opacity="1" /><path clip-path="url(#clip940)" d="M1492.14 14.324 L1492.14 27.2059 L1507.5 27.2059 L1507.5 32.9987 L1492.14 32.9987 L1492.14 57.6282 Q1492.14 63.1779 1493.64 64.7578 Q1495.18 66.3376 1499.84 66.3376 L1507.5 66.3376 L1507.5 72.576 L1499.84 72.576 Q1491.21 72.576 1487.93 69.3758 Q1484.65 66.1351 1484.65 57.6282 L1484.65 32.9987 L1479.18 32.9987 L1479.18 27.2059 L1484.65 27.2059 L1484.65 14.324 L1492.14 14.324 Z" fill="#000000" fill-rule="nonzero" fill-opacity="1" /><path clip-path="url(#clip940)" d="M1580.25 14.0809 L1580.25 22.0612 Q1575.59 19.8332 1571.46 18.7395 Q1567.33 17.6457 1563.48 17.6457 Q1556.8 17.6457 1553.15 20.2383 Q1549.55 22.8309 1549.55 27.611 Q1549.55 31.6214 1551.94 33.6873 Q1554.37 35.7128 1561.09 36.9686 L1566.03 37.9813 Q1575.19 39.7232 1579.52 44.1387 Q1583.9 48.5136 1583.9 55.8863 Q1583.9 64.6767 1577.98 69.2137 Q1572.11 73.7508 1560.73 73.7508 Q1556.43 73.7508 1551.57 72.7785 Q1546.75 71.8063 1541.57 69.9024 L1541.57 61.4765 Q1546.55 64.2716 1551.33 65.6895 Q1556.11 67.1073 1560.73 67.1073 Q1567.73 67.1073 1571.54 64.3527 Q1575.35 61.598 1575.35 56.4939 Q1575.35 52.0379 1572.6 49.5264 Q1569.88 47.0148 1563.64 45.759 L1558.66 44.7868 Q1549.51 42.9639 1545.41 39.075 Q1541.32 35.1862 1541.32 28.2591 Q1541.32 20.2383 1546.95 15.6203 Q1552.62 11.0023 1562.55 11.0023 Q1566.8 11.0023 1571.22 11.7719 Q1575.63 12.5416 1580.25 14.0809 Z" fill="#000000" fill-rule="nonzero" fill-opacity="1" /><path clip-path="url(#clip940)" d="M1635.14 48.0275 L1635.14 51.6733 L1600.87 51.6733 Q1601.36 59.3701 1605.49 63.421 Q1609.66 67.4314 1617.07 67.4314 Q1621.37 67.4314 1625.38 66.3781 Q1629.43 65.3249 1633.4 63.2184 L1633.4 70.267 Q1629.39 71.9684 1625.18 72.8596 Q1620.96 73.7508 1616.63 73.7508 Q1605.77 73.7508 1599.41 67.4314 Q1593.09 61.1119 1593.09 50.3365 Q1593.09 39.1965 1599.09 32.6746 Q1605.12 26.1121 1615.33 26.1121 Q1624.49 26.1121 1629.79 32.0264 Q1635.14 37.9003 1635.14 48.0275 M1627.69 45.84 Q1627.61 39.7232 1624.24 36.0774 Q1620.92 32.4315 1615.41 32.4315 Q1609.18 32.4315 1605.41 35.9558 Q1601.68 39.4801 1601.11 45.8805 L1627.69 45.84 Z" fill="#000000" fill-rule="nonzero" fill-opacity="1" /><path clip-path="url(#clip940)" d="M1643.04 27.2059 L1650.49 27.2059 L1659.81 62.6108 L1669.09 27.2059 L1677.88 27.2059 L1687.2 62.6108 L1696.47 27.2059 L1703.93 27.2059 L1692.06 72.576 L1683.27 72.576 L1673.5 35.3887 L1663.7 72.576 L1654.91 72.576 L1643.04 27.2059 Z" fill="#000000" fill-rule="nonzero" fill-opacity="1" /><path clip-path="url(#clip940)" d="M1754.04 48.0275 L1754.04 51.6733 L1719.76 51.6733 Q1720.25 59.3701 1724.38 63.421 Q1728.56 67.4314 1735.97 67.4314 Q1740.26 67.4314 1744.27 66.3781 Q1748.32 65.3249 1752.29 63.2184 L1752.29 70.267 Q1748.28 71.9684 1744.07 72.8596 Q1739.86 73.7508 1735.52 73.7508 Q1724.67 73.7508 1718.31 67.4314 Q1711.99 61.1119 1711.99 50.3365 Q1711.99 39.1965 1717.98 32.6746 Q1724.02 26.1121 1734.23 26.1121 Q1743.38 26.1121 1748.69 32.0264 Q1754.04 37.9003 1754.04 48.0275 M1746.58 45.84 Q1746.5 39.7232 1743.14 36.0774 Q1739.82 32.4315 1734.31 32.4315 Q1728.07 32.4315 1724.3 35.9558 Q1720.58 39.4801 1720.01 45.8805 L1746.58 45.84 Z" fill="#000000" fill-rule="nonzero" fill-opacity="1" /><path clip-path="url(#clip940)" d="M1766.27 9.54393 L1773.72 9.54393 L1773.72 72.576 L1766.27 72.576 L1766.27 9.54393 Z" fill="#000000" fill-rule="nonzero" fill-opacity="1" /><path clip-path="url(#clip940)" d="M1789.32 9.54393 L1796.77 9.54393 L1796.77 72.576 L1789.32 72.576 L1789.32 9.54393 Z" fill="#000000" fill-rule="nonzero" fill-opacity="1" /><path clip-path="url(#clip940)" d="M1841.29 28.5427 L1841.29 35.5912 Q1838.13 33.9709 1834.73 33.1607 Q1831.33 32.3505 1827.68 32.3505 Q1822.13 32.3505 1819.34 34.0519 Q1816.58 35.7533 1816.58 39.156 Q1816.58 41.7486 1818.57 43.2475 Q1820.55 44.7058 1826.55 46.0426 L1829.1 46.6097 Q1837.04 48.3111 1840.36 51.4303 Q1843.72 54.509 1843.72 60.0587 Q1843.72 66.3781 1838.7 70.0644 Q1833.72 73.7508 1824.97 73.7508 Q1821.32 73.7508 1817.35 73.0216 Q1813.42 72.3329 1809.05 70.9151 L1809.05 63.2184 Q1813.18 65.3654 1817.19 66.4591 Q1821.2 67.5124 1825.13 67.5124 Q1830.4 67.5124 1833.23 65.73 Q1836.07 63.9071 1836.07 60.6258 Q1836.07 57.5877 1834 55.9673 Q1831.97 54.3469 1825.05 52.8481 L1822.46 52.2405 Q1815.53 50.7821 1812.45 47.7845 Q1809.37 44.7463 1809.37 39.4801 Q1809.37 33.0797 1813.91 29.5959 Q1818.44 26.1121 1826.79 26.1121 Q1830.92 26.1121 1834.57 26.7198 Q1838.21 27.3274 1841.29 28.5427 Z" fill="#000000" fill-rule="nonzero" fill-opacity="1" /><path clip-path="url(#clip940)" d="M1890.47 18.8205 L1890.47 41.5461 L1900.76 41.5461 Q1906.47 41.5461 1909.59 38.5889 Q1912.71 35.6318 1912.71 30.163 Q1912.71 24.7348 1909.59 21.7777 Q1906.47 18.8205 1900.76 18.8205 L1890.47 18.8205 M1882.29 12.096 L1900.76 12.096 Q1910.93 12.096 1916.11 16.714 Q1921.34 21.2916 1921.34 30.163 Q1921.34 39.1155 1916.11 43.6931 Q1910.93 48.2706 1900.76 48.2706 L1890.47 48.2706 L1890.47 72.576 L1882.29 72.576 L1882.29 12.096 Z" fill="#000000" fill-rule="nonzero" fill-opacity="1" /><path clip-path="url(#clip940)" d="M1946.62 32.4315 Q1940.62 32.4315 1937.14 37.1306 Q1933.65 41.7891 1933.65 49.9314 Q1933.65 58.0738 1937.1 62.7728 Q1940.58 67.4314 1946.62 67.4314 Q1952.57 67.4314 1956.05 62.7323 Q1959.54 58.0333 1959.54 49.9314 Q1959.54 41.8701 1956.05 37.1711 Q1952.57 32.4315 1946.62 32.4315 M1946.62 26.1121 Q1956.34 26.1121 1961.89 32.4315 Q1967.44 38.7509 1967.44 49.9314 Q1967.44 61.0714 1961.89 67.4314 Q1956.34 73.7508 1946.62 73.7508 Q1936.85 73.7508 1931.3 67.4314 Q1925.79 61.0714 1925.79 49.9314 Q1925.79 38.7509 1931.3 32.4315 Q1936.85 26.1121 1946.62 26.1121 Z" fill="#000000" fill-rule="nonzero" fill-opacity="1" /><path clip-path="url(#clip940)" d="M1979.79 27.2059 L1987.25 27.2059 L1987.25 72.576 L1979.79 72.576 L1979.79 27.2059 M1979.79 9.54393 L1987.25 9.54393 L1987.25 18.9825 L1979.79 18.9825 L1979.79 9.54393 Z" fill="#000000" fill-rule="nonzero" fill-opacity="1" /><path clip-path="url(#clip940)" d="M2040.56 45.1919 L2040.56 72.576 L2033.1 72.576 L2033.1 45.4349 Q2033.1 38.994 2030.59 35.7938 Q2028.08 32.5936 2023.06 32.5936 Q2017.02 32.5936 2013.54 36.4419 Q2010.05 40.2903 2010.05 46.9338 L2010.05 72.576 L2002.56 72.576 L2002.56 27.2059 L2010.05 27.2059 L2010.05 34.2544 Q2012.73 30.163 2016.33 28.1376 Q2019.98 26.1121 2024.72 26.1121 Q2032.54 26.1121 2036.55 30.9732 Q2040.56 35.7938 2040.56 45.1919 Z" fill="#000000" fill-rule="nonzero" fill-opacity="1" /><path clip-path="url(#clip940)" d="M2062.8 14.324 L2062.8 27.2059 L2078.15 27.2059 L2078.15 32.9987 L2062.8 32.9987 L2062.8 57.6282 Q2062.8 63.1779 2064.29 64.7578 Q2065.83 66.3376 2070.49 66.3376 L2078.15 66.3376 L2078.15 72.576 L2070.49 72.576 Q2061.86 72.576 2058.58 69.3758 Q2055.3 66.1351 2055.3 57.6282 L2055.3 32.9987 L2049.83 32.9987 L2049.83 27.2059 L2055.3 27.2059 L2055.3 14.324 L2062.8 14.324 Z" fill="#000000" fill-rule="nonzero" fill-opacity="1" /><path clip-path="url(#clip940)" d="M2089.86 62.2867 L2098.4 62.2867 L2098.4 69.2543 L2091.76 82.2172 L2086.53 82.2172 L2089.86 69.2543 L2089.86 62.2867 Z" fill="#000000" fill-rule="nonzero" fill-opacity="1" /><path clip-path="url(#clip940)" d="M2156.61 72.576 L2133.52 12.096 L2142.07 12.096 L2161.23 63.0159 L2180.43 12.096 L2188.94 12.096 L2165.89 72.576 L2156.61 72.576 Z" fill="#000000" fill-rule="nonzero" fill-opacity="1" /><path clip-path="url(#clip940)" d="M2212.68 20.1573 L2201.58 50.2555 L2223.82 50.2555 L2212.68 20.1573 M2208.06 12.096 L2217.34 12.096 L2240.39 72.576 L2231.88 72.576 L2226.37 57.061 L2199.11 57.061 L2193.6 72.576 L2184.97 72.576 L2208.06 12.096 Z" fill="#000000" fill-rule="nonzero" fill-opacity="1" /><polyline clip-path="url(#clip942)" style="stroke:#009af9; stroke-linecap:round; stroke-linejoin:round; stroke-width:12; stroke-opacity:1; fill:none" points="332.772,1143.68 485.639,1061.33 638.506,904.78 791.373,775.568 944.24,660.627 1097.11,615.898 1249.97,747.995 1402.84,531.097 1555.71,150.518 1708.58,224.637 1861.44,619.996 2014.31,1023.94 "/>
</svg>
